<svg version="1.1" id="图层_1" xmlns="http://www.w3.org/2000/svg" x="0" y="0" viewBox="0 0 444.3 41.9" xml:space="preserve"><style type="text/css">.st0{fill:#47454E;} .st1{fill:#4380DD;}</style><path id="XMLID_47_" class="st0" d="M218.2,5.7h21.4V1.5h-21.4V5.7z M233.7,26.2h-3.4l-1.3,6.3h-0.2l-1.3-6.3h-3.4l1.3,6.3h-1.6v3.3 h3.2v5.7h3.9v-5.7h3.2v-3.3h-1.6L233.7,26.2z M219.6,7.9v10.5h18.6V7.9L219.6,7.9z M233.9,14.7H224v-3h9.9V14.7z M218.3,41.4h4.4 V24.3h12.6v17.1h4.4V20.6h-21.3V41.4z M258.9,32.2h-3.8l0.4,5.3H252v-10h6.9V5.8H252V0.6H248v5.2h-6.6v21.7h6.6v10h-6.6v3.9h18.1 L258.9,32.2z M252,9.9h3v13.6h-3V9.9z M248,23.5h-2.7V9.9h2.7V23.5z M139.8,29h7.5v5.6h4.4V29h7.5v5.6h4.4v-24h-7.7l0.7-0.4 c2-1.2,4-2.5,5.7-3.9l0.1-0.1V1.5h-26v4.2h20.5L156,6.1c-2.8,1.9-5.9,3.3-9.2,4.4l-0.7,0.2l-0.7-2.9h-4.7l0.7,2.9h-5.9v24h4.4V29z M151.7,14.4h7.5v3.7h-7.5V14.4z M151.7,21.9h7.5v3.4h-7.5V21.9z M139.8,14.4h7.5v3.7h-7.5V14.4z M139.8,21.9h7.5v3.4h-7.5V21.9z M130,11l-1.7-9.4h-4.7l1.8,9.4H130z M131.7,33.1V18.1h-9.1v4.2h4.8l0,10.3c-0.5,1.5-1.2,2.7-2.2,3.4c-0.7,0.5-1.4,0.9-2.4,1.1 l-0.1,0v4.3l0.2,0c2.4-0.4,4.3-1.3,5.8-2.7l0.2-0.2l0.1,0.2c1.9,2.4,5,2.7,7.2,2.7l0.7,0l0.3,0h28.4v-4.3H138 C133.5,37.2,131.7,36,131.7,33.1 M206.3,31h-4.7l-1.3,6.3h-6.6V26.9H211v-4h-17.3V18h11.2V14h-26.7V18h11.2v4.9h-17.3v4h17.3v10.4 h-6.6l-1.3-6.3h-4.7l1.2,6.3h-7.5v4.2h41.8v-4.2H205L206.3,31z M109.2,6.2h6.9V1.5H75.4v4.7H83v12.5h-8.1v4.7H83c0,0,0,2.5-0.1,3.4 c-0.3,6.5-5.6,10-7.4,10.4v4.8c0.1,0,11.9-2.3,12.3-16.1c0-0.5,0.1-2.4,0.1-2.4h16.3v18.1h4.9V23.3h7.5v-4.7h-7.5V6.2z M104.3,18.7 H87.9V6.2h16.4V18.7z M191.3,5.1l0.1-0.1v0l0.2,0.1c4.8,4.4,13.7,8.5,20.2,9.8l0.5,0.1v-4.7l-0.3-0.1c-6.3-1.4-14-5.3-18.3-9.6 l-0.1-0.1h-2.1v0h-2.1l-0.1,0.1c-4.3,4.3-12,8.2-18.3,9.6l-0.3,0.1V15l0.5-0.1C177.6,13.6,186.5,9.5,191.3,5.1"/><path id="XMLID_44_" class="st1" d="M37.9,0L23.8,20.7l14.1,20.7H60V0H37.9z M0,41.4h22.1V0H0V41.4z"/><g id="XMLID_31_"><path id="XMLID_41_" class="st0" d="M301,2.6h-24.3l0,37.6h8.7v-12H301c9.7,0,11.8-4.8,11.8-8.9v-7.9C312.8,7.4,310.8,2.6,301,2.6z M285.4,10.2h14.8c3.9,0,3.9,0.7,3.9,2.4v5.4c0,1.8,0,2.4-3.9,2.4h-14.8V10.2z"/><path id="XMLID_38_" class="st0" d="M389.9,33.2c-0.1,0-0.3-0.2-0.5-0.5c-3.2-5.6-6.4-11.3-9.5-16.9c-2.2-3.9-4.4-7.8-6.6-11.7 c-0.5-0.9-1.2-1.3-2.2-1.3h0c-0.9,0-1.7,0-2.6,0l-8.3,0v37.3h7.9V9.8c0.1,0,0.2,0.2,0.4,0.5c2.7,4.8,5.4,9.5,8.1,14.2 c2.7,4.8,5.4,9.5,8.1,14.3c0.6,1,1.3,1.4,2.4,1.4h0.1c1.1,0,2.3,0,3.4,0l7.3,0V2.9h-7.9V33.2z M387,39.3L387,39.3L387,39.3 L387,39.3z"/><path id="XMLID_35_" class="st0" d="M444.3,22.1l0-0.9c0-1.1-0.1-2.1-0.1-3.2c-0.1-2.4-0.1-5-0.4-7.5c-0.4-3.8-2.8-6.4-6.6-7.5 c-1.5-0.4-3.1-0.7-4.5-0.7c-4.5-0.1-11.1-0.1-15.6,0c-7.1,0.1-11.2,3.5-11.4,9.3c-0.2,6.3-0.2,12.9,0,19.3c0.2,5.4,4.2,9,10.4,9.1 c2.7,0.1,7.5,0.1,10.2,0.1c2.7,0,5.1-0.1,7.3-0.2c5.7-0.3,9-2.8,10.1-7.6c0.2-1,0.3-1.9,0.4-3c0-2,0-4,0-6l0-1.4L444.3,22.1z M413.8,20.3L413.8,20.3l0-1.2c0-1.9,0-3.8,0-5.7c0-0.5,0.1-1.1,0.2-1.9c0.2-1.1,0.7-1.8,2.4-2.1c0.8-0.1,1.6-0.2,2.4-0.2 c3.3,0,8.7,0,12,0c0.7,0,1.4,0.1,2.2,0.2c2,0.3,2.5,1.1,2.7,2.4c0.1,0.9,0.2,1.5,0.2,2.1c0,4.9,0,9.7,0,14.6c0,0.7-0.1,1.5-0.2,2.4 c-0.2,1.5-1.3,2.2-3.2,2.3c-2.3,0-6.5,0.1-8.8,0.1h0c-2.2,0-4.5,0-6.7-0.1c-2.2,0-3.2-1-3.2-3.3c0-2,0-4,0-6l0-2.6L413.8,20.3z"/><path id="XMLID_32_" class="st0" d="M355.3,38.4l-3.3-8.1c-3.5-8.7-7-17.5-10.5-26.2c-0.5-1.2-1.4-1.3-2.1-1.3h0c-3,0-6,0-9.2,0 c-1.3,0-2.1,0.5-2.6,1.7c-3.1,7.8-6.2,15.6-9.4,23.4l-4.9,12.3h8.6l1-2.4c0.6-1.6,1.3-3.1,1.9-4.7c0.1-0.2,0.1-0.2,0.1-0.2 c0,0,0.1,0,0.4,0h0c6.2,0,12.4,0,18.6,0c0.4,0,0.4,0,0.6,0.4c0.9,2.3,1.6,4.1,2.4,5.8c0.3,0.6,1,1.3,1.7,1.3c1,0,2,0,3,0l4.3,0 l-0.5-1.4C355.4,38.6,355.4,38.5,355.3,38.4z M341.5,25.7h-13.8l3.6-9c0.8-1.9,1.5-3.8,2.3-5.7c0.5-1.2,0.5-1.2,1.1-1.2 c0.1,0,0.3,0,0.4,0L341.5,25.7z"/></g></svg>