<svg version="1.1" id="图层_1" xmlns="http://www.w3.org/2000/svg" x="0" y="0" viewBox="0 0 113.4 104.7" xml:space="preserve"><style type="text/css">.st0{fill-rule:evenodd;clip-rule:evenodd;fill:#494650;} .st1{fill:#173778;}</style><path class="st0" d="M.1 91.6H2.6V104.5H.1zM21.1 91.6H23.6V104.5H21.1zM42.3 91.6H44.8V104.5H42.3z"/><path class="st0" d="M15.7 91.6H29V93.89999999999999H15.7zM14.4 104.4l-6.9-6.5 6.6-6.3h-3.4l-5 4.8c-.3.3-.6.5-1.1.5-.5 0-3.8 0-3.8 0v2.2c0 0 3.4 0 4 0 .5 0 .7.1 1 .4l5.2 5H14.4zM56.1 104.5l-3.6-4.9c1.1-.5 2.1-1.3 2.1-2.7v-2.4c0-2-1.4-2.9-3.9-2.9h-8.5v2.1c0 0 6.3 0 8.2 0 1.7 0 1.7.4 1.7 1.2v1.8c0 .9-.6 1.2-1.6 1.2h-8.3v2.1c0 0 5.9 0 6.9 0 .8 0 1 .3 1.2.6l2.8 3.8H56.1zM59 101.7H61.4V104.4H59zM79 95.4v5.8c0 2.5 1.8 3.3 3.4 3.3 1.2 0 7.4 0 7.4 0 1.4 0 2.8-1.1 2.8-3.3 0-2.4 0-5.7 0-5.7 0-2.2-.9-3.9-3.9-3.9-1.1 0-3.7 0-6 0C80.6 91.5 79 92.5 79 95.4zM81.5 101.2V95c0-1.2 1-1.3 1.9-1.3 1.6 0 3.7 0 5 0 1.2 0 1.6.6 1.6 1.3v6.1c0 .7-.3 1.3-1.2 1.3-1.9 0-5.5 0-6.1 0C82.2 102.3 81.5 102.1 81.5 101.2zM35.5 91.7v9.6c0 .6-.5 1.3-1.2 1.3 0 0-2.7 0-4.6 0-.5 0-.5 0-1.7-.2v1.9c.6.2 1.9.3 2.6.3 2 0 4 0 4 0 2.1 0 3.3-1.7 3.3-3.4v-9.5H35.5zM68.8 93.7c1 0 3.6 0 5.6 0 .8 0 2.1.1 2.1.1v-1.9c-1.3-.2-3.1-.3-3.7-.3-1 0-4.9 0-4.9 0-1.4 0-3.4.4-3.4 3.9v5c0 3.5 2 3.9 3.4 3.9h6c.5 0 2.2-.2 2.6-.3v-1.9c0 0-1.2.2-2.2.2h-5.4c-1.5 0-1.9-.5-1.9-1.2v-6.1C67.1 94.4 67.3 93.7 68.8 93.7zM108.6 91.6c-.4 0-.6.2-.7.5 0 0-3.4 9-3.4 8.9 0 .1-.1.1-.1.1 0 0-.1 0-.1-.1.1.2-3.4-8.9-3.4-8.9-.1-.3-.3-.5-.7-.5-.3 0-4.7 0-4.7 0v12.9h2.5V93.8c0 0 .6 0 .7 0 .3 0 .4.2.5.3l3.3 8.7c.1.1.1.3.5.3h2.6c.4 0 .5-.1.5-.3l3.3-8.7c.1-.1.2-.3.5-.3.2 0 .7 0 .7 0v10.6h2.5V91.6C113.3 91.6 108.9 91.6 108.6 91.6z"/><path class="st1" d="M71.7,0L45,39.1l26.7,39.1h41.7V0H71.7z M0,78.2h41.7V0H0V78.2z"/></svg>