<svg version="1.1" id="图层_1" xmlns="http://www.w3.org/2000/svg" x="0" y="0" viewBox="213 11.4 526.4 49.6" xml:space="preserve"><style type="text/css">.st0{fill:#FFFFFF;} .st1{fill:#4380DD;}</style><path class="st0" d="M471.5,18.1h25.3v-4.9h-25.3V18.1z M489.8,42.4h-4l-1.5,7.4h-0.2l-1.5-7.4h-4l1.5,7.4h-1.9v3.9h3.7v6.8h4.6 v-6.8h3.7v-3.9h-1.9L489.8,42.4z M473.1,20.7v12.5h22.1V20.7H473.1z M490.1,28.8h-11.7v-3.6h11.7V28.8z M471.5,60.5h5.2V40.2h14.9 v20.3h5.2V35.8h-25.3L471.5,60.5L471.5,60.5z M519.7,49.6h-4.5l0.4,6.2h-4.1V44h8.2V18.2h-8.2v-6.1h-4.6v6.1h-7.8v25.7h7.8v11.8 h-7.8v4.7h21.4L519.7,49.6z M511.5,23.2h3.6v16.1h-3.6V23.2z M506.9,39.3h-3.2V23.2h3.2V39.3z M378.7,45.8h8.8v6.6h5.2v-6.6h8.8v6.6 h5.2V24h-9.2l0.8-0.5c2.4-1.4,4.7-2.9,6.8-4.6l0.1-0.1v-5.6h-30.8v4.9h24.2l-0.7,0.5c-3.4,2.2-7,3.9-10.9,5.2l-0.8,0.2l-0.8-3.4 h-5.6l0.8,3.4h-7v28.4h5.2L378.7,45.8L378.7,45.8z M392.7,28.5h8.8v4.4h-8.8V28.5z M392.7,37.3h8.8v4.1h-8.8V37.3z M378.7,28.5h8.8 v4.4h-8.8V28.5z M378.7,37.3h8.8v4.1h-8.8V37.3z M367,24.4l-2.1-11.1h-5.6l2.1,11.1H367z M369,50.6V32.9h-10.8v4.9h5.6V50 c-0.6,1.8-1.4,3.2-2.6,4.1c-0.8,0.6-1.7,1-2.8,1.3h-0.2v5h0.3c2.8-0.5,5.1-1.6,6.8-3.2l0.2-0.2l0.2,0.2c2.3,2.9,6,3.2,8.6,3.2h0.8 h0.4H409v-5h-32.5C371.1,55.4,369,54.1,369,50.6 M457.4,48.1h-5.6l-1.5,7.4h-7.8V43.3H463v-4.8h-20.5v-5.8h13.2v-4.6h-31.6v4.6h13.2 v5.8h-20.5v4.8h20.5v12.3h-7.8l-1.5-7.4h-5.6l1.5,7.4H415v5h49.5v-5h-8.7L457.4,48.1z M342.3,18.7h8.2v-5.5h-48.2v5.5h9v14.8h-9.6 V39h9.7c0,0,0,3-0.1,4c-0.3,7.7-6.6,11.8-8.8,12.3v5.6c0.2,0,14.1-2.7,14.6-19.1c0-0.6,0.1-2.8,0.1-2.8h19.3v21.5h5.8V39h8.9v-5.5 h-8.9V18.7z M336.5,33.5h-19.4V18.7h19.4V33.5z M439.6,17.5l0.2-0.2l0,0l0.2,0.1c5.7,5.2,16.3,10.1,24,11.6l0.6,0.1v-5.6l-0.4-0.1 c-7.5-1.7-16.6-6.3-21.7-11.4l-0.1-0.1h-2.5l0,0h-2.5l-0.1,0.1c-5.1,5.1-14.2,9.7-21.7,11.4l-0.4,0.1v5.6l0.6-0.1 C423.4,27.6,433.9,22.7,439.6,17.5"/><path class="st1" d="M257.9,11.4l-16.7,24.5l16.7,24.5H284v-49H257.9z M213,60.4h26.1v-49H213V60.4z"/><path class="st0" d="M569.6 14.4h-28.8V59h10.3V44.8h18.5c11.5 0 14-5.7 14-10.5v-9.4C583.6 20.1 581.2 14.4 569.6 14.4zM551.1 23.5h17.5c4.6 0 4.6.8 4.6 2.9v6.4c0 2.1 0 2.9-4.6 2.9h-17.5V23.5zM674.9 50.7c-.1 0-.3-.2-.5-.6-3.8-6.7-7.5-13.3-11.3-20-2.6-4.6-5.3-9.3-7.9-13.9-.6-1-1.4-1.5-2.6-1.5l0 0c-1 0-2 0-3.1 0h-9.8v44.2h9.3V23c.1.1.2.2.5.6 3.2 5.6 6.4 11.3 9.6 16.9 3.2 5.6 6.4 11.3 9.6 16.9.7 1.2 1.5 1.7 2.8 1.7h.1c1.3 0 2.7 0 4 0h8.7V14.8H675L674.9 50.7 674.9 50.7zM671.4 57.9L671.4 57.9 671.4 57.9 671.4 57.9zM739.4 37.6v-1.1c0-1.3-.1-2.5-.1-3.8-.1-2.9-.1-5.9-.4-8.8-.5-4.5-3.3-7.6-7.9-8.9-1.8-.5-3.7-.8-5.4-.8-5.4-.1-13.1-.1-18.5 0-8.4.2-13.3 4.2-13.5 11-.2 7.5-.2 15.2 0 22.9.2 6.4 5 10.6 12.3 10.8 3.3.1 8.9.2 12.1.2 3.1 0 6-.1 8.7-.2 6.7-.3 10.7-3.3 12-9 .3-1.1.4-2.3.4-3.5 0-2.4 0-4.7 0-7.1v-1.7L739.4 37.6zM703.2 35.4L703.2 35.4V34c0-2.3 0-4.5 0-6.8 0-.6.1-1.4.3-2.2.2-1.3.8-2.1 2.9-2.5.9-.2 1.9-.2 2.8-.2 3.9 0 10.3 0 14.2 0 .8 0 1.6.1 2.6.2 2.4.3 3 1.2 3.2 2.8.2 1 .2 1.8.2 2.5 0 5.8 0 11.5 0 17.3 0 .9-.1 1.8-.3 2.9-.3 1.7-1.6 2.6-3.8 2.7-2.7.1-7.7.1-10.4.1l0 0c-2.6 0-5.3 0-7.9-.1s-3.7-1.2-3.8-3.9c-.1-2.4 0-4.8 0-7.1v-3.1L703.2 35.4zM633.9 56.9l-3.9-9.6c-4.2-10.3-8.3-20.7-12.5-31-.6-1.4-1.6-1.5-2.5-1.5l0 0c-3.6 0-7.1.1-10.9 0-1.6 0-2.5.6-3 2-3.7 9.2-7.4 18.5-11.1 27.7l-5.9 14.6h10.2l1.2-2.9c.8-1.9 1.5-3.7 2.2-5.6.1-.2.1-.3.1-.3s.1-.1.5-.1l0 0c7.3 0 14.6 0 22 0 .5 0 .5 0 .7.4 1 2.7 1.9 4.8 2.8 6.8.3.7 1.2 1.5 2.1 1.5 1.2 0 2.3.1 3.5.1h5.1l-.5-1.7C634 57.2 634 57.1 633.9 56.9zM617.6 41.9h-16.3l4.2-10.7c.9-2.3 1.8-4.5 2.7-6.8.5-1.4.5-1.4 1.4-1.4.2 0 .3 0 .5 0L617.6 41.9z"/></svg>