<svg version="1.1" id="图层_1" xmlns="http://www.w3.org/2000/svg" x="0" y="0" viewBox="-733.3 406.3 188.6 189.5" xml:space="preserve"><style type="text/css">.st0{fill:#272636;}</style><path class="st0" d="M-3278.3,3040.3c-0.4-9.5-0.1-42.2,14.3-62c17-23.2,51.5-28.4,58.2-29.2c85.2-11.8,167.3-47.4,231.2-100.4 c100.4-83.2,154.2-205.1,147.8-334c-6.5-129-72.4-245.6-180.9-319.9c-75-51.3-164.5-78.5-258.6-78.5c-40.1,0-80.3,5-119.6,15 c-132.5,33.4-239.5,118.3-293.6,233c-55.4,116.9-49.2,250.6,17,366.7c66.3,116.2,181.2,195.2,315.8,216.8l10,1.7l-6.5,35.8 l-9.5-1.5c-145.9-23.6-270.7-109.2-342.4-235.1c-72.2-126.3-79-272-18.6-399.5c58.9-124.7,175-216.8,318.5-253.1 c42.4-10.6,85.6-16.1,128.9-16.1c101.8,0,198.7,29.4,279.9,85.1c118,80.6,189.7,207.4,196.7,347.8c7,140.3-51.6,272.8-160.9,363.5 c-69.1,57.2-158.1,95.9-250.6,108.7h-0.5c-6.1,0.6-25.3,4.7-32.3,14.2c-5.8,7.9-7.8,28.3-7.4,39.6l0.4,10l-37.4,1.3 L-3278.3,3040.3L-3278.3,3040.3z M-3540.4,2570.1l85.2-79.9l-85.4-80.3l26.9-25.3l101.4,95.4v0.1l11,10.2l-112.4,105.2 L-3540.4,2570.1z M-3144.8,2490.6l26.5-25.2l0.1,0.1l85.5-80.4l26.9,25.3l-85.6,80.4l85.4,79.6l-26.9,25.3L-3144.8,2490.6z M-3185.4,2760.2c-1.5-1.5-36.5-36.2-88.1-36.2h-0.4c-49.4,0.3-76,31.2-79,34.7l-5.8,7l-14.7-10.4l-15.2-11.5l6.4-8.1 c6.5-8.1,42.5-48.1,107.9-48.5h0.9c67.1,0,110.3,42.9,114.9,47.7l7.4,7.7l-8.1,6.8l-20.1,16.8L-3185.4,2760.2L-3185.4,2760.2z" transform="scale(0.1953125, 0.1953125)"/></svg>