<?xml version="1.0" encoding="utf-8"?>
<!-- Generator: Adobe Illustrator 19.0.0, SVG Export Plug-In . SVG Version: 6.00 Build 0)  -->
<svg version="1.1" id="icons" xmlns="http://www.w3.org/2000/svg" xmlns:xlink="http://www.w3.org/1999/xlink" x="0px" y="0px"
	 viewBox="0 0 53 41.3" style="enable-background:new 0 0 53 41.3;" xml:space="preserve">
<style type="text/css">
	.st0{fill:#3CB9D3;}
</style>
<g id="cloud-computing_2_">
	<g id="cloud-computing_3_">
		<path class="st0" d="M47.5,39.5h-42H0c0,0,0,1.8,1.8,1.8c1.8,0,47.6,0,49.4,0c1.8,0,1.8-1.8,1.8-1.8H47.5z"/>
		<path class="st0" d="M47.5,38.5c0.1-0.2,0.1-0.3,0.1-0.5V13c0-0.8-0.6-1.4-1.4-1.4h-4.4c0.2,0.6,0.2,1.2,0.2,1.8
			c0,0.2,0,0.3,0,0.5h3.3v22.6H7.7V13.8h3.6c0.1-0.8,0.4-1.6,0.9-2.3H6.8c-0.8,0-1.4,0.6-1.4,1.4v25c0,0.2,0,0.4,0.1,0.5H47.5z"/>
		<path class="st0" d="M21.5,24.1c1.4,1.4,3.2,2.1,5.1,2.1c1.9,0,3.8-0.8,5.1-2.1l-1-1c-1.1,1.1-2.6,1.7-4.2,1.7
			c-1.6,0-3.1-0.6-4.2-1.7L21.5,24.1z"/>
		<path class="st0" d="M28.9,21.3l-1-1c-0.7,0.7-2,0.7-2.8,0l-1,1c0.6,0.6,1.5,1,2.3,1C27.5,22.3,28.3,21.9,28.9,21.3z"/>
		<path class="st0" d="M18.7,26.9c2.1,2.1,4.9,3.3,7.9,3.3c3,0,5.8-1.2,7.9-3.3l-1-1c-1.9,1.9-4.3,2.9-7,2.9c-2.6,0-5.1-1-7-2.9
			L18.7,26.9z"/>
		<path class="st0" d="M16.8,19.1H35c3,0,5.5-2.3,5.7-5.3c0-0.2,0-0.3,0-0.5c0-0.6-0.1-1.2-0.3-1.8c-0.8-2.3-2.9-3.9-5.5-3.9
			c-0.4,0-0.7,0-1.1,0.1c0-0.1,0-0.3,0-0.5c0-1.9-1.6-3.5-3.5-3.5c-0.7,0-1.4,0.2-1.9,0.6C27.6,1.8,25.2,0,22.4,0
			c-3.6,0-6.5,2.9-6.5,6.5c0,0.3,0,0.5,0,0.8c-1.2,0.1-2.2,1.1-2.2,2.4c0,0.6,0.2,1.1,0.5,1.5c-0.2,0.1-0.4,0.3-0.6,0.5
			c-0.6,0.6-1.1,1.4-1.3,2.3c-0.1,0.3-0.1,0.6-0.1,0.9C12.4,17.2,14.3,19.1,16.8,19.1z"/>
	</g>
</g>
</svg>
