<?xml version="1.0" encoding="utf-8"?>
<!-- Generator: Adobe Illustrator 19.0.0, SVG Export Plug-In . SVG Version: 6.00 Build 0)  -->
<svg version="1.1" id="icons" xmlns="http://www.w3.org/2000/svg" xmlns:xlink="http://www.w3.org/1999/xlink" x="0px" y="0px"
	 viewBox="0 0 49 38" style="enable-background:new 0 0 49 38;" xml:space="preserve">
<style type="text/css">
	.st0{fill:#FFFFFF;}
</style>
<g id="search-results_1_">
	<g id="search-results_2_">
		<path id="search-results_3_" class="st0" d="M36.9,22.6c0.3,0,0.5,0.2,0.5,0.5c0,0.3-0.2,0.5-0.5,0.5c-0.3,0-0.5-0.2-0.5-0.5
			C36.4,22.8,36.6,22.6,36.9,22.6z M22.9,15.7H6.7v1.6h15.4C22.3,16.7,22.6,16.2,22.9,15.7z M33.2,18.1c1.5,0.6,2.6,2,3,3.6
			c0.1,0.2,0.2,0.4,0.4,0.4c0,0,0.1,0,0.1,0c0.2-0.1,0.4-0.3,0.3-0.6c-0.5-1.9-1.8-3.5-3.6-4.2c-0.2-0.1-0.5,0-0.6,0.2
			C32.9,17.8,33,18,33.2,18.1z M6.7,25.6h15.1c-0.2-0.5-0.3-1-0.4-1.6H6.7V25.6z M6.7,19.9v1.6h14.4c0-0.5,0.1-1,0.2-1.6H6.7z
			 M27.8,11.6H6.7v1.6h18.5C26,12.5,26.9,12,27.8,11.6z M43.1,29l-0.6-0.6c-0.3-0.3-0.7-0.5-1-0.6c-0.7-0.2-1.4,0-2,0.6
			c-0.8,0.8-0.8,2.2,0,3L40,32l1.4-1.4L43.1,29z M37.9,32.6l1.1,1.1c0,0-0.1,0-0.1,0H2.6c-1.4,0-2.6-1.1-2.6-2.6V2.6
			C0,1.1,1.1,0,2.6,0h36.3c1.4,0,2.6,1.1,2.6,2.6v12.7c-0.9-1.2-2-2.2-3.2-3V7.8h-35v22.7h22.1c1.9,1.6,4.4,2.5,7,2.5
			c1.8,0,3.5-0.4,5-1.2C37.5,32.1,37.6,32.3,37.9,32.6L37.9,32.6z M24.2,5H38V2.4H24.2V5z M12.7,5h2.7V2.4h-2.7V5z M8,5h2.7V2.4H8V5
			z M3.2,5h2.7V2.4H3.2V5z M23.3,24c-0.2-0.7-0.3-1.5-0.3-2.2c0-0.1,0-0.2,0-0.4c0-0.5,0.1-1,0.2-1.6c0.2-0.9,0.5-1.8,1-2.6
			c0.3-0.6,0.7-1.1,1.1-1.6c1-1.2,2.3-2.1,3.8-2.6c0.5-0.2,1.1-0.3,1.7-0.4c0.5-0.1,1-0.1,1.5-0.1c2.2,0,4.3,0.8,5.9,2.1
			c1.6,1.3,2.8,3.2,3.2,5.3c0.1,0.6,0.2,1.2,0.2,1.9c0,0.6-0.1,1.3-0.2,1.9c-0.4,2.1-1.6,4-3.2,5.3c-0.8,0.6-1.7,1.2-2.7,1.5
			c-1,0.4-2.1,0.6-3.2,0.6c-1.1,0-2.2-0.2-3.2-0.6c-2.3-0.9-4.2-2.6-5.3-4.9C23.6,25.1,23.5,24.6,23.3,24z M25.5,21.8
			c0,0.8,0.1,1.5,0.4,2.2c0.2,0.6,0.5,1.1,0.8,1.6c1.2,1.8,3.3,3,5.6,3c2.5,0,4.7-1.4,5.9-3.4c0.6-1,0.9-2.2,0.9-3.4
			c0-1.2-0.3-2.4-0.9-3.4c-1.2-2-3.4-3.4-5.9-3.4c-1.1,0-2.1,0.3-3,0.7c-0.8,0.4-1.5,0.9-2,1.6c-0.7,0.7-1.2,1.6-1.5,2.6
			c-0.1,0.5-0.2,1-0.3,1.6C25.5,21.5,25.5,21.7,25.5,21.8z M48.4,34.3l-4.8-4.8l-2.3,2.3l-0.7,0.7l0.2,0.2l4.6,4.6
			c0.8,0.8,2.2,0.8,3,0C49.2,36.5,49.2,35.2,48.4,34.3z"/>
	</g>
</g>
</svg>
