<?xml version="1.0" encoding="utf-8"?>
<!-- Generator: Adobe Illustrator 19.0.0, SVG Export Plug-In . SVG Version: 6.00 Build 0)  -->
<svg version="1.1" id="Layer_1" xmlns="http://www.w3.org/2000/svg" xmlns:xlink="http://www.w3.org/1999/xlink" x="0px" y="0px"
	 viewBox="0 0 58.9 54.8" style="enable-background:new 0 0 58.9 54.8;" xml:space="preserve">
<style type="text/css">
	.st0{enable-background:new    ;}
	.st1{clip-path:url(#SVGID_2_);}
	.st2{fill:#EFEFEF;}
	.st3{fill:#FFFFFF;}
	.st4{fill:#C9CACA;}
	.st5{fill:#596273;}
	.st6{fill:#43BAD4;}
	.st7{fill:#B3CC00;}
	.st8{fill:#E7E7E6;}
</style>
<g>
	<g>
		<g class="st0">
			<g class="st0">
				<g>
					<defs>
						<path id="SVGID_1_" d="M54,25.2c-0.2-2.1-0.9-7.7-5.3-13.3c-3.1-3.9-7.3-6.8-12.2-8.3c-6.7-2.1-12.4-0.7-14.6,0
							c-0.9,0.3-3.7,1.2-6.5,3.1c-2.8,1.9-4.6,3.8-5.6,5.1C9.1,12.6,7.2,15,6,18.2c-0.4,1.1-0.9,2.6-1.1,3.8
							c-0.1,0.4-0.2,0.8-0.2,1.2C4.5,24.1,4.3,25,4.3,26c-0.1,2.8,0,3.1,0.3,5.7c0.2,1.2,0.6,2.7,1,3.8c0.5,1.3,1.9,5.2,5.3,8.9
							c4.8,5.1,11.2,7.9,18.1,8c9.5,0.1,18.4-5.4,22.5-14c1.5-3,1.9-5.4,1.9-5.5c0.2-1.2,0.5-2.8,0.5-4C54.1,27.7,54.1,26.2,54,25.2
							z"/>
					</defs>
					<use xlink:href="#SVGID_1_"  style="overflow:visible;fill:#43BAD4;"/>
					<clipPath id="SVGID_2_">
						<use xlink:href="#SVGID_1_"  style="overflow:visible;"/>
					</clipPath>
					<g class="st1">
						<path class="st2" d="M37.5,4.5C38.8,4.9,39,5,39.8,5.3c1.5,0.7,1.8,0.8,3.1,1.6c1.3,0.9,2.6,1.7,4.2,3.2
							c1.9,1.9,3.2,3.3,4.9,6.3c0-0.1-0.1-0.1-0.1-0.2c0.1,0.4,0.1,0.4,0.1,0.6c-0.1,0-0.1-0.1-0.2-0.1c0,0.1,0,0.1,0,0.2
							c-0.3,0-0.3,0-0.7-0.5c-0.1,0.3-0.1,0.3,0.8,1.3c0-0.1-0.1-0.1-0.1-0.2c0.1,0.1,0.2,0.2,0.2,0.3c0-0.1,0.1-0.1,0.1-0.2
							c-0.1-0.2-0.1-0.3-0.3-0.8c1.5,2.1,1.5,3.4,1.5,5.5c-0.5-0.3-1.6-2.4-1.7-2.4c-0.2-0.4-0.2-0.4-1.3-1.5c-0.1,0-0.2,0-0.2,0
							c-0.1-0.1-0.2-0.2-0.3-0.3c1.1,1.7,2.5,3.2,3.6,4.9c0.1-0.2,0.2-0.4,0.2-1.1c0.9,1.5,0.6,9.6,0.3,10.8
							c-1.2,5.7-3.4,7.5-4.5,8.3c-0.4-0.5-0.4-0.5,0.3-8c0.1-1-0.8-2.1-1.1-2.5c0.2-0.6,0.2-1.4-0.3-2c-0.2,0.1-0.4,0.2-0.6,0.3
							c-0.2-0.2-0.3-0.5-0.6-0.6c-1.2,0.4-1.9,1.9-3.4,1.5c-0.4-0.1-0.4-0.1-3.1-3.1c0.1-0.4,0.1-0.8,0.2-1.1c0.2-1.1-1-2.1-0.1-3.2
							c0.4-0.4,1.1-1.4,1.1-3.5c1.3,0.2,2.8-1.2,3-1.5c0.7,0.4,0.6,0.7,0.6,1c0.4,0.1,1.5,0.5,1.5,0.5c0.3,0,0.4,0,0.7,0.1
							c0,0,0.1-0.1,0.1-0.1c-0.3-0.7-0.3-0.7,0-0.9c0.3,0.1,0.3,0.1,1.2,0c0.1-0.1,0.2-0.2,0.2-0.3c0.1,0,0.3-0.1,0.4-0.1
							c0,0,0,0-0.9-1.9c0,0.1,0,0.1,0,0.1c-0.1,0-0.1,0-0.1,0c0,0.1,0,0.3-0.1,0.4c-0.1,0-0.1-0.1-0.2-0.1c-0.1,0-0.1,0-0.1,0
							c0,0.1,0,0.1,0.1,0.2c-0.1,0-0.1,0-0.9-0.3c-0.1-0.3-0.3-0.4-0.4-0.6c-0.1,0-0.1,0-0.2,0c0,0-0.1,0.1-0.1,0.1
							c0,0.1,0,0.3,0,0.4c0.2,0.1,0.3,0.2,0.5,0.4c0.1,0.2,0.1,0.2,0.1,0.2c0,0.2,0,0.2,0,0.2c0,0,0,0,0,0c0,0,0,0,0,0c0,0,0,0,0,0
							c0,0,0,0,0,0c0,0,0,0,0,0c0,0,0,0,0,0c0,0,0,0,0,0c0,0,0.1,0.1,0.1,0.2c-0.1,0-0.1,0.1-0.2,0.1c0,0,0,0,0,0c0,0,0,0,0,0
							c-1.2-1.2-1.8-1.8-2.8-1.8c0,0-0.1-0.1-0.1-0.2c-0.1,0-0.1,0.1-0.2,0.1c0.5,0.7,1.3,0.7,2,1.1c-0.1,0-0.1,0-0.2,0
							c0,0.1,0,0.1,0,0.2c0.4,0.3,0.2,0.7,0.2,0.7c0.1,0.1,0.1,0.2,0.2,0.4c-0.4-0.1-0.4-0.1-0.6-0.2c0.1-0.2,0.3-0.2,0.4-0.4
							c-0.2-0.7-2.2-1.4-2.3-1.4c-0.1,0.4-0.2,0.4-0.3,0.6c-0.1,0-0.3,0-0.4,0c0,0.1,0,0.1-0.1,0.2c0.1,0.1,0.1,0.3,0.2,0.4
							c-0.3,0.6,0,1.3-0.4,1.9c-0.1,0-0.1,0-0.1,0c-0.1,0-0.1,0-0.1,0c-0.3,0.1-0.3,0.1-0.5,0.3c-0.1-0.1-0.2-0.2-0.3-0.3
							c-0.1,0-0.3,0.1-0.4,0.1c-0.2-0.1-0.3-0.4-0.5-0.6c0-0.5-0.1-0.8-0.5-1.3c0.3-0.3,0.3-0.3,1.4-0.4c0-0.1,0.1-0.1,0.1-0.2
							c-0.2-0.5-0.2-0.5-1.3-1.2c0-0.1,0.1-0.1,0.1-0.2c0.1,0,0.3-0.1,0.4-0.1c0-0.1-0.1-0.1-0.1-0.2c0.1,0,0.1,0,0.4-0.4
							c0-0.1-0.1-0.1-0.1-0.2c0.2-0.4,0.2-0.5,0.1-0.8c0,0,0.1,0.1,0.2,0.1c0-0.1,0-0.1-0.1-0.2c0.1-0.1,0.2-0.2,0.3-0.2
							c0-0.5-0.5-0.6-0.7-0.9c0-0.1,0.1-0.1,0.1-0.2c0.2,0.1,0.4,0.4,0.6,0.5c0,0.1,0,0.1,0,0.2c0.1,0,0.3,0.1,0.4,0.1
							c0-0.1,0.1-0.1,0.1-0.2c0,0,0,0,0,0v0l0,0c0.1,0,0.1,0.1,0.2,0.1c0.1,0,0.1-0.1,0.2-0.1c0-0.1,0.1-0.3,0.2-0.4
							c0.1,0,0.1,0.1,0.2,0.1c0-0.1,0-0.1-0.4-0.9c0.1,0,0.1,0,0.2,0c0-0.1,0-0.1,0-0.2c-0.3-0.1-0.3-0.1-0.4-0.4
							c0.1-0.1,0.2-0.2,0.3-0.2c0-0.1,0-0.1,0.1-0.2C42.3,10,42.3,10,42,10.4c-0.8-0.1-0.7-1.3-1.6-1.3c0,0,0,0,0,0h0l0,0
							c0,0,0,0,0,0c0,0,0,0,0,0c0,0.2,0,0.2,0.3,0.5c-0.1,1,1,1.4,1.4,2c0,0.1-0.1,0.1-0.1,0.2c0,0.1,0.1,0.1,0.1,0.2
							c-0.1,0-0.1,0-0.2,0c0,0.1,0,0.1,0,0.2c-0.1,0-0.1,0-0.2,0c-0.1-0.1-0.1-0.3-0.1-0.4c-0.1-0.1-0.1-0.1-0.9-0.6
							c0,0.1-0.1,0.3-0.1,0.4c0,0-0.1,0.1-0.2,0.1c-0.5-0.1-1-0.9-1.1-0.9c0.2-0.6,0.2-0.6-0.4-1.9c-0.1,0-0.1,0-0.2,0
							c0,0,0.1-0.1,0.2-0.1c-0.1-0.1-0.2-0.2-0.2-0.3c0,0,0.1-0.1,0.1-0.1c0-0.1,0-0.3,0-0.4c0.1,0,0.1,0.1,0.2,0.1
							c0-0.1,0-0.1,0-0.2c0.3-0.1,0.3-0.1,0.5,0.1C39.9,8,40,8,40.1,8c0,0,0.8-0.4,1.3,0.2c-0.1,0.1-0.1,0.1-0.6,0.2
							c-0.1,0-0.1,0-0.1,0l0,0c0.4,0.1,0.7,0.4,1.2,0.4c0-0.1,0-0.1-0.1-0.2c-0.1,0-0.1,0-0.2,0c0.1,0,0.1,0,0.2-0.1
							c-0.1-0.2-0.4-0.4-0.4-0.7c-0.2-0.1-0.2-0.1-0.5-0.3c-0.1-0.1-0.1-0.1-0.1-0.1v0l0,0l0,0l0,0v0l0,0l0,0c0.1,0,0.1,0,0.2,0
							c0.1,0.1,0.2,0.2,0.3,0.2C41.2,7.5,41,7.3,40.9,7C40.9,7,41,7.1,41,7.1c0-0.1-0.1-0.2-0.2-0.3c0.1,0,0.1,0,0.2,0
							c-0.2-0.2-0.2-0.2-0.5-0.2c0-0.1,0.2-0.2,0.3-0.2c-0.4-0.3-1-0.4-1.5-0.7c0.3,0,1.5,0.4,2,0.7c-0.3-0.2-0.6-0.3-0.9-0.5
							c0,0,0,0,0,0c0,0,0,0-1.2-0.4c0.1,0,0.3,0.1,0.4,0.1c-0.4-0.2-0.4-0.2-0.5-0.3c-1.1-0.1-2.1-0.8-3.1-1.1
							c-0.1-0.1-0.2-0.1-0.3-0.2c0.4,0,0.4,0,1.1,0.3c-0.4-0.1-0.8-0.2-1.1-0.3C36.3,4.1,37,4.3,37.5,4.5"/>
						<path class="st2" d="M22.7,9.8L22.7,9.8L22.7,9.8C22.7,9.8,22.7,9.8,22.7,9.8L22.7,9.8C22.7,9.8,22.7,9.8,22.7,9.8L22.7,9.8
							 M24,10.1c-0.1,0.1-0.1,0.1-0.2,0.1c-0.1,0-0.1,0-0.1,0c0,0,0,0-0.1,0c0,0-0.1,0.1-0.1,0.1c0,0,0,0-0.1,0c0,0,0-0.1,0.1-0.1
							c0,0,0,0,0-0.1c0,0,0,0,0,0c0,0,0,0,0.1,0c0.1,0,0.1,0,0.1-0.1c0,0,0,0,0,0c0,0,0,0,0,0C23.9,9.9,24,9.9,24,9.9l0,0h0l0,0
							c0,0,0,0,0,0c0,0,0,0-0.1,0.1C23.9,10,23.9,10.1,24,10.1C23.9,10.1,23.9,10.1,24,10.1C23.9,10.1,23.9,10.1,24,10.1
							C24,10.1,24,10.1,24,10.1C24,10.1,24,10.1,24,10.1 M36,36.3c0-0.1,0.1-0.6-0.3-1.1c-1.1,0-2-1-3.2-0.8
							c-0.4-0.5-1.4-0.7-1.6-0.6c0-0.1,0-0.2,0-0.2c-0.2-0.1-0.3-0.1-0.6-0.3c0-0.1,0-0.2,0.1-0.2c-0.2-0.4-0.2-0.9-0.6-1.2
							c-0.6-0.5-1.5-0.4-2.1-0.7c-0.6-0.3-0.8-1-1.4-1.3c-0.1-0.1-0.4-0.2-0.5-0.3c0-0.2,0-0.2,0-0.2c0,0-0.1,0-0.1,0
							c0,0-0.1,0-0.1,0c0,0-0.1,0-0.1,0c0,0-0.1,0-0.1,0c0,0-0.1,0-0.1,0c0,0-0.1,0-0.1,0c0,0-0.1,0-0.1,0c0,0,0,0-1.3-0.1
							c-0.1-0.2-0.1-0.2-0.6-0.5c-0.2,0.1-0.4,0.2-0.6,0.3c0,0.2,0.1,0.4,0.1,0.5c-0.1,0-0.1,0-0.2,0c0-0.1-0.1-0.2-0.1-0.2
							c0.1-0.3,0.2-0.6,0.4-0.8c-0.1,0-0.1-0.1-0.2-0.1c-0.7,0.4-0.7,0.4-1.2,0.5c-0.1,0.1-0.2,0.3-0.2,0.4
							c-0.1,0.1-0.3,0.2-0.4,0.3c-1.2-0.3-1.2-0.3-1.5-0.3c-0.7-0.6-0.6-1-0.5-1.4c0.4-1.3,0.3-1.3-1.2-1.5
							c-0.2-0.8,0.7-1.2,0.8-1.9c-0.9-0.4-2.2,1.2-2.6,0.1c-0.1-0.2-0.3-2.7,1.6-3.3c0.2-0.1,0.4,0.1,0.6,0.1c0,0.1,0.1,0.1,0.1,0.2
							c0.7,0,1.3,0.2,1.9,0.1c0.3,0.5,0.1,1.2,0.3,1.7c0.1,0,0.2,0,0.2,0c0.4-0.7-0.1-1.5,0.3-2.2c0.1-0.2,1.8-1.1,1.8-1.1
							c0-0.6,0-0.6,0.1-0.9c0,0.1,0.1,0.1,0.1,0.2c0.1-0.1,0.2-0.3,0.2-0.4c0-0.1,0-0.1,0-0.1c0.1,0,0.2,0,0.2,0
							c0.1-0.1,0.2-0.3,0.2-0.4c0.3-0.2,0.7-0.1,1.1-0.2c0-0.1-0.1-0.1-0.1-0.2c0.4-0.8,1.6-0.9,1.8-0.9c-0.1,0.1-0.3,0.2-0.4,0.3
							c0,0.1,0,0.2,0,0.2c0.1,0,0.1,0,1.6-0.5c0-0.1,0-0.2,0-0.2c-0.1,0-0.3,0.1-0.4,0.2c-0.5,0-0.5,0-0.8-0.7
							c0.1-0.1,0.3-0.2,0.4-0.3c-0.4-0.4-1.1,0-1.4,0.2c1-1.1,3.6,0.4,3.7-1.5c-0.9-0.4-1-0.9-1.5-2c-0.3,0.1-0.5,0.4-0.8,0.5
							c-0.1-0.1-0.2-0.2-0.3-0.3c0-0.1,0.1-0.3,0.2-0.4c-0.5-0.2-0.9-0.6-1.4-0.6c-0.1,0.1-0.1,0.3-0.2,0.4
							c-0.1,0.1-0.1,0.1-0.1,0.1c0,0.1,0,0.2,0,0.2c-0.1,0.1-0.2,0.2-0.4,0.3c0.5,0.7-0.2,1-0.7,1.1c-0.1,0.8-0.1,0.8-0.6,1
							c-0.1-0.1-0.1-0.3-0.2-0.4c0-0.2,0-0.2,0-0.2c0,0,0-0.1,0-0.1c0,0,0-0.1,0-0.1c0,0,0-0.1,0-0.1c0,0,0-0.1,0-0.1
							c0,0,0-0.1,0-0.1c0,0,0-0.1,0-0.1c0,0,0-0.1,0-0.1c-0.5-0.2-0.8-0.9-1.5-0.9c0-0.1,0.1-0.3,0.1-0.5c-0.1,0-0.1-0.1-0.2-0.1
							c0.3-0.4,0.5-0.7,2.6-1.5l0.1,0l0,0c0,0,0.1,0.1,0.2,0.1c0,0,1.3-1,1.6-0.7c-0.1,0.1-0.2,0.2-0.4,0.3c0,0.1,0,0.1,0,0.2
							c0.1,0,0.3-0.2,0.4-0.3c0,0,0.1,0.1,0.1,0.2c0,0.1,0,0.2-0.1,0.2c-0.1,0.1-0.3,0.2-0.3,0.3c-0.6,0-0.6,0-0.6,0
							c0,0.1,0,0.1,0,0.2c0.7,0.1,0.7,0.1,1,0.6c0,0,0,0,0,0l0,0h0c0.1,0,0.1,0,0.6,0.2c0-0.1,0.1-0.1,0.1-0.2
							c0.3,0,0.4-0.1,0.5-0.3c-0.1-0.1-0.2-0.3-0.3-0.3c0-0.1,0-0.2,0-0.2c0.2,0.1,0.3,0.2,0.5,0.3c0.4-0.3,0.4-0.3,0.5-0.5
							c-0.4-0.3-0.8-0.5-0.8-0.5c0-0.1,0.1-0.1,0.1-0.2c-0.1-0.5-0.9-0.6-1-1.1c-1.3-0.4-1.7,0-1.9,0.1c0,0.1,0.1,0.1,0.1,0.2
							c-0.1,0-0.2,0-0.2,0c0.1,0.1,0.2,0.2,0.3,0.3c-0.2,0.3-0.2,0.3-0.5,0.4c0-0.1,0-0.2,0-0.2c-0.2-0.1-0.4-0.3,0-1
							c0.3,0,0.3,0,0.6-0.2C25.3,9,25.1,8.9,25,8.9C24.9,9,24.6,9,23.9,9.7c-0.4,0-0.7,0.4-1.2,0.3c0-0.1-0.1-0.3-0.2-0.4
							c-0.1,0-0.3,0.1-0.4,0.1c-0.1-0.1-0.1-0.1-0.1-0.1c-0.1,0-0.3,0-0.5-0.1c0-0.1,0.1-0.1,0.1-0.2C21.5,9,21.5,9,21.5,8.8
							c-0.1,0-0.2,0-0.2,0c0-0.1,0.1-0.1,0.1-0.2c-0.1,0-0.2,0-0.2,0.1c0-0.1,0.1-0.1,0.1-0.2c-0.2,0-0.2,0-0.8-0.2
							c0-0.1,0-0.2,0-0.2c0,0,0,0,0,0c0.1-0.3,0-0.6,0.2-0.8c-1.4,0.4-2.8,1.2-4.2,2.1l0,0c0.3,0,0.6-0.2,0.9-0.3
							c-0.1,0.1-0.3,0.2-0.4,0.2c0.1,0,0.1,0.1,0.2,0.1c0,0.1,0,0.1,0,0.1c0.1,0,0.1-0.1,0.2-0.1c-0.2,1.1-0.2,1.1-0.6,1.7
							c0.1,0,0.3-0.1,0.4-0.2c-0.1,0.1-0.3,0.2-0.4,0.3c0,0.2-0.1,0.4-0.1,0.6c-0.5,0.3-0.4,1-1,1.3c-0.1,0.4-0.1,0.5-0.1,0.7
							c0.1-0.2,0.1-0.4,0.3-0.6c0,0.5,0,0.6-0.4,1c0-0.1,0.1-0.1,0.1-0.2c0-0.1-0.1-0.1-0.1-0.2c-2.6,4.1-2.6,4.1-2.1,4.5
							c0,0-0.3,2.3-0.5,2.4c0.2,1.7,0.2,1.7,0.3,1.8c0.1,0,0.1-0.1,0.2-0.1c-0.1-1.7,0.2-3,0.2-3c0.1,0.2,0.2,0.3,0.1,0.8l0.4,4.6
							c0.5,1.2,1.9,1.5,2.7,2.4c0.2,0.1,0.2,0.1,0.2,0.1c0.5,0.4,0.5,0.4,0.8,0.4c0.1,0.7,0.8,1.2,0.9,1.9c0.6,0.3,0.6,0.3,0.8,0.6
							c0.1,0,0.2,0,0.2,0c0-0.1,0-0.1,0-0.2c0.1-0.1,0.2-0.2,0.3-0.3c0.1,0,0.2,0.1,0.2,0.1c0.4,1,0.7,2.2-0.7,2.9
							c-0.3,1.1-0.3,1.1-0.1,1.3C19.3,34,18.9,34,19,34.4c0,0,1.1,3.7,2.7,4.6c1,0.6,1.1,0.9,1.1,1.2c0.4,2.2-0.8,4.4-0.2,6.7
							c0.1-0.1,0.2-0.2,0.2-0.4c0.1,0.2,0.1,0.2,0.1,0.8c0-0.1-0.1-0.1-0.2-0.2c-0.1,0.1-0.2,0.3-0.2,0.4c0.2,0.2,0.2,0.2,0,0.6
							c0.3,0.6,0.3,0.6,0.9,1c-0.1,0-0.2,0-0.2-0.1c0.9,0.7,2.1,0.7,2.6,0.6c-0.9-0.3-0.9-0.3-1.3-0.9c0.3-0.1,0.5-0.4,0.7-0.5
							c0-0.1,0-0.2,0-0.2c-0.2,0-0.3-0.1-0.5-0.2c0-0.1,0-0.2,0-0.2c0.1,0,0.3-0.1,0.4-0.1c0.1-0.3,0.1-0.3,0.4-0.4
							c-0.1-0.1-0.2-0.2-0.4-0.2c0-0.1-0.1-0.1-0.1-0.2c0.2-0.1,0.5,0,0.7,0c0.1-0.1,0.2-0.3,0.2-0.4c1.6-0.5,1.6-0.5,1.7-0.5
							c-0.2-0.5-0.2-0.5-0.5-0.6c0.5-0.1,1,0.3,1.5,0c1.8-1.1,1.9-2.1,1.9-2.4c0-0.3,1.7-1.2,2-1.1c0.2,0.1,0.4,0.1,0.8-0.3
							c0.1-0.1,0.1-0.1,0.8-2.7C34.7,37.5,35.8,37.3,36,36.3"/>
						<path class="st2" d="M34,7.7c0,0.1-0.1,0.2-0.2,0.2c0,0.1,0,0.1,0,0.2c0,0-0.1,0-0.1,0c0,0,0,0,0,0c0.1,0.1,0,0.2,0,0.3
							c0.1,0,0.2,0,0.3,0.1c0,0,0,0,0,0c0,0,0,0-0.1,0c0,0,0.1,0.1,0.1,0c0,0,0,0,0.2,0.3c-0.1,0-0.1,0-0.2-0.1c-0.1,0-0.1,0-0.2,0
							C34.4,9,34.4,9,34.4,9.1c0,0,0,0,0.1,0c0,0.1,0,0.1-0.1,0.1c0.1,0.1,0.1,0.1,0.1,0.2c-0.1,0-0.1,0-0.2,0.1
							c0.1,0,0.2,0.2,0.1,0.3c0.3,0.2,0.3,0.2,0.4,0.4c-0.3,0-0.3,0-0.3,0c-0.1,0-0.1-0.2-0.2-0.1c-0.1,0.2,0.4,0.2,0.5,0.2
							c-0.3,0.5-0.9,0.6-1.2,0.7l0,0l0,0l0,0h0l0,0v0l0,0l0,0c-0.2,0.2-0.4,0.5-0.7,0.7c-0.2-0.1-0.4,0-0.5,0.2c0,0.3,0,0.3,0,0.3
							c0,0.1-0.2,0.2-0.2,0.3c-0.1,0.2,0.1,0.5-0.1,0.7c-0.1,0.1-0.2,0.1-0.4,0c-0.2-0.1-0.3-0.2-0.6-0.1c-0.7-0.9-0.7-0.9-0.7-0.9
							c0,0-0.1,0-0.1,0c0,0,0,0,0,0c0-0.1,0-0.1,0-0.2c0-0.1-0.2-0.1-0.2-0.2c0-0.1,0-0.2,0-0.2c-0.1-0.1-0.1-0.6,0.4-0.5
							c0.2-0.2,0-0.3,0-0.3c0,0,0,0,0,0c0,0.1-0.2,0.3-0.5,0c0-0.1,0-0.1,0.1-0.2c0,0,0-0.1,0-0.1c0.1,0,0.2,0,0.3,0c0,0,0,0,0,0
							c0,0,0,0,0,0c-0.1,0-0.1,0-0.2-0.1c-0.3,0.1-0.3,0.1-0.4-0.1c0,0,0,0,0,0c0-0.1,0-0.2,0-0.3c0,0,0,0-0.1,0
							c0-0.2,0-0.3-0.2-0.5C29.2,9,29,9.1,28.9,9c0,0-0.3,0-0.3,0c0,0,0,0,0,0c-0.3,0.1-0.4,0-0.4-0.2c0,0,0,0,0,0c0,0,0,0-0.1,0
							c0,0,0-0.1,0.1-0.1c0-0.1-0.1-0.1-0.2-0.2c0.1-0.2,0.7-0.2,0.8-0.2c0.1,0,0.2-0.1,0.2-0.1c0-0.1-0.1,0-0.2-0.1
							c0,0,0.2-0.2,0.6-0.1c0,0,0,0,0,0c0.1,0,0.1-0.1,0.1-0.2c0.6,0,0.6,0,0.6,0.1c0,0,0,0,0,0c0,0,0-0.1,0-0.1c0,0,0,0,0,0
							c0,0,0,0,0,0c0,0,0,0.1,0,0.1c0.1,0,0.2,0,0.3,0c-0.1-0.1-0.1-0.1-0.1-0.1c0,0,0.1,0,0.1,0c0.1,0.1,0.2,0.1,0.5,0.1
							c0-0.1-0.2-0.1-0.2-0.2c0,0,0,0,0,0c0,0,0,0,0,0c0,0,0,0,0,0c0,0,0,0,0,0c0,0,0,0,0,0c0,0,0,0,0,0c0,0,0,0,0,0c0,0,0,0,0,0
							c0,0-0.1,0-0.1-0.1c0.2,0,0.4,0,0.5,0c0,0,0,0,0,0c0.1,0,0.3-0.1,0.3-0.1h0l0,0h0l0,0h0h0h0l0,0c0.1,0,0.2,0,0.3,0
							c0.3,0,0.6,0,1,0.1c-0.2,0.3-0.6,0-0.8,0.2c0.5-0.1,0.5-0.1,0.6,0c0.2,0,0.2-0.1,0.2-0.1c0.1,0,0.1,0,0.1,0.1c0,0,0,0,0,0
							c0,0,0,0,0-0.1c0,0,0,0,0,0l0,0l0,0l0,0l0,0l0,0l0,0l0,0c0,0,0,0,0,0.1C33.6,7.6,34,7.6,34,7.7"/>
						<path class="st2" d="M29.4,7.8c-1.3,0.5-1.4,0.4-1.5,0.4c-0.2,0.4-0.5,0.3-0.5,0.3c-0.1,0.1-0.1,0.1-0.3,0.1c0,0,0,0,0,0
							c0,0,0,0,0.1,0c0,0.2-0.4,0.2-0.5,0.1c0,0,0,0,0-0.1c-0.2,0-0.5,0-0.5,0c-0.2-0.1-0.2-0.1-0.5,0c0,0.1,0,0.1,0,0.1
							c0.1,0,0.2,0.1,0.3,0.1c0.4,0,0.4,0,0.4,0c0,0,0,0,0,0c0,0,0,0,0.3,0.1c-0.1,0.2-0.1,0.2-0.3,0.2L25.7,9c0,0,0,0,0-0.1
							c-0.2,0-0.2,0-0.2,0c0,0-0.1,0-0.1,0c0,0,0-0.1,0.1-0.2c0,0,0.1-0.1,0-0.2c-0.1,0-0.1,0-0.2,0.1c-0.1,0.2-0.1,0.2-0.1,0.2
							c-0.1,0-0.2,0-0.3,0c0-0.1,0-0.1,0-0.1c0.1-0.1,0.2-0.1,0.3-0.1c0.1-0.1,0-0.3,0.2-0.3c0.2,0,0.2,0.2,0.3,0.2
							c0.2,0,0.3-0.1,0.4-0.1c0,0,0,0,0,0c0.1,0,0.1-0.1,0.1-0.1c0.1,0,0.1,0.1,0.1,0.1c0-0.1,0-0.1,0-0.1c0,0-0.1,0-0.1,0
							c0,0,0-0.1,0.1-0.1c0,0-0.5,0.2-0.5-0.1c0,0,0,0,0.1-0.1c-0.1,0-0.1,0-0.1,0c0,0,0-0.2,0.1-0.1c0,0,0,0,0,0c0,0,0,0,0,0
							c0.1,0,0.2-0.1,0.2-0.1c0.1,0,0.1,0,0.2,0c0,0,0.1,0.3,0.1,0.3c0.1-0.1,0.1-0.1,0.1-0.1c0,0.1,0,0.1,0,0.1
							c0.1,0,0.1-0.1,0.1-0.1c0.2,0,0.2,0.1,0.3,0.1c0.1,0,0.1,0,0.2-0.1c0,0-0.2,0-0.4-0.1c0,0,0,0,0,0c-0.2,0-0.3,0-0.2-0.2
							c0,0,0,0,0,0c0,0,0,0,0,0c0.1,0,0.4-0.1,0.4,0c0,0,0,0,0.1,0c0.1,0,0.1,0,0.4,0.1c0,0,0,0,0,0c0,0,0,0,0,0
							c0.1-0.1,0.7-0.1,0.8,0c0.1,0,0.1,0,0.2,0C29.3,7.7,29.3,7.7,29.4,7.8C29.5,7.8,29.5,7.8,29.4,7.8C29.5,7.8,29.5,7.8,29.4,7.8
							"/>
						<path class="st2" d="M23.4,9.6c-0.1,0.1-0.1,0.1-0.2,0.1c0-0.1,0-0.1,0-0.1c0,0.1,0,0.1,0,0.1c-0.1,0-0.1,0.2-0.2,0.1
							c0,0,0,0,0-0.1c-0.1,0-0.2,0-0.2-0.1c0,0-0.1,0-0.1,0c0-0.1,0-0.1-0.1-0.1c0,0,0,0,0-0.1c-0.3,0.1-0.8,0-0.9,0
							c0-0.1,0.2-0.2,0.1-0.2c0,0,0,0,0,0c0,0,0,0,0,0l0,0c0,0,0,0,0,0l0,0c0,0,0,0,0,0l0,0c0,0,0,0,0,0c-0.2-0.1,0-0.3,0-0.3
							c0.1,0,0.1,0,0.5,0.1c0,0,0-0.1-0.1-0.1c-0.1,0-0.2,0-0.2-0.1c0,0-0.3-0.1,0.1-0.2c-0.1,0,0-0.1,0-0.1c0.1-0.1,0.2,0,0.3-0.2
							c0,0-0.2,0-0.2,0c-0.1,0-0.2,0.1-0.2,0.1c-0.1,0-0.2,0-0.3,0c0,0,0,0,0,0c0,0,0,0,0,0c0-0.1,0.1-0.1,0.1-0.1c0,0,0-0.1,0-0.1
							c0,0,0,0,0,0c0,0,0.3-0.1,0.5-0.2c0,0,0.1,0,0.1,0c0.1-0.1,0.1-0.1,0.2-0.1c0,0,0.1,0,0.2,0.1c0,0,0,0,0,0c0,0,0,0.1,0.1,0.1
							c0,0,0.1,0,0.1,0.1c0,0-0.1,0.2-0.1,0.2c0,0,0,0-0.1,0.1c0.1,0,0.1,0,0.1,0c0,0,0,0-0.1,0.1c0.2,0,0.2,0,0.2,0.1c0,0,0,0,0,0
							c0,0,0.1-0.1,0.1-0.1c0,0,0,0,0.1,0.2c-0.1,0.1-0.1,0.1-0.2,0.2c0,0,0,0,0,0c0,0,0,0,0.2-0.2c0,0,0,0,0.2-0.1c0,0,0,0,0,0
							c0,0,0,0,0,0.1c0,0,0,0,0,0c0.1,0,0.1-0.1,0.2-0.1c0.1,0,0.1,0,0.1,0.1c-0.1,0.1-0.3,0.1-0.4,0.3c0,0,0,0.1-0.1,0.1
							c0,0-0.1,0-0.1,0.1C23.3,9.4,23.4,9.5,23.4,9.6C23.5,9.6,23.5,9.6,23.4,9.6"/>
						<path class="st2" d="M55.3,32.3c0,0,0,0.1,0,0.1C55.3,32.4,55.3,32.3,55.3,32.3c-0.4,2.4-0.5,3-0.9,4c0,0,0,0,0,0
							c0-0.1,0.2-1,0.2-1.2c0.2-0.6,0.2-0.6,0.3-1.3c0.1-0.5,0.3-1,0.4-1.5c0.1-0.4,0.1-0.8,0.2-1.2C55.4,31.5,55.3,32.3,55.3,32.3"
							/>
						<path class="st2" d="M40.4,13c0,0.1,0,0.2,0,0.3c0,0.1,0.1,0,0.1,0.1c0,0.1-0.1,0.2-0.1,0.2c0,0-0.1,0-0.1,0c0,0,0,0,0,0
							c-0.1,0-0.2,0.1-0.3,0.1c-0.1,0-0.1,0-0.2,0c0,0,0,0.1-0.1,0.1c-0.1,0-0.2,0.1-0.3,0.1c0-0.2,0.1-0.3,0.1-0.5
							c-0.1,0-0.1,0-0.3,0c0-0.1,0.1-0.2,0.1-0.3c0-0.1-0.2-0.1-0.2-0.2c0.3,0,0.3,0,0.2-0.2c-0.1,0-0.2-0.1-0.2-0.2
							c-0.1,0-0.2,0.1-0.2,0c0,0-0.1,0-0.1-0.1c0-0.1-0.1-0.2-0.2-0.2c0,0,0.1,0.1,0.1,0.1c0,0,0,0-0.1,0c0,0,0,0,0,0
							c-0.1-0.1-0.1-0.1-0.1-0.2c0,0-0.1,0-0.1-0.1c0-0.1,0-0.2-0.1-0.2c-0.1,0-0.1,0-0.1-0.1c0,0,0,0,0.1,0.1c0-0.1,0-0.2-0.1-0.4
							c0.2,0,0.2,0,0.3-0.1c0,0.1,0,0.2,0,0.3c0.1,0,0.2-0.1,0.4,0c0.1,0.1,0,0.3,0.1,0.4c0.1,0.1,0.2,0.1,0.2,0.1
							c0.1,0,0.1,0.1,0.2,0.2c0.1,0.1,0.2,0.1,0.3,0.2c0,0,0,0,0.1,0c0.1,0.1,0.2,0.2,0.3,0.3c0,0,0,0,0,0
							C40.2,12.9,40.3,12.8,40.4,13"/>
						<path class="st2" d="M35.8,5.8C35.9,5.9,35.9,6,35.9,6c0,0-0.2,0.1-0.3,0.1c0,0-0.1,0-0.1,0c0,0,0,0,0,0c0.1,0,0.1,0,0.2,0
							c0.1,0,0.1,0,0.1,0c0.1,0,0.2,0,0.2,0.1c0.1,0,0.2,0,0.2,0c0,0,0,0,0.1,0.1c-0.1,0-0.1,0-0.2,0c0,0-0.1-0.1-0.1-0.1
							c-0.3-0.1-0.3-0.1-0.3-0.1c0,0.1,0.1,0.1,0.2,0.2c0,0,0,0,0.1,0.1c0.1,0.1,0.1,0.1,0.1,0.1c0,0,0,0-0.1,0c-0.1,0-0.1,0-0.1,0
							c0,0-0.1,0-0.1,0c0,0,0,0,0,0c-0.1,0-0.2-0.1-0.3-0.1c-0.1,0-0.2,0-0.3-0.1c-0.1,0-0.2-0.1-0.3-0.1c0-0.1,0.1-0.1,0.1-0.1
							c0,0,0,0,0.1,0c0,0,0,0,0,0c0,0,0,0,0,0c0.1,0,0.1,0,0.2,0.1c0,0-0.1,0-0.1-0.1c0-0.1,0-0.1,0.1-0.1c0.1,0,0.1,0,0.2,0.1
							c0-0.1-0.2-0.1-0.1-0.1c0,0,0,0,0,0c0.1,0,0.1,0,0.2,0c0,0-0.1,0-0.1,0c0,0,0,0,0,0c0.1,0,0.1,0,0.1,0c0,0,0,0,0,0
							c0,0,0,0,0.1,0c0.1,0,0.1,0,0.1,0c0,0,0,0,0,0C35.8,5.8,35.8,5.8,35.8,5.8"/>
						<path class="st2" d="M37.9,5.1c0.1,0,0.1,0,0.2,0.1c0.1,0.1,0.2,0.2,0.3,0.2c0.1,0.1,0.3,0.2,0.4,0.3c0,0,0.7,0.4,0.7,0.4
							c0,0,0.3,0.1,0.5,0.1c0.1,0,0.1,0,0.1,0c0.1,0,0,0.1,0,0.2c0,0-0.4,0-0.4,0c0,0-0.5-0.3-0.5-0.3l-0.6-0.3c0,0,0,0,0,0
							c-0.1-0.1-0.3-0.2-0.4-0.4v0l0,0c0,0,0,0,0,0l0,0c0,0,0,0,0,0c-0.1-0.1-0.2-0.1-0.3-0.3c0,0,0,0,0,0
							C37.8,5.1,37.9,5.1,37.9,5.1"/>
						<path class="st2" d="M35.7,10.2C35.7,10.2,35.7,10.2,35.7,10.2c-0.1,0.2-0.1,0.2-0.1,0.2c-0.1,0.1-0.2,0.1-0.3,0.2
							c-0.1,0.1-0.1,0.1-0.2,0.1c-0.1,0-0.2,0-0.3,0c-0.1,0-0.2,0-0.4,0c0,0,0,0,0,0c0,0,0,0-0.1,0c0,0,0.1,0,0.1-0.1
							c0,0,0,0-0.1-0.1c0,0-0.1,0-0.1,0c-0.1,0-0.1,0-0.2,0c0,0,0-0.1,0.1-0.1c0.1,0,0.1,0,0.1-0.1c-0.1,0-0.2,0.1-0.3,0
							c0-0.2,0.1-0.2,0.1-0.3c0,0,0.1,0,0.2,0.1c0.1,0,0.1,0.1,0.1,0.1c0,0,0,0,0,0l0,0l0,0c0,0,0-0.1,0.1-0.1c0,0-0.1-0.1,0-0.1
							c0.1,0,0.1,0,0.1,0.1c0,0,0-0.1,0-0.1c0.1,0,0.1,0,0.2,0c0.2,0,0.2-0.1,0.2-0.1c0,0,0,0,0,0C35.1,9.9,35.6,10,35.7,10.2"/>
						<path class="st2" d="M24.3,8.3c-0.2,0.1-0.2,0.1-0.3,0.1c-0.1,0-0.1-0.1-0.1-0.1c-0.2,0-0.3,0-0.5,0c0,0-0.1,0-0.1-0.1
							c0,0,0,0,0.1-0.1c0,0,0.1,0,0.1,0c0,0,0-0.1-0.1-0.1c0,0-0.1,0-0.1,0c0,0-0.1-0.1-0.1-0.1c0,0,0.6-0.2,0.6-0.1c0,0,0,0,0,0.1
							c0.1,0,0,0.1,0,0.1c0,0,0,0,0,0.1c0,0,0.1,0.1,0.1,0.1c0,0,0,0,0-0.1c0,0,0,0,0-0.1c0,0,0,0,0,0C24.3,8,24.3,8,24.4,8
							c0,0,0,0,0,0c-0.1,0.1-0.2,0.2-0.1,0.2c0,0,0.1,0,0.1,0C24.4,8.2,24.4,8.3,24.3,8.3C24.4,8.3,24.3,8.3,24.3,8.3"/>
						<path class="st2" d="M29.7,16.9c-0.1,0.3-0.1,0.3-0.2,0.2c-0.1,0-0.1-0.1-0.1,0c0-0.1,0.1-0.2,0-0.3c-0.1,0-0.1,0.1-0.1,0.1
							c0,0-0.1,0-0.1,0c-0.2,0-0.4-0.1-0.7-0.1c-0.3,0-0.3,0-0.5,0c0.3-0.3,0.4-0.7,0.7-0.9c0.2-0.2,0.2-0.2,0.4-0.2v0c0,0,0,0,0,0
							c0,0,0,0,0,0c-0.1,0,0,0.1-0.1,0.2c-0.2,0.1-0.2,0.1-0.2,0.2c0,0,0,0,0,0c0,0,0,0.1,0,0.1c0.1,0,0.1-0.1,0.2-0.1
							c0.1,0.2,0.2,0.3,0.4,0.2c0,0,0.1,0,0.2,0.1c0,0.1-0.1,0.1,0,0.2c0,0.1,0.1,0,0.1,0.1c-0.1,0.2-0.1,0.2-0.1,0.2
							c0,0,0.1,0,0.1,0c0,0,0,0,0,0C29.6,16.7,29.5,16.8,29.7,16.9C29.6,16.9,29.7,16.8,29.7,16.9C29.7,16.8,29.7,16.9,29.7,16.9"/>
						<path class="st2" d="M36.5,4.8c0.2,0,0.2,0,0.2,0c0.1,0,0.2,0.1,0.2,0.1c0,0,0,0-0.2,0c0.1,0,0.1,0,0.1,0c0,0,0,0,0,0
							c0,0-0.1,0-0.1,0c-0.1,0-0.2,0-0.2,0c0,0-0.2,0-0.2-0.1c0,0,0,0,0,0c0,0,0,0,0,0c0,0,0,0,0,0c0,0,0,0,0,0
							C36.3,4.8,36.3,4.9,36.5,4.8C36.4,4.9,36.4,4.8,36.5,4.8c-0.1,0-0.1,0-0.1,0C36.4,4.8,36.4,4.8,36.5,4.8"/>
						<path class="st2" d="M38.6,12.6c0,0.1,0,0.1,0,0.2c0,0,0,0,0.1,0.1c0.1,0.2,0.2,0.2,0.1,0.4c-0.1,0-0.1,0.1-0.2,0.1
							c-0.1,0.2-0.2,0.2-0.5,0.1c0.1-0.1,0.1-0.2,0-0.4c-0.1,0-0.1,0-0.2,0c0,0,0,0,0,0c0,0,0,0,0,0c0,0,0,0,0,0c0,0,0,0,0,0
							c0,0,0,0,0,0c0,0,0,0,0,0c0,0,0,0,0,0c0,0,0,0,0,0c0,0,0,0,0,0c0-0.1,0.1,0,0.2,0c0.1,0,0.1-0.1,0-0.1c0,0-0.1-0.2,0.1-0.2
							c0.1,0,0.2,0,0.2,0C38.4,12.4,38.5,12.5,38.6,12.6C38.6,12.5,38.6,12.5,38.6,12.6"/>
						<path class="st2" d="M24.4,9.3c-0.1,0.1-0.1,0.1-0.1,0.1c0,0-0.1,0-0.1,0c0,0-0.1,0-0.1,0c-0.1,0-0.1,0-0.1,0c0,0-0.1,0-0.1,0
							c0,0,0,0,0,0c0-0.2,0-0.2,0-0.3c0,0,0,0,0-0.1c0,0,0.1,0,0.1-0.1c0,0,0,0,0,0c0.1,0,0.1,0,0.1,0c0,0,0,0.1,0.1,0
							c0,0,0.1,0,0.1-0.1c0-0.1,0.2-0.1,0.2-0.1c0,0,0.1,0,0.1,0c0,0,0,0,0.3,0c0,0,0,0.1,0,0.1C24.6,9,24.6,9,24.5,9
							c-0.1,0-0.1,0-0.1,0.1c0,0,0.1,0,0.1,0C24.5,9.1,24.5,9.2,24.4,9.3"/>
						<path class="st2" d="M22.1,25.6c-0.1,0-0.2,0.1-0.3,0.1c0,0-0.7-0.1-0.7-0.1c0-0.1,0.1-0.1,0.1-0.2c-0.3-0.1-0.4-0.1-0.4-0.4
							c-0.1,0-0.3-0.1-0.4-0.2c-0.1-0.1-0.3-0.1-0.5-0.2c-0.1,0,0-0.1,0-0.1c-0.3-0.1-0.5,0.1-0.8,0.1c0-0.4,0.8-0.3,0.9-0.3
							c0.5,0.1,0.5,0.3,0.6,0.4c0.1,0,0.2,0.1,0.3,0.1C21.4,25,21.8,25.3,22.1,25.6C22.2,25.6,22.2,25.6,22.1,25.6"/>
						<path class="st2" d="M25,11.7c-0.1,0-0.1,0-0.2,0c0,0-0.1,0-0.2-0.1c-0.1-0.1-0.1-0.1-0.1-0.1c0,0,0,0-0.1,0c0,0-0.1,0-0.1,0
							c-0.2,0.1-0.4,0.2-0.3,0c0,0,0-0.1,0-0.1c-0.1-0.1-0.2,0-0.2,0c0,0,0,0,0,0c0.1,0,0.1,0,0.2-0.1c0,0,0,0,0-0.1
							c0.1-0.2,0.3-0.3,0.3-0.4c0.1,0,0.1,0,0.1,0c0,0,0,0,0,0c0,0.2,0,0.2,0.2,0.4c0,0,0,0,0,0.1c0,0,0,0.1,0,0.1c0,0,0,0,0.1,0
							C25,11.6,25,11.6,25,11.7C25,11.7,25,11.7,25,11.7"/>
						<path class="st2" d="M25,8.6C25,8.6,25,8.6,25,8.6C25,8.6,25,8.6,25,8.6c-0.1,0-0.1,0.1-0.2,0.1c0,0-0.2,0-0.2,0
							c0,0,0,0,0.1-0.1c-0.1,0-0.2,0-0.2,0c0-0.1,0-0.1,0-0.1c0,0,0,0,0-0.1c0-0.1,0.2-0.2,0.2-0.1c0,0.1,0,0.1,0,0.2
							c0,0,0.1-0.1,0.1-0.1c0,0,0.1-0.1,0.1,0c0,0,0,0,0,0.1c0,0,0,0,0.1,0c0,0,0.1,0,0.1,0c0,0,0.1,0.1,0.1,0.1c0,0,0.1,0,0.1,0
							C25.2,8.4,25,8.6,25,8.6"/>
						<path class="st2" d="M23.9,26.5c0,0-0.1,0-0.1,0c-0.1,0-0.2-0.1-0.3-0.1c-0.1,0-0.2,0.1-0.3,0.1c-0.1,0-0.1,0-0.1-0.1
							c-0.1,0-0.1,0.2-0.2,0.2c-0.1-0.2-0.2-0.2-0.5-0.2c-0.3,0-0.3,0-0.4-0.2c0.2,0,0.4,0.1,0.6,0.1c0-0.3-0.1-0.4-0.2-0.4
							c0-0.1,0.1-0.1,0.1-0.1c0,0,0,0,0,0c0.1,0.1,0.2,0.1,0.3,0.1c0.2,0,0.3,0,0.4,0c0.1,0,0.3,0.1,0.4,0.2
							c0.1,0.1,0.1,0.1,0.2,0.1c0,0,0,0,0,0c0,0,0,0,0,0l0,0l0,0C23.9,26.3,23.9,26.3,23.9,26.5C23.9,26.4,23.9,26.5,23.9,26.5"/>
						<path class="st2" d="M24.1,7.7C24.1,7.7,24.1,7.7,24.1,7.7c-0.1,0-0.1,0-0.1,0c0,0-0.1,0.1-0.1,0.1c0,0,0,0,0,0c0,0,0,0-0.1,0
							c-0.1,0-0.1,0-0.1,0c0,0,0-0.1,0.1-0.1c-0.1,0-0.4,0.1-0.4,0.1c0,0,0,0,0-0.1c-0.1,0-0.1,0-0.1,0l0,0l0,0l0,0l0,0l0,0l0,0l0,0
							l0,0c0,0,0,0,0,0c0,0-0.1,0-0.1,0c0-0.1,0.2-0.1,0.2-0.1c0,0,0,0,0,0c0,0,0.1,0,0.1,0c0.1,0,0.2,0,0.3,0c0,0,0,0,0,0
							c0.1,0,0.1,0,0.1,0l0,0c0.1,0,0.1,0,0.1,0C24,7.7,24.1,7.6,24.1,7.7C24.1,7.7,24.1,7.7,24.1,7.7"/>
						<path class="st2" d="M25.4,8.1c-0.1,0-0.1,0-0.1,0c0,0,0,0,0,0c0,0,0,0,0-0.1c0,0,0,0-0.1-0.1c0,0,0,0,0,0c0,0,0,0-0.1,0
							c0,0,0,0-0.1,0c0,0,0,0,0,0c0,0,0,0,0.1-0.1c0,0,0,0,0.1,0c0,0,0,0,0,0c0,0,0,0-0.1,0c0-0.1,0.1-0.1,0.1-0.1c0,0,0,0,0,0
							c0,0,0.1,0,0.1,0c0,0,0,0,0,0c0,0,0,0,0,0.1c0,0,0,0,0,0c0,0,0,0,0.1,0c0,0,0,0.1,0,0.1C25.6,7.9,25.5,8,25.4,8.1"/>
						<path class="st2" d="M36.4,4.7c0.1,0,0.5,0.2,0.5,0.2C36.9,4.9,36.3,4.8,36.4,4.7C36.3,4.7,36.3,4.7,36.4,4.7
							C36.3,4.7,36.3,4.7,36.4,4.7C36.3,4.7,36.3,4.7,36.4,4.7C36.3,4.7,36.3,4.7,36.4,4.7C36.3,4.7,36.3,4.7,36.4,4.7"/>
						<path class="st2" d="M25.9,8.2c-0.1,0-0.1,0-0.1,0c0,0-0.2,0-0.2-0.1c0,0,0,0,0,0c0,0,0,0,0.1,0c0,0,0,0,0,0c0,0,0,0,0,0
							l0-0.1c0-0.1,0.1-0.1,0.1-0.1s0,0,0.1,0c0,0,0,0,0.1,0.1c0,0,0,0,0.1,0.1l0,0l0,0l0,0C25.9,8.1,25.8,8.1,25.9,8.2
							C25.8,8.2,25.8,8.2,25.9,8.2C25.9,8.2,25.9,8.2,25.9,8.2C25.9,8.2,25.9,8.2,25.9,8.2"/>
						<path class="st2" d="M24.7,7.7c-0.2,0.1-0.3,0.1-0.3,0.1c0,0-0.2,0-0.1-0.1c0,0,0.1-0.1,0.1-0.1c0.1,0,0.1,0,0.2,0
							c0.1,0,0.1,0,0.1,0c0,0,0.1,0,0,0c0,0,0,0-0.1,0c0,0,0,0,0,0c0,0,0,0,0,0c0,0,0,0-0.1,0c0,0,0.1,0,0.1,0c0,0,0,0,0,0
							c0,0,0.1,0,0.1,0c0,0,0.1,0,0.1,0c0,0,0,0,0,0C24.8,7.6,24.8,7.7,24.7,7.7C24.8,7.7,24.8,7.7,24.7,7.7"/>
						<path class="st2" d="M45.1,17.1c0.1,0.1,0.2,0.4,0.2,0.4c0,0,0,0,0,0.1c0,0,0,0,0,0c0,0,0,0,0,0.1c-0.1,0-0.1,0-0.2-0.2
							c-0.1-0.2-0.1-0.2-0.2-0.3c0,0,0.1,0,0.1-0.1c0,0,0-0.1,0-0.1C45,16.9,45,16.9,45.1,17.1"/>
						<path class="st2" d="M16.6,9.4C16.6,9.5,16.6,9.5,16.6,9.4c-0.1,0-0.1,0.1-0.1,0.1c-0.1,0.1-0.1,0.1-0.1,0.1
							c0,0-0.2,0.1-0.2,0c0,0,0.2-0.2,0.2-0.2c0,0,0,0,0,0C16.5,9.4,16.6,9.4,16.6,9.4C16.6,9.4,16.6,9.4,16.6,9.4"/>
					</g>
				</g>
				<g>
					<path class="st3" d="M36.5,3.6C37.8,4,38,4.1,38.8,4.5c1.5,0.7,1.8,0.8,3.1,1.6c1.3,0.9,2.6,1.7,4.2,3.2
						c1.9,1.9,3.2,3.3,4.9,6.3c0-0.1-0.1-0.1-0.1-0.2c0.1,0.4,0.1,0.4,0.1,0.6c-0.1,0-0.1-0.1-0.2-0.1c0,0.1,0,0.1,0,0.2
						c-0.3,0-0.3,0-0.7-0.5c-0.1,0.3-0.1,0.3,0.8,1.3c0-0.1-0.1-0.1-0.1-0.2c0.1,0.1,0.2,0.2,0.2,0.3c0-0.1,0.1-0.1,0.1-0.2
						c-0.1-0.2-0.1-0.3-0.3-0.8c1.5,2.1,1.5,3.4,1.5,5.5c-0.5-0.3-1.6-2.4-1.7-2.4c-0.2-0.4-0.2-0.4-1.3-1.5c-0.1,0-0.2,0-0.2,0.1
						c-0.1-0.1-0.2-0.2-0.3-0.3c1.1,1.7,2.5,3.2,3.6,4.9c0.1-0.2,0.2-0.4,0.2-1.1c0.9,1.5,0.6,9.6,0.3,10.8
						c-1.2,5.7-3.4,7.5-4.5,8.3c-0.4-0.5-0.4-0.5,0.3-8c0.1-1-0.8-2.1-1.1-2.5c0.2-0.6,0.2-1.4-0.3-2c-0.2,0.1-0.4,0.2-0.6,0.3
						c-0.2-0.2-0.3-0.5-0.6-0.6c-1.2,0.4-1.9,1.9-3.4,1.5c-0.4-0.1-0.4-0.1-3.1-3.1c0.1-0.4,0.1-0.8,0.2-1.1c0.2-1.1-1-2.1-0.1-3.2
						c0.4-0.4,1.1-1.4,1.1-3.5c1.3,0.2,2.8-1.2,3-1.5c0.7,0.4,0.6,0.7,0.6,1c0.4,0.1,1.5,0.5,1.5,0.5c0.3,0,0.4,0,0.7,0.1
						c0,0,0.1-0.1,0.1-0.1c-0.3-0.7-0.3-0.7,0-0.9c0.3,0.1,0.3,0.1,1.2,0c0.1-0.1,0.2-0.2,0.2-0.3c0.1,0,0.3-0.1,0.4-0.1
						c0,0,0,0-0.9-1.9c0,0.1,0,0.1,0,0.1c-0.1,0-0.1,0-0.1,0c0,0.1,0,0.3-0.1,0.4c-0.1,0-0.1-0.1-0.2-0.1c-0.1,0-0.1,0-0.1,0
						c0,0.1,0,0.1,0.1,0.2c-0.1,0-0.1,0-0.9-0.3c-0.1-0.3-0.3-0.4-0.4-0.6c-0.1,0-0.1,0-0.2,0c0,0-0.1,0.1-0.1,0.1
						c0,0.1,0,0.3,0,0.4c0.2,0.1,0.3,0.2,0.5,0.4c0.1,0.2,0.1,0.2,0.1,0.2c0,0.2,0,0.2,0,0.2c0,0,0,0,0,0c0,0,0,0,0,0c0,0,0,0,0,0
						c0,0,0,0,0,0c0,0,0,0,0,0c0,0,0,0,0,0c0,0,0,0,0,0c0,0,0.1,0.1,0.1,0.2c-0.1,0-0.1,0.1-0.2,0.1c0,0,0,0,0,0c0,0,0,0,0,0
						c-1.2-1.2-1.8-1.8-2.8-1.8c0,0-0.1-0.1-0.1-0.2c-0.1,0-0.1,0.1-0.2,0.1c0.5,0.7,1.3,0.7,2,1.1c-0.1,0-0.1,0-0.2,0
						c0,0.1,0,0.1,0,0.2c0.4,0.3,0.2,0.7,0.2,0.7c0.1,0.1,0.1,0.2,0.2,0.4c-0.4-0.1-0.4-0.1-0.6-0.2c0.1-0.2,0.3-0.2,0.4-0.4
						c-0.2-0.7-2.2-1.4-2.3-1.4c-0.1,0.4-0.2,0.4-0.3,0.6c-0.1,0-0.3,0-0.4,0c0,0.1,0,0.1-0.1,0.2c0.1,0.1,0.1,0.3,0.2,0.4
						c-0.3,0.6,0,1.3-0.4,1.9c-0.1,0-0.1,0-0.1,0c-0.1,0-0.1,0-0.1,0c-0.3,0.1-0.3,0.1-0.5,0.3c-0.1-0.1-0.2-0.2-0.3-0.3
						c-0.1,0-0.3,0.1-0.4,0.1c-0.2-0.1-0.3-0.4-0.5-0.6c0-0.5-0.1-0.8-0.5-1.3c0.3-0.3,0.3-0.3,1.4-0.4c0-0.1,0.1-0.1,0.1-0.2
						c-0.2-0.5-0.2-0.5-1.3-1.2c0-0.1,0.1-0.1,0.1-0.2c0.1,0,0.3-0.1,0.4-0.1c0-0.1-0.1-0.1-0.1-0.2c0.1,0,0.1,0,0.4-0.4
						c0-0.1-0.1-0.1-0.1-0.2c0.2-0.4,0.2-0.5,0.1-0.8c0.1,0,0.1,0.1,0.2,0.1c0-0.1,0-0.1-0.1-0.2c0.1-0.1,0.2-0.2,0.3-0.2
						c0-0.5-0.5-0.6-0.7-0.9c0-0.1,0.1-0.1,0.1-0.2c0.2,0.1,0.4,0.4,0.6,0.5c0,0.1,0,0.1,0,0.2c0.1,0,0.3,0.1,0.4,0.1
						c0-0.1,0.1-0.1,0.1-0.2c0,0,0,0,0,0l0,0l0,0c0.1,0,0.1,0.1,0.2,0.1c0.1,0,0.1-0.1,0.2-0.1c0-0.1,0.1-0.3,0.2-0.4
						c0.1,0,0.1,0.1,0.2,0.1c0-0.1,0-0.1-0.4-0.9c0.1,0,0.1,0,0.2,0c0-0.1,0-0.1,0-0.2c-0.3-0.1-0.3-0.1-0.4-0.4
						c0.1-0.1,0.2-0.2,0.3-0.2c0-0.1,0-0.1,0.1-0.2c-0.4-0.1-0.4-0.1-0.6,0.3c-0.8-0.1-0.7-1.3-1.6-1.3c0,0,0,0,0,0l0,0l0,0
						c0,0,0,0,0,0l0,0c0,0.2,0,0.2,0.3,0.5c-0.1,1,1,1.4,1.4,2c0,0.1-0.1,0.1-0.1,0.2c0,0.1,0.1,0.1,0.1,0.2c-0.1,0-0.1,0-0.2,0
						c0,0.1,0,0.1,0,0.2c-0.1,0-0.1,0-0.2,0c-0.1-0.1-0.1-0.3-0.1-0.4c-0.1-0.1-0.1-0.1-0.9-0.6c0,0.1-0.1,0.3-0.1,0.4
						c0,0-0.1,0.1-0.2,0.1c-0.5-0.1-1-0.9-1.1-0.9c0.2-0.6,0.2-0.6-0.4-1.9c-0.1,0-0.1,0-0.2,0C38,8,38,8,38.1,8
						c-0.1-0.1-0.2-0.2-0.2-0.3c0,0,0.1-0.1,0.1-0.1c0-0.1,0-0.3,0-0.4c0.1,0,0.1,0.1,0.2,0.1c0-0.1,0-0.1,0-0.2
						C38.6,7,38.6,7,38.8,7.1c0.1,0,0.3-0.1,0.4,0c0,0,0.8-0.4,1.3,0.2c-0.1,0.1-0.1,0.1-0.6,0.2c-0.1,0-0.1,0-0.1,0v0
						C40.1,7.7,40.5,8,40.9,8c0-0.1,0-0.1-0.1-0.2c-0.1,0-0.1,0-0.2,0c0.1,0,0.1,0,0.2-0.1c-0.1-0.2-0.4-0.4-0.4-0.7
						C40.3,7,40.3,7,39.9,6.8c-0.1-0.1-0.1-0.1-0.1-0.1v0l0,0h0l0,0v0l0,0l0,0c0.1,0,0.1,0,0.2,0c0.1,0.1,0.2,0.2,0.3,0.2
						c-0.2-0.3-0.3-0.5-0.5-0.8c0.1,0,0.1,0.1,0.2,0.1c0-0.1-0.1-0.2-0.2-0.3c0.1,0,0.1,0,0.2,0c-0.2-0.2-0.2-0.2-0.5-0.2
						c0-0.1,0.2-0.2,0.3-0.2c-0.4-0.3-1-0.4-1.5-0.7c0.3,0,1.5,0.4,2,0.7c-0.3-0.2-0.6-0.3-0.9-0.5c0,0,0,0,0,0c0,0,0,0-1.2-0.4
						c0.1,0,0.3,0.1,0.4,0.1c-0.4-0.2-0.4-0.2-0.5-0.3c-1.1-0.1-2.1-0.8-3.1-1.1c-0.1-0.1-0.2-0.1-0.3-0.2c0.4,0,0.4,0,1.1,0.3
						c-0.4-0.1-0.8-0.2-1.1-0.3C35.3,3.3,36,3.4,36.5,3.6"/>
					<path class="st3" d="M21.1,8.3L21.1,8.3L21.1,8.3C21.1,8.3,21.1,8.3,21.1,8.3L21.1,8.3C21.1,8.3,21.1,8.3,21.1,8.3L21.1,8.3
						 M22.4,8.7c-0.1,0.1-0.1,0.1-0.2,0.1c-0.1,0-0.1,0-0.1,0c0,0,0,0-0.1,0c0,0-0.1,0.1-0.1,0.1c0,0,0,0-0.1,0c0,0,0-0.1,0.1-0.1
						c0,0,0,0,0-0.1c0,0,0,0,0,0c0,0,0,0,0.1,0c0.1,0,0.1,0,0.1-0.1c0,0,0,0,0,0c0,0,0,0,0,0c0.1-0.1,0.2-0.1,0.2-0.1l0,0l0,0
						c0,0,0,0,0,0c0,0,0,0,0,0c0,0,0,0-0.1,0.1C22.4,8.6,22.3,8.6,22.4,8.7C22.3,8.7,22.3,8.7,22.4,8.7C22.4,8.7,22.4,8.7,22.4,8.7
						C22.4,8.7,22.4,8.7,22.4,8.7C22.4,8.7,22.4,8.7,22.4,8.7 M34.4,34.9c0-0.1,0.1-0.6-0.3-1.1c-1.1,0-2-1-3.2-0.8
						c-0.4-0.5-1.4-0.7-1.6-0.6c0-0.1,0-0.2,0-0.2c-0.2-0.1-0.3-0.1-0.6-0.3c0-0.1,0-0.2,0.1-0.2c-0.2-0.4-0.2-0.9-0.6-1.2
						c-0.6-0.5-1.5-0.4-2.1-0.7c-0.6-0.3-0.8-1-1.4-1.3c-0.1-0.1-0.4-0.2-0.5-0.3c0-0.2,0-0.2,0-0.2c0,0-0.1,0-0.1,0
						c0,0-0.1,0-0.1,0c0,0-0.1,0-0.1,0c0,0-0.1,0-0.1,0c0,0-0.1,0-0.1,0c0,0-0.1,0-0.1,0c0,0-0.1,0-0.1,0c0,0,0,0-1.3-0.1
						c-0.1-0.1-0.1-0.1-0.6-0.5c-0.2,0.1-0.4,0.2-0.6,0.3c0,0.2,0.1,0.4,0.1,0.5c-0.1,0-0.1,0-0.2,0c0-0.1-0.1-0.2-0.1-0.2
						c0.1-0.3,0.2-0.6,0.4-0.8c-0.1,0-0.1-0.1-0.2-0.1c-0.7,0.4-0.7,0.4-1.2,0.5c-0.1,0.1-0.2,0.3-0.2,0.4c-0.1,0.1-0.3,0.2-0.4,0.3
						C18.1,28,18.1,28,17.8,28c-0.7-0.6-0.6-1-0.5-1.4c0.4-1.3,0.3-1.3-1.2-1.5c-0.2-0.8,0.7-1.2,0.8-1.9c-0.9-0.4-2.2,1.2-2.6,0.1
						C14.2,23,14,20.5,15.8,20c0.2-0.1,0.4,0.1,0.6,0.1c0,0.1,0.1,0.1,0.1,0.2c0.7,0,1.3,0.2,1.9,0.1c0.3,0.5,0.1,1.2,0.3,1.7
						c0.1,0,0.2,0,0.2,0c0.4-0.7-0.1-1.5,0.3-2.2c0.1-0.2,1.8-1.1,1.8-1.1c0-0.6,0-0.6,0.1-0.9c0,0.1,0.1,0.1,0.1,0.2
						c0.1-0.1,0.2-0.3,0.2-0.4c0-0.1,0-0.1,0-0.1c0.1,0,0.2,0,0.2,0c0.1-0.1,0.2-0.3,0.2-0.4c0.3-0.2,0.7-0.1,1.1-0.2
						c0-0.1-0.1-0.1-0.1-0.2c0.4-0.8,1.6-0.9,1.8-0.9c-0.1,0.1-0.3,0.2-0.4,0.3c0,0.1,0,0.2,0,0.2c0.1,0,0.1,0,1.6-0.5
						c0-0.1,0-0.2,0-0.2c-0.1,0-0.3,0.1-0.4,0.2c-0.5,0-0.5,0-0.8-0.7c0.1-0.1,0.3-0.2,0.4-0.3c-0.4-0.4-1.1,0-1.4,0.2
						c1-1.1,3.6,0.4,3.7-1.5c-0.9-0.4-1-0.9-1.5-2c-0.3,0.1-0.5,0.4-0.8,0.5c-0.1-0.1-0.2-0.2-0.3-0.3c0-0.1,0.1-0.3,0.2-0.4
						c-0.5-0.2-0.9-0.6-1.4-0.6c-0.1,0.1-0.1,0.3-0.2,0.4c-0.1,0.1-0.1,0.1-0.1,0.1c0,0.1,0,0.2,0,0.2c-0.1,0.1-0.2,0.2-0.4,0.3
						c0.5,0.7-0.2,1-0.7,1.1c-0.1,0.8-0.1,0.8-0.5,1c-0.1-0.1-0.1-0.3-0.2-0.4c0-0.2,0-0.2,0-0.2c0,0,0-0.1,0-0.1c0,0,0-0.1,0-0.1
						c0,0,0-0.1,0-0.1c0,0,0-0.1,0-0.1c0,0,0-0.1,0-0.1c0,0,0-0.1,0-0.1c0,0,0-0.1,0-0.1c-0.5-0.2-0.8-0.9-1.5-0.9
						c0-0.1,0.1-0.3,0.1-0.5c-0.1,0-0.1-0.1-0.2-0.1c0.3-0.4,0.5-0.7,2.6-1.5l0.1,0l0,0c0,0,0.1,0.1,0.2,0.1c0,0,1.3-1,1.6-0.7
						c-0.1,0.1-0.2,0.2-0.4,0.3c0,0.1,0,0.1,0,0.2c0.1,0,0.3-0.2,0.4-0.3c0,0,0.1,0.1,0.1,0.2c0,0.1,0,0.2-0.1,0.2
						c-0.1,0.1-0.3,0.2-0.3,0.3c-0.6,0-0.6,0-0.6,0c0,0.1,0,0.1,0,0.2c0.7,0.1,0.7,0.1,1,0.6c0,0,0,0,0,0h0l0,0c0.1,0,0.1,0,0.6,0.2
						c0-0.1,0.1-0.1,0.1-0.2c0.3,0,0.4-0.1,0.5-0.3c-0.1-0.1-0.2-0.3-0.3-0.3c0-0.1,0-0.2,0-0.2c0.2,0.1,0.3,0.2,0.5,0.3
						c0.4-0.3,0.4-0.3,0.5-0.5c-0.4-0.3-0.8-0.5-0.8-0.5c0-0.1,0.1-0.1,0.1-0.2c-0.1-0.5-0.9-0.6-1-1.1c-1.3-0.4-1.7,0-1.9,0.1
						c0,0.1,0.1,0.1,0.1,0.2c-0.1,0-0.2,0-0.2,0c0.1,0.1,0.2,0.2,0.3,0.3C23.5,9,23.4,9,23.1,9.1c0-0.1,0-0.2,0-0.2
						c-0.2-0.1-0.4-0.3,0-1c0.3,0,0.3,0,0.6-0.2c-0.1-0.1-0.2-0.1-0.3-0.2c-0.2,0.1-0.5,0.1-1.1,0.8c-0.4,0-0.7,0.4-1.2,0.3
						c0-0.1-0.1-0.3-0.2-0.4c-0.1,0-0.3,0.1-0.4,0.1c-0.1-0.1-0.1-0.1-0.1-0.1c-0.1,0-0.3,0-0.5-0.1c0-0.1,0.1-0.1,0.1-0.2
						c-0.2-0.4-0.2-0.4-0.3-0.6c-0.1,0-0.2,0-0.2,0c0-0.1,0.1-0.1,0.1-0.2c-0.1,0-0.2,0-0.2,0.1c0-0.1,0.1-0.1,0.1-0.2
						c-0.2,0-0.2,0-0.8-0.2c0-0.1,0-0.2,0-0.2c0,0,0,0,0,0c0.1-0.3,0-0.6,0.2-0.8c-1.4,0.4-2.8,1.2-4.2,2.1l0,0
						c0.3,0,0.6-0.2,0.9-0.3c-0.1,0.1-0.3,0.2-0.4,0.2c0.1,0,0.1,0.1,0.2,0.1c0,0.1,0,0.1,0,0.1c0.1,0,0.1-0.1,0.2-0.1
						c-0.2,1.1-0.2,1.1-0.6,1.7c0.1,0,0.3-0.1,0.4-0.2c-0.1,0.1-0.3,0.2-0.4,0.3c0,0.2-0.1,0.4-0.1,0.6c-0.5,0.3-0.4,1-1,1.3
						C14,11.9,14,12,14.1,12.2c0.1-0.2,0.1-0.4,0.3-0.6c0,0.5,0,0.6-0.4,1c0-0.1,0.1-0.1,0.1-0.2c0-0.1-0.1-0.1-0.1-0.2
						c-2.6,4.1-2.6,4.1-2.1,4.5c0,0-0.3,2.3-0.5,2.4c0.2,1.7,0.2,1.7,0.3,1.8c0.1,0,0.1-0.1,0.2-0.1c-0.1-1.7,0.2-3,0.2-3
						c0.1,0.2,0.2,0.3,0.1,0.8l0.4,4.6c0.5,1.2,1.9,1.5,2.7,2.4c0.2,0.1,0.2,0.1,0.2,0.1c0.5,0.4,0.5,0.4,0.8,0.4
						c0.1,0.7,0.8,1.2,0.9,1.9c0.6,0.3,0.6,0.3,0.8,0.6c0.1,0,0.2,0,0.2,0c0-0.1,0-0.1,0-0.2c0.1-0.1,0.2-0.2,0.3-0.3
						c0.1,0,0.2,0.1,0.2,0.1c0.3,1,0.7,2.2-0.7,2.9c-0.3,1.1-0.3,1.1-0.1,1.3c-0.1,0.2-0.5,0.2-0.4,0.6c0,0,1.1,3.7,2.7,4.6
						c1,0.6,1.1,0.9,1.1,1.2c0.4,2.2-0.8,4.4-0.2,6.7c0.1-0.1,0.2-0.2,0.2-0.4c0.1,0.2,0.1,0.2,0.1,0.8c0-0.1-0.1-0.1-0.2-0.2
						c-0.1,0.1-0.2,0.3-0.2,0.4c0.2,0.2,0.2,0.2,0,0.6c0.3,0.6,0.3,0.6,0.9,1c-0.1,0-0.2,0-0.2-0.1c0.9,0.7,2.1,0.7,2.6,0.6
						c-0.9-0.3-0.9-0.3-1.3-0.9c0.3-0.1,0.5-0.4,0.7-0.5c0-0.1,0-0.2,0-0.2c-0.1,0-0.3-0.1-0.5-0.2c0-0.1,0-0.2,0-0.2
						c0.1,0,0.3-0.1,0.4-0.1c0.1-0.3,0.1-0.3,0.4-0.4c-0.1-0.1-0.2-0.2-0.4-0.2c0-0.1-0.1-0.1-0.1-0.2c0.2-0.1,0.5,0,0.7,0
						c0.1-0.1,0.2-0.3,0.2-0.4c1.6-0.5,1.6-0.5,1.7-0.5c-0.2-0.5-0.2-0.5-0.5-0.6c0.5-0.1,1,0.3,1.5,0c1.8-1.1,1.9-2.1,1.9-2.4
						c0-0.3,1.7-1.2,2-1.1c0.2,0.1,0.4,0.1,0.8-0.3c0.1-0.1,0.1-0.1,0.8-2.7C33.2,36.1,34.3,35.9,34.4,34.9"/>
					<path class="st3" d="M32.5,6.3c0,0.1-0.1,0.1-0.2,0.2c0,0.1,0,0.1,0,0.2c0,0-0.1,0-0.1,0c0,0,0,0,0,0c0.1,0.1,0,0.2,0,0.3
						c0.1,0,0.2,0,0.3,0.1c0,0,0,0,0,0c0,0,0,0-0.1,0c0,0,0.1,0.1,0.1,0c0,0,0,0,0.2,0.3c-0.1,0-0.1,0-0.2-0.1c-0.1,0-0.1,0-0.2,0
						c0.4,0.2,0.4,0.2,0.4,0.4c0,0,0,0,0.1,0c0,0.1,0,0.1-0.1,0.1C33,8,33,8,33,8c-0.1,0-0.1,0-0.2,0.1c0.1,0,0.2,0.2,0.1,0.3
						c0.3,0.2,0.3,0.2,0.4,0.4c-0.3,0-0.3,0-0.3,0c-0.1,0-0.1-0.2-0.2-0.1c-0.1,0.2,0.4,0.2,0.5,0.2c-0.3,0.5-0.9,0.6-1.2,0.7v0l0,0
						l0,0l0,0l0,0v0l0,0l0,0c-0.2,0.2-0.4,0.5-0.7,0.7c-0.2-0.1-0.4,0-0.6,0.2c0,0.3,0,0.3,0,0.3c0,0.1-0.2,0.2-0.2,0.3
						c-0.1,0.2,0.1,0.5-0.1,0.7c-0.1,0.1-0.2,0.1-0.4,0c-0.2-0.1-0.3-0.2-0.6-0.1c-0.7-0.9-0.7-0.9-0.7-0.9c0,0-0.1,0-0.1,0
						c0,0,0,0,0,0c0-0.1,0-0.1,0-0.2c0-0.1-0.2-0.1-0.2-0.2c0-0.1,0-0.2,0-0.2c-0.1-0.1-0.1-0.6,0.4-0.5c0.2-0.2,0-0.3,0-0.3
						c0,0,0,0,0,0c0,0.1-0.2,0.3-0.5,0c0-0.1,0-0.1,0.1-0.2c0,0,0-0.1,0-0.1c0.1,0,0.2,0,0.3,0c0,0,0,0,0,0c0,0,0,0,0,0
						c-0.1,0-0.1,0-0.2-0.1c-0.3,0.1-0.3,0.1-0.4-0.1c0,0,0,0,0,0c0-0.1,0-0.2,0-0.3c0,0,0,0-0.1,0c0-0.2,0-0.3-0.2-0.5
						c-0.1-0.1-0.3-0.1-0.5-0.2c0,0-0.3,0-0.3,0c0,0,0,0,0,0c-0.3,0.1-0.4,0-0.4-0.2c0,0,0,0,0,0c0,0,0,0-0.1,0c0,0,0-0.1,0.1-0.1
						c0-0.1-0.1-0.1-0.2-0.2c0.1-0.2,0.7-0.2,0.8-0.2c0.1,0,0.2-0.1,0.2-0.1c0-0.1-0.1,0-0.2-0.1c0,0,0.2-0.2,0.6-0.1c0,0,0,0,0,0
						c0.1,0,0.1-0.1,0.1-0.2c0.6,0,0.6,0,0.6,0.1c0,0,0,0,0,0c0,0,0-0.1,0-0.1c0,0,0,0,0,0c0,0,0,0,0,0c0,0,0,0.1,0,0.1
						c0.1,0,0.2,0,0.3,0C29,6.4,29,6.4,29,6.3c0,0,0.1,0,0.1,0c0.1,0.1,0.2,0.1,0.5,0.1c0-0.1-0.2-0.1-0.2-0.2c0,0,0,0,0,0s0,0,0,0
						c0,0,0,0,0,0s0,0,0,0c0,0,0,0,0,0c0,0,0,0,0,0c0,0,0,0,0,0c0,0,0,0,0,0c0,0-0.1,0-0.1-0.1c0.2,0,0.4,0,0.5,0c0,0,0,0,0,0
						c0.1,0,0.3-0.1,0.3-0.1h0l0,0l0,0h0h0h0l0,0h0c0.1,0,0.2,0,0.3,0c0.3,0,0.6,0,1,0.1c-0.2,0.3-0.6,0-0.8,0.2
						c0.5-0.1,0.5-0.1,0.6,0c0.2,0,0.2-0.1,0.2-0.1c0.1,0,0.1,0,0.1,0.1c0,0,0,0,0,0c0,0,0,0,0-0.1c0,0,0,0,0,0l0,0h0l0,0l0,0l0,0
						l0,0l0,0c0,0,0,0,0,0.1C32,6.2,32.4,6.1,32.5,6.3"/>
					<path class="st3" d="M27.9,6.4c-1.3,0.5-1.4,0.4-1.5,0.4c-0.2,0.4-0.5,0.3-0.5,0.3c-0.1,0.1-0.1,0.1-0.3,0.1c0,0,0,0,0,0
						c0,0,0,0,0.1,0c0,0.2-0.4,0.2-0.5,0.1c0,0,0,0,0-0.1c-0.2,0-0.5,0-0.5,0c-0.2-0.1-0.2-0.1-0.5,0c0,0.1,0,0.1,0,0.1
						c0.1,0,0.2,0.1,0.3,0.1c0.4,0,0.4,0,0.4,0c0,0,0,0,0,0c0,0,0,0,0.3,0.1c-0.1,0.2-0.1,0.2-0.3,0.2l-0.8-0.1c0,0,0,0,0-0.1
						c-0.2,0-0.2,0-0.2,0c0,0-0.1,0-0.1,0c0,0,0-0.1,0.1-0.2c0,0,0.1-0.1,0-0.2c-0.1,0-0.1,0-0.2,0.1c-0.1,0.2-0.1,0.2-0.1,0.2
						c-0.1,0-0.2,0-0.3,0c0-0.1,0-0.1,0-0.1c0.2-0.1,0.2-0.1,0.3-0.1c0.1-0.1,0-0.3,0.2-0.3c0.2,0,0.2,0.2,0.3,0.2
						c0.2,0,0.3-0.1,0.4-0.1c0,0,0,0,0,0c0.1,0,0.1-0.1,0.1-0.1C25,6.9,25,6.9,25,7c0-0.1,0-0.1,0-0.1c0,0-0.1,0-0.1,0
						c0,0,0-0.1,0.1-0.1c0,0-0.5,0.2-0.5-0.1c0,0,0,0,0.1-0.1c-0.1,0-0.1,0-0.1,0c0,0,0-0.2,0.1-0.1c0,0,0,0,0,0c0,0,0,0,0,0
						c0.1,0,0.2-0.1,0.2-0.1c0.1,0,0.1,0,0.2,0c0,0,0.1,0.3,0.1,0.3c0.1-0.1,0.1-0.1,0.1-0.1c0,0.1,0,0.1,0,0.2
						c0.1,0,0.1-0.1,0.1-0.1c0.2,0,0.2,0.1,0.3,0.1c0.1,0,0.1,0,0.2-0.1c0,0-0.2,0-0.4-0.1c0,0,0,0,0,0c-0.2,0-0.3,0-0.2-0.2
						c0,0,0,0,0,0c0,0,0,0,0,0c0.1,0,0.4-0.1,0.4,0c0,0,0,0,0.1,0c0.1,0,0.1,0,0.4,0.1c0,0,0,0,0,0c0,0,0,0,0,0
						c0.1-0.1,0.7-0.1,0.8,0c0.1,0,0.1,0,0.2,0C27.8,6.3,27.8,6.3,27.9,6.4C27.9,6.3,27.9,6.3,27.9,6.4C27.9,6.4,27.9,6.4,27.9,6.4"
						/>
					<path class="st3" d="M21.9,8.2c-0.1,0.1-0.1,0.1-0.2,0.1c0-0.1,0-0.1,0-0.1c0,0.1,0,0.1,0,0.1c-0.1,0-0.1,0.2-0.2,0.1
						c0,0,0,0,0-0.1c-0.1,0-0.2,0-0.2-0.1c0,0-0.1,0-0.1,0c0-0.1,0-0.1-0.1-0.1c0,0,0,0,0-0.1c-0.3,0.1-0.8,0-0.9,0
						c0-0.1,0.2-0.2,0.1-0.2c0,0,0,0,0,0c0,0,0,0,0,0c0,0,0,0,0,0l0,0c0,0,0,0,0,0c0,0,0,0,0,0c0,0,0,0,0,0l0,0
						c-0.2-0.1,0-0.3,0-0.3c0.1,0,0.1,0,0.5,0.1c0,0,0-0.1-0.1-0.1c-0.1,0-0.2,0-0.2-0.1c-0.1,0-0.3-0.1,0.1-0.2c-0.1,0,0-0.1,0-0.1
						c0.1-0.1,0.2,0,0.3-0.2c0,0-0.2,0-0.2,0c-0.1,0-0.2,0.1-0.2,0.1c-0.1,0-0.2,0-0.3,0c0,0,0,0,0,0c0,0,0,0,0,0
						c0-0.1,0.1-0.1,0.1-0.1c0,0,0-0.1,0-0.1c0,0,0,0,0,0c0,0,0.3-0.1,0.5-0.2c0,0,0.1,0,0.1,0C21,6.5,21,6.5,21.1,6.5
						c0,0,0.1,0,0.2,0.1c0,0,0,0,0,0c0,0,0,0.1,0.1,0.1c0,0,0.1,0,0.1,0.1c0,0-0.1,0.2-0.1,0.2c0,0,0,0-0.1,0.1c0.1,0,0.1,0,0.1,0
						c0,0,0,0-0.1,0.1c0.2,0,0.2,0,0.2,0.1c0,0,0,0,0,0c0,0,0.1-0.1,0.1-0.1c0,0,0,0,0.1,0.2c-0.1,0.1-0.1,0.1-0.2,0.2c0,0,0,0,0,0
						c0,0,0,0,0.2-0.2c0,0,0,0,0.2-0.1c0,0,0,0,0,0c0,0,0,0,0,0.1c0,0,0,0,0,0c0.1,0,0.1-0.1,0.2-0.1c0.1,0,0.1,0,0.1,0.1
						c-0.1,0.1-0.3,0.1-0.4,0.3c0,0,0,0.1-0.1,0.1c0,0-0.1,0-0.1,0.1C21.7,7.9,21.8,8.1,21.9,8.2C21.9,8.1,21.9,8.2,21.9,8.2"/>
					<path class="st3" d="M53.8,30.8c0,0,0,0.1,0,0.1C53.8,30.9,53.8,30.9,53.8,30.8c-0.4,2.4-0.5,3-0.9,4c0,0,0,0,0,0
						c0-0.1,0.2-1,0.2-1.2c0.2-0.6,0.2-0.6,0.3-1.3C53.4,31.9,53.6,31.4,53.8,30.8c0-0.3,0-0.7,0.1-1.1
						C53.9,30.1,53.8,30.8,53.8,30.8"/>
					<path class="st3" d="M39.9,12.6c0,0.1,0,0.2,0,0.3c0,0.1,0.1,0,0.1,0.1c0,0.1-0.1,0.2-0.1,0.2c0,0-0.1,0-0.1,0c0,0,0,0,0,0
						c-0.1,0-0.2,0.1-0.3,0.1c-0.1,0-0.1,0-0.2,0c0,0,0,0.1-0.1,0.1c-0.1,0-0.2,0.1-0.3,0.1c0-0.2,0.1-0.3,0.1-0.5
						c-0.1,0-0.1,0-0.3,0c0-0.1,0.1-0.2,0.1-0.3c0-0.1-0.2-0.1-0.2-0.2c0.3,0,0.3,0,0.2-0.2c-0.1,0-0.2-0.1-0.2-0.2
						c-0.1,0-0.2,0.1-0.2,0c0,0-0.1,0-0.1-0.1c0-0.1-0.1-0.2-0.2-0.2c0,0,0.1,0.1,0.1,0.1c0,0,0,0-0.1,0c0,0,0,0,0,0
						C38,12,38,11.9,38,11.9c0,0-0.1,0-0.1-0.1c-0.1-0.1,0-0.2-0.1-0.2c-0.1,0-0.1,0-0.1-0.1c0,0,0,0,0.1,0.1c0-0.1,0-0.2-0.1-0.4
						c0.2,0,0.2,0,0.3-0.1c0,0.1,0,0.2,0,0.3c0.1,0,0.2-0.1,0.4,0c0.1,0.1,0,0.3,0.1,0.4c0.1,0.1,0.2,0.1,0.2,0.1
						c0.1,0,0.1,0.1,0.2,0.2c0.1,0.1,0.2,0.1,0.3,0.2c0,0,0,0,0.1,0c0.1,0.1,0.2,0.2,0.3,0.3c0,0,0,0,0,0
						C39.7,12.5,39.8,12.4,39.9,12.6"/>
					<path class="st3" d="M35.5,5.7c0.1,0.1,0.1,0.1,0.1,0.2c0,0-0.2,0.1-0.3,0.1c0,0-0.1,0-0.1,0c0,0,0,0,0,0c0.1,0,0.1,0,0.2,0
						c0.1,0,0.1,0,0.1,0c0.1,0,0.2,0,0.2,0.1c0.1,0,0.2,0,0.2,0c0,0,0,0,0.1,0.1c-0.1,0-0.1,0-0.2,0c0,0-0.1-0.1-0.1-0.1
						C35.6,6,35.6,6,35.5,6c0,0.1,0.1,0.1,0.2,0.2c0,0,0,0,0.1,0.1c0.1,0.1,0.1,0.1,0.1,0.1c0,0,0,0-0.1,0c-0.1,0-0.1,0-0.1,0
						c0,0-0.1,0-0.1,0c0,0,0,0,0,0c-0.1,0-0.2-0.1-0.3-0.1c-0.1,0-0.2,0-0.3-0.1c-0.1,0-0.2-0.1-0.3-0.1C34.6,6,34.8,6,34.8,6
						c0,0,0,0,0.1,0c0,0,0,0,0,0c0,0,0,0,0,0C34.9,6,35,6,35.1,6c0,0-0.1,0-0.1-0.1c0-0.1,0-0.1,0.1-0.1c0.1,0,0.1,0,0.2,0.1
						c0-0.1-0.2-0.1-0.1-0.1c0,0,0,0,0,0c0.1,0,0.1,0,0.2,0c0,0-0.1,0-0.1,0c0,0,0,0,0,0c0.1,0,0.1,0,0.1,0c0,0,0,0,0,0
						c0,0,0,0,0.1,0c0.1,0,0.1,0,0.1,0c0,0,0,0,0,0C35.5,5.6,35.5,5.6,35.5,5.7"/>
					<path class="st3" d="M37.2,4.6c0.1,0,0.1,0,0.2,0.1c0.1,0.1,0.2,0.2,0.3,0.2c0.1,0.1,0.3,0.2,0.4,0.3c0,0,0.7,0.4,0.7,0.4
						c0,0,0.3,0.1,0.5,0.1c0.1,0,0.1,0,0.1,0c0.1,0,0,0.2,0,0.2c0,0-0.4,0-0.4,0c0,0-0.5-0.3-0.5-0.3l-0.6-0.3c0,0,0,0,0,0
						c-0.1-0.1-0.3-0.2-0.4-0.4l0,0l0,0c0,0,0,0,0,0l0,0c0,0,0,0,0,0c-0.1-0.1-0.2-0.1-0.3-0.3c0,0,0,0,0,0
						C37.1,4.5,37.2,4.5,37.2,4.6"/>
					<path class="st3" d="M35.2,9.9C35.2,9.9,35.2,9.9,35.2,9.9c-0.1,0.2-0.1,0.2-0.1,0.2c-0.1,0.1-0.2,0.1-0.3,0.2
						c-0.1,0.1-0.1,0.1-0.2,0.1c-0.1,0-0.2,0-0.3,0c-0.1,0-0.2,0-0.4,0c0,0,0,0,0,0c0,0,0,0-0.1,0c0,0,0.1,0,0.1-0.1
						c0,0,0,0-0.1-0.1c0,0-0.1,0-0.1,0c-0.1,0-0.1,0-0.2,0c0,0,0-0.1,0.1-0.1c0.1,0,0.1,0,0.1-0.1c-0.1,0-0.2,0.1-0.3,0
						c0-0.2,0.1-0.2,0.1-0.3c0,0,0.1,0,0.2,0.1c0.1,0,0.1,0.1,0.1,0.1h0l0,0c0,0,0,0,0,0c0,0,0-0.1,0.1-0.1c0,0-0.1-0.1,0-0.1
						c0.1,0,0.1,0,0.1,0.1c0,0,0-0.1,0-0.1c0.1,0,0.1,0,0.2,0c0.2,0,0.2-0.1,0.2-0.1c0,0,0,0,0,0C34.6,9.6,35.1,9.6,35.2,9.9"/>
					<path class="st3" d="M22.8,6.9C22.6,7,22.5,7,22.5,7c-0.1,0-0.1-0.1-0.1-0.1c-0.2,0-0.3,0-0.5,0c0,0-0.1,0-0.1-0.1
						c0,0,0,0,0.1-0.1c0,0,0.1,0,0.1,0c0,0,0-0.1-0.1-0.1c0,0-0.1,0-0.1,0c0,0-0.1-0.1-0.1-0.1c0,0,0.6-0.2,0.6-0.1c0,0,0,0,0,0.1
						c0.1,0,0,0.1,0,0.1c0,0,0,0,0,0.1c0,0,0.1,0.1,0.1,0.1c0,0,0,0,0-0.1c0,0,0,0,0-0.1c0,0,0,0,0,0c0.2-0.1,0.2-0.1,0.3-0.1
						c0,0,0,0,0,0c-0.1,0.1-0.2,0.2-0.1,0.2c0,0,0.1,0,0.1,0C22.9,6.8,22.8,6.9,22.8,6.9C22.8,6.9,22.8,6.9,22.8,6.9"/>
					<path class="st3" d="M28.1,15.4c-0.1,0.3-0.1,0.3-0.2,0.2c-0.1,0-0.1-0.1-0.1,0c0-0.1,0.1-0.2,0-0.3c-0.1,0-0.1,0.1-0.1,0.1
						c0,0-0.1,0-0.1,0c-0.2,0-0.4-0.1-0.7-0.1c-0.3,0-0.3,0-0.5,0c0.3-0.3,0.4-0.7,0.7-0.9c0.2-0.2,0.2-0.2,0.4-0.2c0,0,0,0,0,0
						c0,0,0,0,0,0c0,0,0,0,0,0c-0.1,0,0,0.1-0.1,0.2c-0.2,0.1-0.2,0.1-0.2,0.2c0,0,0,0,0,0c0,0,0,0.1,0,0.1c0.1,0,0.1-0.1,0.2-0.1
						c0.1,0.2,0.2,0.3,0.4,0.2c0,0,0.1,0,0.2,0.1c0,0.1-0.1,0.1,0,0.2c0,0.1,0.1,0,0.1,0.1c-0.1,0.2-0.1,0.2-0.1,0.2
						c0,0,0.1,0,0.1,0c0,0,0,0,0,0C28,15.3,28,15.4,28.1,15.4C28.1,15.4,28.1,15.4,28.1,15.4C28.1,15.4,28.1,15.4,28.1,15.4"/>
					<path class="st3" d="M34.9,3.4c0.2,0,0.2,0,0.2,0c0.1,0,0.2,0.1,0.2,0.1c0,0,0,0-0.2,0c0.1,0,0.1,0,0.1,0c0,0,0,0,0,0
						c0,0-0.1,0-0.1,0c-0.1,0-0.2,0-0.2,0c0,0-0.2,0-0.2-0.1c0,0,0,0,0,0c0,0,0,0,0,0c0,0,0,0,0,0c0,0,0,0,0,0
						C34.7,3.4,34.8,3.4,34.9,3.4C34.9,3.4,34.9,3.4,34.9,3.4c-0.1,0-0.1,0-0.1,0C34.8,3.4,34.8,3.4,34.9,3.4"/>
					<path class="st3" d="M38.3,12.4c0,0.1,0,0.1,0,0.2c0,0,0,0,0.1,0.1c0.1,0.2,0.2,0.2,0.1,0.4c-0.1,0-0.1,0.1-0.2,0.1
						c-0.1,0.2-0.2,0.2-0.5,0.1c0.1-0.1,0.1-0.2,0-0.4c-0.1,0-0.1,0-0.2,0c0,0,0,0,0,0c0,0,0,0,0,0c0,0,0,0,0,0c0,0,0,0,0,0
						c0,0,0,0,0,0c0,0,0,0,0,0c0,0,0,0,0,0c0,0,0,0,0,0c0,0,0,0,0,0c0-0.1,0.1,0,0.2,0c0.1,0,0.1-0.1,0-0.1c0,0-0.1-0.2,0.1-0.2
						c0.1,0,0.2,0,0.2,0C38.1,12.2,38.2,12.3,38.3,12.4C38.3,12.4,38.3,12.4,38.3,12.4"/>
					<path class="st3" d="M22.8,7.8c-0.1,0.1-0.1,0.1-0.1,0.1c0,0-0.1,0-0.1,0c0,0-0.1,0-0.1,0c-0.1,0-0.1,0-0.1,0c0,0-0.1,0,0,0
						c0,0,0,0,0,0c0-0.2,0-0.2,0-0.3c0,0,0,0,0-0.1c0,0,0.1,0,0.1-0.1c0,0,0,0,0,0c0.1,0,0.1,0,0.1,0c0,0,0,0.1,0.1,0
						c0,0,0.1,0,0.1-0.1c0-0.1,0.2-0.1,0.2-0.1c0,0,0.1,0,0.1,0c0,0,0,0,0.3,0c0,0,0,0.1,0,0.1C23.1,7.5,23,7.6,23,7.6
						c-0.1,0-0.1,0-0.1,0.1c0,0,0.1,0,0.1,0C23,7.7,22.9,7.8,22.8,7.8"/>
					<path class="st3" d="M20.6,24.2c-0.1,0-0.2,0.1-0.3,0.1c0,0-0.7-0.1-0.7-0.1c0-0.1,0.1-0.1,0.1-0.2c-0.3-0.1-0.4-0.1-0.4-0.4
						c-0.1,0-0.3-0.1-0.4-0.2c-0.1-0.1-0.3-0.1-0.5-0.2c-0.1,0,0-0.1,0-0.1c-0.3-0.1-0.5,0.1-0.8,0.1c0-0.4,0.8-0.3,0.9-0.3
						c0.5,0.1,0.5,0.3,0.6,0.4c0.1,0,0.2,0.1,0.3,0.1C19.9,23.6,20.3,23.9,20.6,24.2C20.6,24.2,20.6,24.2,20.6,24.2"/>
					<path class="st3" d="M23.5,10.3c-0.1,0-0.1,0-0.2,0c0,0-0.1,0-0.2-0.1c-0.1-0.1-0.1-0.1-0.1-0.1c0,0,0,0-0.1,0c0,0-0.1,0-0.1,0
						c-0.2,0.1-0.4,0.2-0.3,0c0,0,0-0.1,0-0.1c-0.1-0.1-0.2,0-0.2,0c0,0,0,0,0,0c0,0,0.1,0,0.2-0.1c0,0,0,0,0-0.1
						c0.1-0.2,0.3-0.3,0.3-0.4c0.1,0,0.1,0,0.1,0c0,0,0,0,0,0c0,0.2,0,0.2,0.2,0.4c0,0,0,0,0,0.1c0,0,0,0.1,0,0.1c0,0,0,0,0.1,0
						C23.4,10.2,23.4,10.2,23.5,10.3C23.5,10.3,23.5,10.3,23.5,10.3"/>
					<path class="st3" d="M23.5,7.1C23.5,7.1,23.5,7.1,23.5,7.1C23.4,7.1,23.4,7.1,23.5,7.1c-0.1,0-0.1,0.1-0.2,0.1c0,0-0.2,0-0.2,0
						c0,0,0,0,0.1-0.1c-0.1,0-0.2,0-0.2,0c0-0.1,0-0.1,0-0.1c0,0,0,0,0-0.1c0-0.1,0.1-0.2,0.2-0.1c0,0.1,0,0.1,0,0.2
						c0,0,0.1-0.1,0.1-0.1c0,0,0.1-0.1,0.1,0c0,0,0,0,0,0.1c0,0,0,0,0.1,0c0,0,0.1,0,0.1,0c0,0,0.1,0.1,0.1,0.1c0,0,0.1,0,0.1,0
						C23.7,7,23.5,7.1,23.5,7.1"/>
					<path class="st3" d="M22.4,25c0,0-0.1,0-0.1,0c-0.1,0-0.2-0.1-0.3-0.1c-0.1,0-0.2,0.1-0.3,0.1c-0.1,0-0.1,0-0.1-0.1
						c-0.1,0-0.1,0.1-0.2,0.2C21.2,25,21.1,25,20.9,25c-0.3,0-0.3,0-0.4-0.2c0.2,0,0.4,0.1,0.6,0.1c0-0.3-0.1-0.4-0.2-0.4
						c0-0.1,0.1-0.1,0.1-0.1c0,0,0,0,0,0c0.1,0.1,0.3,0.1,0.3,0.1c0.2,0,0.3,0,0.4,0c0.1,0,0.3,0.1,0.4,0.2c0.1,0.1,0.1,0.1,0.2,0.1
						c0,0,0,0,0,0c0,0,0,0,0,0l0,0l0,0C22.4,24.9,22.4,24.9,22.4,25C22.4,25,22.4,25,22.4,25"/>
					<path class="st3" d="M22.5,6.3C22.5,6.3,22.5,6.3,22.5,6.3c-0.1,0-0.1,0-0.1,0c0,0-0.1,0.1-0.1,0.1c0,0,0,0,0,0c0,0,0,0-0.1,0
						c-0.1,0-0.1,0-0.1,0c0,0,0-0.1,0.1-0.1c-0.1,0-0.4,0.1-0.4,0.1c0,0,0,0,0-0.1c-0.1,0-0.1,0-0.1,0l0,0l0,0l0,0l0,0l0,0l0,0l0,0
						l0,0c0,0,0,0,0,0c0,0-0.1,0-0.1,0c0-0.1,0.2-0.1,0.2-0.1c0,0,0,0,0,0c0,0,0.1,0,0.1,0c0.1,0,0.2,0,0.3,0c0,0,0,0,0,0
						c0.1,0,0.1,0,0.1,0c0,0,0,0,0,0c0.1,0,0.1,0,0.1,0C22.5,6.2,22.5,6.2,22.5,6.3C22.6,6.2,22.5,6.3,22.5,6.3"/>
					<path class="st3" d="M23.9,6.6c-0.1,0-0.1,0-0.1,0c0,0,0,0,0,0c0,0,0,0,0-0.1c0,0,0,0-0.1-0.1c0,0,0,0,0,0c0,0,0,0-0.1,0
						c0,0,0,0-0.1,0c0,0,0,0,0,0c0,0,0,0,0.1-0.1c0,0,0,0,0.1,0c0,0,0,0,0,0c0,0,0,0-0.1,0c0-0.1,0.1-0.1,0.1-0.1c0,0,0,0,0,0
						c0,0,0.1,0,0.1,0c0,0,0,0,0,0c0,0,0,0,0,0.1c0,0,0,0,0,0c0,0,0,0,0.1,0c0,0,0,0.1,0,0.1C24,6.5,23.9,6.6,23.9,6.6"/>
					<path class="st3" d="M34.8,3.3c0.1,0,0.5,0.2,0.5,0.2C35.3,3.5,34.8,3.3,34.8,3.3C34.8,3.3,34.8,3.3,34.8,3.3
						C34.8,3.3,34.8,3.3,34.8,3.3C34.8,3.3,34.7,3.3,34.8,3.3C34.7,3.3,34.7,3.3,34.8,3.3C34.7,3.3,34.8,3.3,34.8,3.3"/>
					<path class="st3" d="M24.3,6.8c-0.1,0-0.1,0-0.1,0c0,0-0.2,0-0.2-0.1c0,0,0,0,0,0c0,0,0,0,0.1,0c0,0,0,0,0,0c0,0,0,0,0,0l0-0.1
						c0-0.1,0.1-0.1,0.1-0.1c0,0,0,0,0.1,0c0,0,0,0,0.1,0.1c0,0,0,0,0.1,0.1l0,0c0,0,0,0,0,0l0,0C24.3,6.7,24.3,6.7,24.3,6.8
						C24.2,6.7,24.3,6.8,24.3,6.8C24.3,6.8,24.3,6.8,24.3,6.8C24.3,6.8,24.3,6.8,24.3,6.8"/>
					<path class="st3" d="M23.2,6.3c-0.2,0.1-0.3,0.1-0.3,0.1c0,0-0.2,0-0.1-0.1c0,0,0.1-0.1,0.1-0.1c0.1,0,0.1,0,0.2,0
						c0.1,0,0.1,0,0.1,0c0,0,0.1,0,0,0c0,0,0,0-0.1,0c0,0,0,0,0,0c0,0,0,0,0,0c0,0,0,0-0.1,0c0,0,0.1,0,0.1,0c0,0,0,0,0,0
						c0,0,0.1,0,0.1,0c0,0,0.1,0,0.1,0c0,0,0,0,0,0C23.3,6.2,23.3,6.3,23.2,6.3C23.2,6.3,23.2,6.3,23.2,6.3"/>
					<path class="st3" d="M43.5,15.6c0.1,0.1,0.2,0.4,0.2,0.4c0,0,0,0,0,0.1c0,0,0,0,0,0c0,0,0,0,0,0.1c-0.1,0-0.1,0-0.2-0.2
						c-0.1-0.2-0.1-0.2-0.2-0.3c0,0,0.1,0,0.1-0.1c0,0,0-0.1,0-0.1C43.4,15.5,43.4,15.5,43.5,15.6"/>
					<path class="st3" d="M15.1,8C15,8,15,8,15.1,8c-0.1,0-0.1,0.1-0.1,0.1c-0.1,0.1-0.1,0.1-0.1,0.1c0,0-0.2,0.1-0.2,0
						c0,0,0.2-0.2,0.2-0.2c0,0,0,0,0,0C14.9,8,15.1,8,15.1,8C15.1,8,15.1,8,15.1,8"/>
				</g>
			</g>
		</g>
	</g>
	<path class="st2" d="M54,25.2c-0.2-2.1-0.9-7.7-5.3-13.3c-3.1-3.9-7.3-6.8-12.2-8.3c-2.6-0.8-5.1-1.1-7.2-1.1v49.8
		c9.5,0,18.2-5.5,22.4-14c1.5-3,1.9-5.4,1.9-5.5c0.2-1.2,0.5-2.8,0.5-4C54.1,27.7,54.1,26.2,54,25.2z"/>
	<g>
		<path class="st4" d="M29.2,0.3c2.7,0,5.4,0.4,7.9,1.2c5.3,1.6,9.9,4.7,13.3,9c4.9,6.1,5.6,12.2,5.8,14.5c0.1,1.1,0.1,2.7,0.1,4
			c-0.1,1.4-0.4,3.3-0.6,4.3c0,0.1-0.5,2.7-2.1,6c-4.5,9.3-14,15.2-24.3,15.2l-0.2,0c-7.5-0.1-14.6-3.1-19.7-8.7
			c-3.7-4-5.3-8.3-5.8-9.7c-0.5-1.3-0.9-3-1.1-4.2C2,29.3,2,28.9,2.1,25.8c0.1-1,0.2-2,0.4-3c0.1-0.5,0.2-1,0.2-1.3
			c0.3-1.2,0.8-2.8,1.3-4.1c1.4-3.6,3.4-6.1,4.1-7.1c1.1-1.4,3-3.5,6.1-5.6c3.1-2.1,6.1-3,7.1-3.3C22.6,1,25.5,0.3,29.2,0.3 M29.2,0
			c-3.7,0-6.6,0.7-8.1,1.2c-1,0.3-4,1.3-7.1,3.4c-3.1,2.1-5.1,4.2-6.2,5.6c-0.8,1-2.8,3.6-4.2,7.1c-0.5,1.2-1,2.9-1.3,4.1
			c-0.1,0.4-0.2,0.9-0.2,1.4c-0.2,1-0.3,2-0.4,3c-0.1,3.1,0,3.5,0.4,6.2c0.2,1.3,0.6,3,1.1,4.2C3.7,37.7,5.3,42,9.1,46
			c5.2,5.6,12.3,8.7,19.9,8.8c0.1,0,0.2,0,0.2,0c10.4,0,20-6,24.5-15.4c1.6-3.3,2.1-6,2.1-6.1c0.2-1.3,0.5-3.1,0.6-4.4
			c0.1-1.2,0.1-2.8-0.1-4c-0.3-2.3-0.9-8.5-5.9-14.6C47.1,6,42.5,2.8,37.1,1.2C34.3,0.3,31.6,0,29.2,0L29.2,0z"/>
	</g>
	<g>
		<g>
			<path class="st3" d="M48.5,9.1c-0.3,0-0.5-0.1-0.7-0.3c-0.2-0.2-0.3-0.5-0.3-0.7c0-0.3,0.1-0.5,0.3-0.7C47.9,7.1,48.2,7,48.5,7
				c0.3,0,0.5,0.1,0.7,0.3s0.3,0.5,0.3,0.7c0,0.3-0.1,0.5-0.3,0.7C49,9,48.8,9.1,48.5,9.1z"/>
			<g>
				<path class="st4" d="M48.5,7.1c0.2,0,0.5,0.1,0.6,0.3c0.2,0.2,0.3,0.4,0.3,0.6c0,0.2-0.1,0.5-0.3,0.6C49,8.9,48.7,9,48.5,9
					c-0.2,0-0.5-0.1-0.6-0.3c-0.2-0.2-0.3-0.4-0.3-0.6c0-0.2,0.1-0.5,0.3-0.6C48,7.2,48.2,7.1,48.5,7.1 M48.5,6.9
					c-0.3,0-0.6,0.1-0.8,0.3c-0.5,0.5-0.5,1.2,0,1.7c0.2,0.2,0.5,0.3,0.8,0.3c0.3,0,0.6-0.1,0.8-0.3c0.5-0.5,0.5-1.2,0-1.7
					C49.1,7,48.8,6.9,48.5,6.9L48.5,6.9z"/>
			</g>
		</g>
	</g>
	<g>
		<g>
			<path class="st3" d="M9.9,47.7c-0.3,0-0.5-0.1-0.7-0.3c-0.4-0.4-0.4-1.1,0-1.5c0.2-0.2,0.5-0.3,0.7-0.3c0.3,0,0.5,0.1,0.7,0.3
				c0.4,0.4,0.4,1.1,0,1.5C10.4,47.6,10.2,47.7,9.9,47.7z"/>
			<g>
				<path class="st4" d="M9.9,45.8c0.2,0,0.5,0.1,0.6,0.3c0.4,0.4,0.4,0.9,0,1.3c-0.2,0.2-0.4,0.3-0.6,0.3c-0.2,0-0.5-0.1-0.6-0.3
					c-0.4-0.4-0.4-0.9,0-1.3C9.4,45.8,9.6,45.8,9.9,45.8 M9.9,45.5c-0.3,0-0.6,0.1-0.8,0.3c-0.5,0.5-0.5,1.2,0,1.7
					c0.2,0.2,0.5,0.3,0.8,0.3c0.3,0,0.6-0.1,0.8-0.3c0.5-0.5,0.5-1.2,0-1.7C10.5,45.6,10.2,45.5,9.9,45.5L9.9,45.5z"/>
			</g>
		</g>
	</g>
	<g>
		<g>
			<path class="st3" d="M48.5,47.7c-0.3,0-0.5-0.1-0.7-0.3c-0.4-0.4-0.4-1.1,0-1.5c0.2-0.2,0.5-0.3,0.7-0.3c0.3,0,0.5,0.1,0.7,0.3
				c0.4,0.4,0.4,1.1,0,1.5C49,47.6,48.8,47.7,48.5,47.7z"/>
			<g>
				<path class="st4" d="M48.5,45.8c0.2,0,0.5,0.1,0.6,0.3c0.4,0.4,0.4,0.9,0,1.3c-0.2,0.2-0.4,0.3-0.6,0.3c-0.2,0-0.5-0.1-0.6-0.3
					c-0.4-0.4-0.4-0.9,0-1.3C48,45.8,48.2,45.8,48.5,45.8 M48.5,45.5c-0.3,0-0.6,0.1-0.8,0.3c-0.5,0.5-0.5,1.2,0,1.7
					c0.2,0.2,0.5,0.3,0.8,0.3c0.3,0,0.6-0.1,0.8-0.3c0.5-0.5,0.5-1.2,0-1.7C49.1,45.6,48.8,45.5,48.5,45.5L48.5,45.5z"/>
			</g>
		</g>
	</g>
	<g>
		<g>
			<path class="st3" d="M9.9,9.1C9.6,9.1,9.3,9,9.1,8.8c-0.4-0.4-0.4-1.1,0-1.5C9.3,7.1,9.6,7,9.9,7c0.3,0,0.5,0.1,0.7,0.3
				c0.2,0.2,0.3,0.5,0.3,0.7c0,0.3-0.1,0.5-0.3,0.7C10.4,9,10.2,9.1,9.9,9.1z"/>
			<g>
				<path class="st4" d="M9.9,7.1c0.2,0,0.5,0.1,0.6,0.3c0.2,0.2,0.3,0.4,0.3,0.6c0,0.2-0.1,0.5-0.3,0.6C10.3,8.9,10.1,9,9.9,9
					C9.6,9,9.4,8.9,9.2,8.7c-0.4-0.4-0.4-0.9,0-1.3C9.4,7.2,9.6,7.1,9.9,7.1 M9.9,6.9C9.6,6.9,9.3,7,9.1,7.2c-0.5,0.5-0.5,1.2,0,1.7
					c0.2,0.2,0.5,0.3,0.8,0.3c0.3,0,0.6-0.1,0.8-0.3c0.5-0.5,0.5-1.2,0-1.7C10.5,7,10.2,6.9,9.9,6.9L9.9,6.9z"/>
			</g>
		</g>
	</g>
</g>
<g>
	<g class="st0">
		<g class="st0">
			<path class="st5" d="M3,48c0.3,0,0.5,0,0.8,0.1c0.5,0.2,1,0.5,1.4,0.9c0.5,0.6,0.6,1.3,0.6,1.5c0,0.1,0,0.3,0,0.4
				c0,0.1,0,0.3-0.1,0.5c0,0,0,0.3-0.2,0.6c-0.5,1-1.4,1.6-2.5,1.6l0,0c-0.8,0-1.5-0.3-2-0.9c-0.4-0.4-0.5-0.9-0.6-1
				c0-0.1-0.1-0.3-0.1-0.4c0-0.3,0-0.3,0-0.6c0-0.1,0-0.2,0-0.3c0,0,0-0.1,0-0.1c0-0.1,0.1-0.3,0.1-0.4c0.1-0.4,0.3-0.6,0.4-0.7
				c0.1-0.1,0.3-0.4,0.6-0.6c0.3-0.2,0.6-0.3,0.7-0.3C2.4,48.1,2.7,48,3,48 M3,47.8c-0.4,0-0.7,0.1-0.9,0.1c-0.1,0-0.4,0.1-0.8,0.4
				c-0.3,0.2-0.6,0.5-0.7,0.6c-0.1,0.1-0.3,0.4-0.5,0.8c-0.1,0.1-0.1,0.3-0.1,0.5c0,0,0,0.1,0,0.2c0,0.1,0,0.2,0,0.3
				C0,51,0,51,0,51.3c0,0.1,0.1,0.3,0.1,0.5c0.1,0.2,0.2,0.6,0.7,1.1c0.6,0.6,1.4,1,2.2,1c0,0,0,0,0,0c1.2,0,2.2-0.7,2.7-1.7
				C6,51.8,6,51.5,6,51.5c0-0.1,0.1-0.3,0.1-0.5c0-0.1,0-0.3,0-0.4c0-0.3-0.1-0.9-0.7-1.6c-0.4-0.5-0.9-0.8-1.5-1
				C3.6,47.8,3.3,47.8,3,47.8L3,47.8z"/>
			<g>
				<path class="st5" d="M3.9,47.9C4.1,48,4.1,48,4.2,48c0.2,0.1,0.2,0.1,0.4,0.2c0.2,0.1,0.3,0.2,0.5,0.4c0.2,0.2,0.4,0.4,0.6,0.8
					c0,0,0,0,0,0c0,0.1,0,0.1,0,0.1c0,0,0,0,0,0c0,0,0,0,0,0c0,0,0,0-0.1-0.1c0,0,0,0,0.1,0.2c0,0,0,0,0,0c0,0,0,0,0,0c0,0,0,0,0,0
					c0,0,0,0,0-0.1c0.2,0.3,0.2,0.4,0.2,0.7c-0.1,0-0.2-0.3-0.2-0.3c0,0,0,0-0.2-0.2c0,0,0,0,0,0c0,0,0,0,0,0
					c0.1,0.2,0.3,0.4,0.4,0.6c0,0,0-0.1,0-0.1c0.1,0.2,0.1,1.2,0,1.3c-0.2,0.7-0.4,0.9-0.5,1c-0.1-0.1-0.1-0.1,0-1
					c0-0.1-0.1-0.3-0.1-0.3c0-0.1,0-0.2,0-0.2c0,0,0,0-0.1,0c0,0,0-0.1-0.1-0.1c-0.1,0-0.2,0.2-0.4,0.2c-0.1,0-0.1,0-0.4-0.4
					c0,0,0-0.1,0-0.1c0-0.1-0.1-0.3,0-0.4c0-0.1,0.1-0.2,0.1-0.4c0.2,0,0.3-0.1,0.4-0.2C5,49.5,5,49.6,4.9,49.6
					c0.1,0,0.2,0.1,0.2,0.1c0,0,0,0,0.1,0c0,0,0,0,0,0c0-0.1,0-0.1,0-0.1c0,0,0,0,0.1,0c0,0,0,0,0,0c0,0,0,0,0,0c0,0,0,0-0.1-0.2
					c0,0,0,0,0,0c0,0,0,0,0,0c0,0,0,0,0,0c0,0,0,0,0,0c0,0,0,0,0,0c0,0,0,0,0,0c0,0,0,0-0.1,0c0,0,0,0-0.1-0.1c0,0,0,0,0,0
					c0,0,0,0,0,0c0,0,0,0,0,0c0,0,0,0,0.1,0c0,0,0,0,0,0c0,0,0,0,0,0s0,0,0,0l0,0l0,0l0,0l0,0c0,0,0,0,0,0l0,0c0,0,0,0,0,0
					c0,0,0,0,0,0v0h0c-0.1-0.1-0.2-0.2-0.3-0.2c0,0,0,0,0,0c0,0,0,0,0,0c0.1,0.1,0.2,0.1,0.2,0.1c0,0,0,0,0,0c0,0,0,0,0,0
					c0.1,0,0,0.1,0,0.1c0,0,0,0,0,0c0,0-0.1,0-0.1,0c0,0,0,0,0.1,0c0-0.1-0.3-0.2-0.3-0.2c0,0,0,0,0,0.1c0,0,0,0-0.1,0c0,0,0,0,0,0
					c0,0,0,0,0,0c0,0.1,0,0.2,0,0.2c0,0,0,0,0,0c0,0,0,0,0,0c0,0,0,0-0.1,0c0,0,0,0,0,0c0,0,0,0,0,0c0,0,0,0-0.1-0.1
					c0-0.1,0-0.1-0.1-0.2c0,0,0,0,0.2,0c0,0,0,0,0,0c0-0.1,0-0.1-0.2-0.1c0,0,0,0,0,0c0,0,0,0,0,0c0,0,0,0,0,0c0,0,0,0,0.1,0
					c0,0,0,0,0,0c0,0,0-0.1,0-0.1c0,0,0,0,0,0c0,0,0,0,0,0c0,0,0,0,0,0c0-0.1-0.1-0.1-0.1-0.1c0,0,0,0,0,0c0,0,0,0,0.1,0.1
					c0,0,0,0,0,0c0,0,0,0,0,0c0,0,0,0,0,0c0,0,0,0,0,0l0,0l0,0c0,0,0,0,0,0c0,0,0,0,0,0c0,0,0,0,0,0c0,0,0,0,0,0c0,0,0,0-0.1-0.1
					c0,0,0,0,0,0c0,0,0,0,0,0c0,0,0,0,0,0c0,0,0,0,0,0c0,0,0,0,0,0c0,0,0,0-0.1,0c-0.1,0-0.1-0.2-0.2-0.2c0,0,0,0,0,0l0,0l0,0l0,0h0
					c0,0,0,0,0,0.1c0,0.1,0.1,0.2,0.2,0.2c0,0,0,0,0,0c0,0,0,0,0,0c0,0,0,0,0,0c0,0,0,0,0,0c0,0,0,0,0,0c0,0,0,0,0,0
					c0,0,0,0-0.1-0.1c0,0,0,0,0,0c0,0,0,0,0,0c-0.1,0-0.1-0.1-0.1-0.1c0-0.1,0-0.1,0-0.2c0,0,0,0,0,0c0,0,0,0,0,0c0,0,0,0,0,0
					c0,0,0,0,0,0c0,0,0,0,0,0c0,0,0,0,0,0c0,0,0,0,0,0c0,0,0,0,0.1,0c0,0,0,0,0,0c0,0,0.1,0,0.2,0c0,0,0,0-0.1,0c0,0,0,0,0,0l0,0
					c0,0,0.1,0.1,0.1,0.1c0,0,0,0,0,0c0,0,0,0,0,0c0,0,0,0,0,0c0,0,0,0,0-0.1c0,0,0,0-0.1,0c0,0,0,0,0,0l0,0l0,0l0,0l0,0l0,0l0,0
					l0,0c0,0,0,0,0,0c0,0,0,0,0,0c0,0,0-0.1-0.1-0.1c0,0,0,0,0,0c0,0,0,0,0,0c0,0,0,0,0,0c0,0,0,0-0.1,0c0,0,0,0,0,0
					c-0.1,0-0.1-0.1-0.2-0.1c0,0,0.2,0.1,0.2,0.1c0,0-0.1,0-0.1-0.1c0,0,0,0,0,0c0,0,0,0-0.1,0c0,0,0,0,0,0c0,0,0,0-0.1,0
					c-0.1,0-0.3-0.1-0.4-0.1c0,0,0,0,0,0C3.8,47.9,3.8,47.9,3.9,47.9c-0.1,0-0.2,0-0.2-0.1C3.8,47.9,3.9,47.9,3.9,47.9"/>
				<path class="st5" d="M2.1,48.5L2.1,48.5L2.1,48.5C2.1,48.5,2.1,48.5,2.1,48.5L2.1,48.5C2.1,48.5,2.1,48.5,2.1,48.5L2.1,48.5
					 M2.2,48.5C2.2,48.5,2.2,48.5,2.2,48.5C2.2,48.5,2.2,48.5,2.2,48.5C2.2,48.5,2.2,48.5,2.2,48.5C2.2,48.5,2.2,48.5,2.2,48.5
					C2.2,48.6,2.2,48.6,2.2,48.5C2.2,48.5,2.2,48.5,2.2,48.5C2.2,48.5,2.2,48.5,2.2,48.5C2.2,48.5,2.2,48.5,2.2,48.5
					C2.2,48.5,2.2,48.5,2.2,48.5C2.2,48.5,2.2,48.5,2.2,48.5C2.2,48.5,2.2,48.5,2.2,48.5C2.2,48.5,2.2,48.5,2.2,48.5
					C2.2,48.5,2.2,48.5,2.2,48.5L2.2,48.5L2.2,48.5L2.2,48.5C2.2,48.5,2.2,48.5,2.2,48.5C2.2,48.5,2.2,48.5,2.2,48.5
					C2.2,48.5,2.2,48.5,2.2,48.5C2.2,48.5,2.2,48.5,2.2,48.5C2.2,48.5,2.2,48.5,2.2,48.5C2.2,48.5,2.2,48.5,2.2,48.5
					C2.2,48.5,2.2,48.5,2.2,48.5 M3.7,51.7c0,0,0-0.1,0-0.1c-0.1,0-0.2-0.1-0.4-0.1c0-0.1-0.2-0.1-0.2-0.1c0,0,0,0,0,0
					c0,0,0,0-0.1,0c0,0,0,0,0,0c0,0,0-0.1-0.1-0.1c-0.1-0.1-0.2,0-0.3-0.1c-0.1,0-0.1-0.1-0.2-0.2c0,0,0,0-0.1,0c0,0,0,0,0,0
					c0,0,0,0,0,0c0,0,0,0,0,0c0,0,0,0,0,0c0,0,0,0,0,0c0,0,0,0,0,0c0,0,0,0,0,0c0,0,0,0,0,0c0,0,0,0-0.2,0c0,0,0,0-0.1-0.1
					c0,0-0.1,0-0.1,0c0,0,0,0,0,0.1c0,0,0,0,0,0c0,0,0,0,0,0c0,0,0-0.1,0-0.1c0,0,0,0,0,0C2,50.8,2,50.8,1.9,50.8c0,0,0,0,0,0.1
					c0,0,0,0,0,0c-0.1,0-0.1,0-0.2,0c-0.1-0.1-0.1-0.1-0.1-0.2c0-0.2,0-0.2-0.1-0.2c0-0.1,0.1-0.1,0.1-0.2c-0.1-0.1-0.3,0.2-0.3,0
					c0,0,0-0.3,0.2-0.4c0,0,0.1,0,0.1,0c0,0,0,0,0,0c0.1,0,0.2,0,0.2,0c0,0.1,0,0.1,0,0.2c0,0,0,0,0,0c0-0.1,0-0.2,0-0.3
					c0,0,0.2-0.1,0.2-0.1c0-0.1,0-0.1,0-0.1c0,0,0,0,0,0c0,0,0,0,0,0c0,0,0,0,0,0c0,0,0,0,0,0c0,0,0,0,0-0.1c0,0,0.1,0,0.1,0
					c0,0,0,0,0,0c0-0.1,0.2-0.1,0.2-0.1c0,0,0,0,0,0c0,0,0,0,0,0c0,0,0,0,0.2-0.1c0,0,0,0,0,0c0,0,0,0,0,0c-0.1,0-0.1,0-0.1-0.1
					c0,0,0,0,0,0c0,0-0.1,0-0.2,0c0.1-0.1,0.4,0,0.4-0.2c-0.1,0-0.1-0.1-0.2-0.3c0,0-0.1,0-0.1,0.1c0,0,0,0,0,0c0,0,0,0,0,0
					c-0.1,0-0.1-0.1-0.2-0.1c0,0,0,0,0,0c0,0,0,0,0,0c0,0,0,0,0,0c0,0,0,0,0,0C2.4,49,2.3,49,2.2,49c0,0.1,0,0.1-0.1,0.1
					c0,0,0,0,0-0.1c0,0,0,0,0,0c0,0,0,0,0,0c0,0,0,0,0,0c0,0,0,0,0,0c0,0,0,0,0,0c0,0,0,0,0,0c0,0,0,0,0,0c0,0,0,0,0,0
					c-0.1,0-0.1-0.1-0.2-0.1c0,0,0,0,0-0.1c0,0,0,0,0,0c0,0,0.1-0.1,0.3-0.2l0,0l0,0c0,0,0,0,0,0c0,0,0.2-0.1,0.2-0.1c0,0,0,0,0,0
					c0,0,0,0,0,0c0,0,0,0,0,0c0,0,0,0,0,0c0,0,0,0,0,0c0,0,0,0,0,0c-0.1,0-0.1,0-0.1,0c0,0,0,0,0,0c0.1,0,0.1,0,0.1,0.1c0,0,0,0,0,0
					l0,0l0,0c0,0,0,0,0.1,0c0,0,0,0,0,0c0,0,0.1,0,0.1,0c0,0,0,0,0,0c0,0,0,0,0,0c0,0,0,0,0.1,0c0,0,0,0,0.1-0.1
					c-0.1,0-0.1-0.1-0.1-0.1c0,0,0,0,0,0c0-0.1-0.1-0.1-0.1-0.1c-0.2-0.1-0.2,0-0.2,0c0,0,0,0,0,0c0,0,0,0,0,0c0,0,0,0,0,0
					c0,0,0,0-0.1,0c0,0,0,0,0,0c0,0,0,0,0-0.1c0,0,0,0,0.1,0c0,0,0,0,0,0c0,0-0.1,0-0.1,0.1c-0.1,0-0.1,0.1-0.1,0c0,0,0,0,0,0
					c0,0,0,0,0,0c0,0,0,0,0,0c0,0,0,0-0.1,0c0,0,0,0,0,0c0-0.1,0-0.1,0-0.1c0,0,0,0,0,0c0,0,0,0,0,0c0,0,0,0,0,0c0,0,0,0,0,0
					c0,0,0,0-0.1,0c0,0,0,0,0,0c0,0,0,0,0,0c0,0,0-0.1,0-0.1c-0.2,0.1-0.3,0.1-0.5,0.3l0,0c0,0,0.1,0,0.1,0c0,0,0,0,0,0c0,0,0,0,0,0
					c0,0,0,0,0,0c0,0,0,0,0,0c0,0.1,0,0.1-0.1,0.2c0,0,0,0,0,0c0,0,0,0,0,0c0,0,0,0,0,0.1c-0.1,0-0.1,0.1-0.1,0.2c0,0.1,0,0.1,0,0.1
					c0,0,0,0,0-0.1c0,0.1,0,0.1,0,0.1c0,0,0,0,0,0c0,0,0,0,0,0c-0.3,0.5-0.3,0.5-0.3,0.5c0,0,0,0.3-0.1,0.3c0,0.2,0,0.2,0,0.2
					c0,0,0,0,0,0c0-0.2,0-0.4,0-0.4c0,0,0,0,0,0.1L1,50.3c0.1,0.1,0.2,0.2,0.3,0.3c0,0,0,0,0,0c0.1,0,0.1,0,0.1,0.1
					c0,0.1,0.1,0.1,0.1,0.2c0.1,0,0.1,0,0.1,0.1c0,0,0,0,0,0c0,0,0,0,0,0c0,0,0,0,0,0c0,0,0,0,0,0c0,0.1,0.1,0.3-0.1,0.4
					c0,0.1,0,0.1,0,0.2c0,0-0.1,0-0.1,0.1c0,0,0.1,0.4,0.3,0.6c0.1,0.1,0.1,0.1,0.1,0.2c0,0.3-0.1,0.5,0,0.8c0,0,0,0,0,0
					c0,0,0,0,0,0.1c0,0,0,0,0,0c0,0,0,0,0,0c0,0,0,0,0,0.1c0,0.1,0,0.1,0.1,0.1c0,0,0,0,0,0c0.1,0.1,0.3,0.1,0.3,0.1
					c-0.1,0-0.1,0-0.2-0.1c0,0,0.1,0,0.1-0.1c0,0,0,0,0,0c0,0,0,0-0.1,0c0,0,0,0,0,0c0,0,0,0,0.1,0c0,0,0,0,0.1,0c0,0,0,0,0,0
					c0,0,0,0,0,0c0,0,0.1,0,0.1,0c0,0,0,0,0-0.1c0.2-0.1,0.2-0.1,0.2-0.1c0-0.1,0-0.1-0.1-0.1c0.1,0,0.1,0,0.2,0
					c0.2-0.1,0.2-0.3,0.2-0.3c0,0,0.2-0.1,0.2-0.1c0,0,0,0,0.1,0c0,0,0,0,0.1-0.3C3.5,51.9,3.7,51.8,3.7,51.7"/>
				<path class="st5" d="M3.5,48.2C3.4,48.2,3.4,48.2,3.5,48.2C3.4,48.3,3.4,48.3,3.5,48.2C3.4,48.3,3.4,48.3,3.5,48.2
					C3.4,48.3,3.4,48.3,3.5,48.2C3.4,48.3,3.4,48.3,3.5,48.2c0,0.1,0,0.1,0,0.1c0,0,0,0,0,0c0,0,0,0,0,0c0,0,0,0,0,0c0,0,0,0,0,0
					c0,0,0,0,0,0c0,0,0,0,0,0c0,0,0,0,0,0c0,0,0,0,0,0c0,0,0,0,0,0c0,0,0,0,0,0c0,0,0,0,0,0c0,0,0,0,0,0c0,0,0,0,0,0c0,0,0,0,0,0
					c0,0,0,0,0,0c0,0,0,0,0.1,0c0,0.1-0.1,0.1-0.1,0.1l0,0l0,0l0,0l0,0l0,0l0,0l0,0l0,0c0,0,0,0.1-0.1,0.1c0,0,0,0-0.1,0
					c0,0,0,0,0,0c0,0,0,0,0,0c0,0,0,0.1,0,0.1c0,0,0,0-0.1,0c0,0,0,0-0.1,0C3,48.8,3,48.8,3,48.8c0,0,0,0,0,0c0,0,0,0,0,0
					c0,0,0,0,0,0c0,0,0,0,0,0c0,0,0,0,0,0c0,0,0-0.1,0-0.1c0,0,0,0,0,0c0,0,0,0,0,0c0,0,0,0-0.1,0c0,0,0,0,0,0c0,0,0,0,0,0
					c0,0,0,0,0,0c0,0,0,0,0,0c0,0,0,0,0,0c0,0,0,0,0,0c0,0,0,0,0,0c0,0,0,0,0,0c0,0,0,0,0,0c0,0,0,0,0,0c0,0,0,0,0-0.1
					c0,0,0,0-0.1,0c0,0,0,0,0,0c0,0,0,0,0,0c0,0,0,0-0.1,0c0,0,0,0,0,0c0,0,0,0,0,0c0,0,0,0,0,0c0,0,0,0,0,0c0,0,0.1,0,0.1,0
					c0,0,0,0,0,0c0,0,0,0,0,0c0,0,0,0,0.1,0l0,0c0,0,0,0,0,0c0.1,0,0.1,0,0.1,0c0,0,0,0,0,0c0,0,0,0,0,0c0,0,0,0,0,0c0,0,0,0,0,0
					c0,0,0,0,0,0c0,0,0,0,0,0c0,0,0,0,0,0c0,0,0,0,0,0c0,0,0,0,0.1,0c0,0,0,0,0,0h0c0,0,0,0,0,0c0,0,0,0,0,0h0c0,0,0,0,0,0
					c0,0,0,0,0,0h0h0c0,0,0,0,0,0c0,0,0,0,0.1,0c0,0,0,0,0,0c0,0,0,0,0,0l0,0l0,0l0,0l0,0l0,0l0,0l0,0l0,0c0,0,0,0,0,0
					c0,0,0.1,0,0.1,0c0,0-0.1,0-0.1,0c0.1,0,0.1,0,0.1,0c0,0,0,0,0,0c0,0,0,0,0,0c0,0,0,0,0,0C3.4,48.2,3.4,48.2,3.5,48.2
					C3.4,48.2,3.4,48.2,3.5,48.2L3.5,48.2L3.5,48.2L3.5,48.2L3.5,48.2L3.5,48.2L3.5,48.2L3.5,48.2C3.4,48.2,3.4,48.2,3.5,48.2
					C3.4,48.2,3.4,48.2,3.5,48.2"/>
				<path class="st5" d="M2.9,48.2c-0.2,0.1-0.2,0.1-0.2,0.1c0,0-0.1,0-0.1,0c0,0,0,0,0,0c0,0,0,0,0,0c0,0,0,0,0,0c0,0-0.1,0-0.1,0
					c0,0,0,0,0,0c0,0-0.1,0-0.1,0c0,0,0,0-0.1,0c0,0,0,0,0,0c0,0,0,0,0,0c0.1,0,0.1,0,0.1,0c0,0,0,0,0,0c0,0,0,0,0,0c0,0,0,0,0,0
					l-0.1,0c0,0,0,0,0,0c0,0,0,0,0,0c0,0,0,0,0,0c0,0,0,0,0,0c0,0,0,0,0,0c0,0,0,0,0,0c0,0,0,0,0,0c0,0,0,0,0,0c0,0,0,0,0,0
					c0,0,0,0,0,0c0,0,0,0,0,0c0,0,0,0,0,0c0,0,0,0,0.1,0l0,0c0,0,0,0,0,0c0,0,0,0,0,0c0,0,0,0,0,0c0,0,0,0,0,0c0,0,0,0,0,0
					c0,0-0.1,0-0.1,0c0,0,0,0,0,0c0,0,0,0,0,0c0,0,0,0,0,0c0,0,0,0,0,0c0,0,0,0,0,0c0,0,0,0,0,0c0,0,0,0,0,0c0,0,0,0,0,0
					c0,0,0,0,0,0c0,0,0,0,0,0c0,0,0,0,0,0c0,0,0,0,0,0c0,0,0,0,0,0c0,0,0,0-0.1,0c0,0,0,0,0,0c0,0,0,0,0,0c0,0,0,0,0,0c0,0,0,0,0,0
					c0,0,0,0,0.1,0c0,0,0,0,0,0c0,0,0,0,0,0c0,0,0,0,0,0c0,0,0,0,0,0c0,0,0.1,0,0.1,0C2.8,48.2,2.8,48.2,2.9,48.2
					C2.9,48.2,2.9,48.2,2.9,48.2C2.9,48.2,2.9,48.2,2.9,48.2C2.9,48.2,2.9,48.2,2.9,48.2"/>
				<path class="st5" d="M2.2,48.5C2.1,48.5,2.1,48.5,2.2,48.5C2.1,48.5,2.1,48.5,2.2,48.5C2.1,48.5,2.1,48.5,2.2,48.5
					C2.1,48.5,2.1,48.5,2.2,48.5C2.1,48.5,2.1,48.5,2.2,48.5C2.1,48.5,2.1,48.5,2.2,48.5C2.1,48.5,2.1,48.5,2.2,48.5
					C2.1,48.5,2.1,48.5,2.2,48.5C2.1,48.5,2.1,48.5,2.2,48.5c-0.1,0-0.2,0-0.2,0c0,0,0,0,0,0l0,0l0,0l0,0c0,0,0,0,0,0l0,0v0h0l0,0
					c0,0,0,0,0,0c0,0,0,0,0.1,0c0,0,0,0,0,0c0,0,0,0,0,0c0,0,0,0,0,0c0,0,0,0,0,0c0,0,0,0,0,0c0,0,0,0,0,0c0,0,0,0,0,0c0,0,0,0,0,0
					l0,0v0c0,0,0,0,0,0c0,0,0,0,0,0c0,0,0,0,0,0s0,0,0.1,0c0,0,0,0,0,0c0,0,0,0,0,0c0,0,0,0,0,0c0,0,0,0,0,0c0,0,0,0,0,0
					c0,0,0,0,0,0c0,0,0,0,0,0c0,0,0,0,0,0c0,0,0,0,0,0c0,0,0,0,0,0c0,0,0,0,0,0c0,0,0,0,0,0c0,0,0,0,0,0C2.1,48.3,2.1,48.3,2.2,48.5
					C2.1,48.4,2.1,48.4,2.2,48.5C2.1,48.4,2.1,48.4,2.2,48.5c0-0.1,0-0.1,0-0.1c0,0,0,0,0,0l0,0c0,0,0,0,0,0c0,0,0,0,0,0
					c0,0,0,0,0,0c0,0,0,0,0,0C2.2,48.4,2.2,48.4,2.2,48.5C2.2,48.4,2.2,48.4,2.2,48.5C2.2,48.4,2.1,48.4,2.2,48.5
					C2.1,48.4,2.2,48.5,2.2,48.5C2.2,48.5,2.2,48.5,2.2,48.5"/>
				<path class="st5" d="M6.1,51.2C6.1,51.2,6.1,51.2,6.1,51.2C6.1,51.2,6.1,51.2,6.1,51.2C6,51.5,6,51.6,5.9,51.7c0,0,0,0,0,0
					c0,0,0-0.1,0-0.1c0-0.1,0-0.1,0-0.2C6,51.4,6,51.3,6.1,51.2c0,0,0-0.1,0-0.1C6.1,51.1,6.1,51.2,6.1,51.2"/>
				<path class="st5" d="M4.4,49C4.4,49,4.4,49,4.4,49C4.4,49,4.4,49,4.4,49C4.4,49.1,4.4,49.1,4.4,49C4.4,49.1,4.4,49.1,4.4,49
					C4.4,49.1,4.4,49.1,4.4,49C4.3,49.1,4.3,49.1,4.4,49C4.3,49.1,4.3,49.1,4.4,49c-0.1,0.1-0.1,0.1-0.1,0.1c0,0,0,0,0,0
					C4.3,49.1,4.3,49.1,4.4,49c-0.1,0.1-0.1,0.1-0.1,0.1c0,0,0,0,0,0c0,0,0,0,0,0c0,0,0,0,0,0c0,0,0,0,0,0c0,0,0,0,0,0c0,0,0,0,0,0
					c0,0,0,0,0,0c0,0,0,0,0,0c0,0,0,0,0,0c0,0,0,0,0,0c0,0,0,0,0,0c0,0,0,0,0,0c0,0,0,0,0,0c0,0,0,0,0,0c0,0,0,0,0,0c0,0,0,0,0,0
					c0,0,0,0,0,0c0,0,0,0,0,0c0,0,0,0,0,0c0,0,0,0,0,0c0,0,0,0,0,0c0,0,0,0,0,0C4.3,48.9,4.3,48.9,4.4,49C4.3,49,4.3,49,4.4,49
					C4.3,49,4.3,49,4.4,49C4.3,49,4.3,49,4.4,49C4.3,49,4.4,49,4.4,49"/>
				<path class="st5" d="M3.8,48.2C3.8,48.2,3.8,48.2,3.8,48.2C3.8,48.2,3.8,48.2,3.8,48.2C3.8,48.2,3.8,48.2,3.8,48.2
					C3.8,48.2,3.8,48.2,3.8,48.2C3.8,48.2,3.8,48.2,3.8,48.2C3.8,48.2,3.8,48.2,3.8,48.2C3.8,48.2,3.8,48.2,3.8,48.2
					C3.9,48.2,3.9,48.2,3.8,48.2C3.9,48.2,3.9,48.2,3.8,48.2C3.9,48.2,3.9,48.2,3.8,48.2C3.9,48.2,3.9,48.2,3.8,48.2
					C3.8,48.2,3.8,48.2,3.8,48.2C3.8,48.2,3.8,48.2,3.8,48.2C3.9,48.2,3.9,48.2,3.8,48.2c0.1,0.1,0.1,0.1,0.1,0.1
					C3.9,48.3,3.9,48.3,3.8,48.2C3.9,48.2,3.8,48.2,3.8,48.2C3.8,48.2,3.8,48.2,3.8,48.2C3.8,48.2,3.8,48.2,3.8,48.2
					C3.8,48.2,3.8,48.2,3.8,48.2C3.8,48.2,3.8,48.2,3.8,48.2c-0.1,0.1-0.1,0.1-0.1,0.1C3.7,48.2,3.7,48.2,3.8,48.2
					C3.7,48.2,3.7,48.2,3.8,48.2C3.7,48.2,3.7,48.2,3.8,48.2C3.7,48.2,3.7,48.2,3.8,48.2C3.8,48.2,3.8,48.2,3.8,48.2
					C3.8,48.2,3.8,48.2,3.8,48.2C3.7,48.2,3.8,48.2,3.8,48.2C3.8,48.2,3.8,48.2,3.8,48.2C3.8,48.2,3.8,48.2,3.8,48.2
					C3.8,48.2,3.8,48.2,3.8,48.2C3.8,48.2,3.8,48.2,3.8,48.2C3.8,48.2,3.8,48.2,3.8,48.2C3.8,48.2,3.8,48.2,3.8,48.2
					C3.8,48.2,3.8,48.2,3.8,48.2C3.8,48.2,3.8,48.2,3.8,48.2C3.8,48.2,3.8,48.2,3.8,48.2C3.8,48.1,3.8,48.1,3.8,48.2L3.8,48.2
					C3.8,48.1,3.8,48.2,3.8,48.2"/>
				<path class="st5" d="M4,48C4,48,4,48,4,48C4.1,48,4.1,48.1,4,48c0.1,0.1,0.1,0.1,0.1,0.1c0,0,0.1,0.1,0.1,0.1c0,0,0,0,0.1,0
					c0,0,0,0,0,0c0,0,0,0,0,0c0,0,0,0-0.1,0c0,0-0.1,0-0.1,0L4,48C4.1,48.1,4.1,48.1,4,48C4.1,48.1,4.1,48.1,4,48L4,48L4,48L4,48
					L4,48C4.1,48.1,4.1,48.1,4,48C4,48,4,48,4,48C4,48,4,48,4,48C4,48,4,48,4,48"/>
				<path class="st5" d="M3.8,48.7C3.8,48.7,3.8,48.7,3.8,48.7C3.8,48.7,3.8,48.7,3.8,48.7C3.8,48.7,3.8,48.7,3.8,48.7
					C3.7,48.7,3.7,48.7,3.8,48.7c-0.1,0.1-0.1,0.1-0.1,0.1c0,0,0,0,0,0l0,0c0,0,0,0,0,0c0,0,0,0,0,0c0,0,0,0,0,0c0,0,0,0,0,0
					c0,0,0,0,0,0c0,0,0,0,0,0c0,0,0,0,0,0c0,0,0,0,0,0c0,0,0,0,0,0c0,0,0,0,0,0c0,0,0,0,0,0l0,0l0,0l0,0c0,0,0,0,0,0c0,0,0,0,0,0
					c0,0,0,0,0,0c0,0,0,0,0,0C3.7,48.6,3.7,48.7,3.8,48.7C3.7,48.6,3.7,48.6,3.8,48.7C3.7,48.6,3.7,48.6,3.8,48.7
					C3.7,48.6,3.8,48.6,3.8,48.7"/>
				<path class="st5" d="M2.3,48.3C2.2,48.3,2.2,48.3,2.3,48.3C2.2,48.3,2.2,48.3,2.3,48.3c-0.1,0-0.1,0-0.1,0c0,0,0,0,0,0
					c0,0,0,0,0,0C2.2,48.3,2.2,48.3,2.3,48.3c-0.1,0-0.1,0-0.1,0c0,0,0,0,0,0c0,0,0,0,0,0C2.1,48.3,2.2,48.2,2.3,48.3
					C2.2,48.3,2.2,48.3,2.3,48.3C2.2,48.3,2.2,48.3,2.3,48.3C2.2,48.3,2.2,48.3,2.3,48.3C2.2,48.3,2.2,48.3,2.3,48.3
					C2.2,48.3,2.2,48.3,2.3,48.3C2.2,48.3,2.2,48.3,2.3,48.3C2.2,48.3,2.2,48.3,2.3,48.3C2.3,48.3,2.3,48.3,2.3,48.3L2.3,48.3
					C2.3,48.3,2.3,48.3,2.3,48.3C2.3,48.3,2.3,48.3,2.3,48.3C2.3,48.3,2.3,48.3,2.3,48.3C2.3,48.3,2.3,48.3,2.3,48.3"/>
				<path class="st5" d="M2.9,49.4C2.9,49.4,2.9,49.4,2.9,49.4C2.9,49.4,2.9,49.4,2.9,49.4C2.9,49.4,2.9,49.3,2.9,49.4
					C2.9,49.3,2.9,49.3,2.9,49.4C2.9,49.3,2.9,49.3,2.9,49.4c-0.1,0-0.1,0-0.2,0c0,0,0,0-0.1,0c0,0,0.1-0.1,0.1-0.1c0,0,0,0,0,0l0,0
					l0,0h0c0,0,0,0,0,0c0,0,0,0,0,0c0,0,0,0,0,0c0,0,0,0,0,0c0,0,0,0,0,0C2.8,49.3,2.8,49.3,2.9,49.4C2.9,49.3,2.9,49.3,2.9,49.4
					C2.9,49.3,2.9,49.3,2.9,49.4C2.9,49.3,2.9,49.3,2.9,49.4C2.9,49.3,2.9,49.3,2.9,49.4C2.9,49.3,2.9,49.3,2.9,49.4
					C2.9,49.3,2.9,49.3,2.9,49.4C2.9,49.3,2.9,49.3,2.9,49.4C2.9,49.3,2.9,49.3,2.9,49.4C2.9,49.3,2.9,49.4,2.9,49.4"/>
				<path class="st5" d="M3.8,47.9C3.8,47.9,3.8,47.9,3.8,47.9C3.8,47.9,3.8,47.9,3.8,47.9C3.8,47.9,3.8,47.9,3.8,47.9
					C3.8,47.9,3.8,47.9,3.8,47.9C3.8,47.9,3.8,47.9,3.8,47.9C3.8,47.9,3.8,47.9,3.8,47.9C3.8,47.9,3.8,47.9,3.8,47.9
					C3.7,47.9,3.7,47.9,3.8,47.9C3.7,47.9,3.7,47.9,3.8,47.9C3.7,47.9,3.7,47.9,3.8,47.9C3.7,47.9,3.7,47.9,3.8,47.9
					C3.7,47.9,3.7,47.9,3.8,47.9C3.7,47.9,3.7,47.9,3.8,47.9C3.7,47.9,3.7,47.9,3.8,47.9C3.7,47.9,3.7,47.9,3.8,47.9
					C3.7,47.9,3.7,47.9,3.8,47.9"/>
				<path class="st5" d="M4.2,49C4.2,49,4.2,49,4.2,49C4.2,49,4.2,49,4.2,49C4.2,49,4.2,49,4.2,49C4.2,49.1,4.2,49.1,4.2,49
					c0,0.1,0,0.1-0.1,0.1C4.1,49.1,4.1,49.1,4.2,49C4.1,49,4.1,49,4.2,49C4.1,49,4.1,49,4.2,49C4.1,49,4.1,49,4.2,49
					C4.1,49,4.1,49,4.2,49C4.1,49,4.1,49,4.2,49C4.1,49,4.1,49,4.2,49C4.1,49,4.1,49,4.2,49C4.1,49,4.1,49,4.2,49
					C4.1,49,4.1,49,4.2,49C4.1,49,4.1,49,4.2,49C4.1,49,4.1,49,4.2,49C4.1,49,4.1,49,4.2,49C4.1,49,4.1,49,4.2,49
					C4.1,49,4.1,49,4.2,49C4.1,49,4.2,49,4.2,49C4.2,49,4.2,49,4.2,49"/>
				<path class="st5" d="M2.3,48.4C2.3,48.4,2.3,48.4,2.3,48.4C2.3,48.4,2.2,48.4,2.3,48.4C2.2,48.4,2.2,48.4,2.3,48.4
					C2.2,48.4,2.2,48.4,2.3,48.4C2.2,48.4,2.2,48.4,2.3,48.4C2.2,48.4,2.2,48.4,2.3,48.4C2.2,48.4,2.2,48.4,2.3,48.4
					C2.2,48.4,2.2,48.4,2.3,48.4C2.2,48.4,2.2,48.4,2.3,48.4C2.2,48.4,2.2,48.4,2.3,48.4C2.2,48.4,2.2,48.4,2.3,48.4
					C2.2,48.4,2.2,48.4,2.3,48.4C2.2,48.4,2.2,48.4,2.3,48.4C2.2,48.4,2.3,48.4,2.3,48.4C2.3,48.4,2.3,48.4,2.3,48.4
					C2.3,48.4,2.3,48.4,2.3,48.4C2.3,48.4,2.3,48.4,2.3,48.4C2.3,48.4,2.3,48.4,2.3,48.4C2.3,48.4,2.3,48.4,2.3,48.4
					C2.3,48.4,2.3,48.4,2.3,48.4C2.3,48.4,2.3,48.4,2.3,48.4"/>
				<path class="st5" d="M2,50.4C2,50.4,2,50.4,2,50.4c0,0-0.1,0-0.1,0c0,0,0,0,0,0c0,0,0,0,0-0.1c0,0,0,0-0.1,0c0,0,0,0-0.1,0
					c0,0,0,0,0,0c0,0-0.1,0-0.1,0c0-0.1,0.1,0,0.1,0c0.1,0,0.1,0,0.1,0c0,0,0,0,0,0C1.9,50.3,2,50.4,2,50.4C2,50.4,2,50.4,2,50.4"/>
				<path class="st5" d="M2.3,48.7C2.3,48.7,2.3,48.7,2.3,48.7C2.3,48.7,2.3,48.7,2.3,48.7C2.3,48.7,2.3,48.7,2.3,48.7
					C2.3,48.7,2.3,48.7,2.3,48.7C2.3,48.7,2.3,48.7,2.3,48.7c-0.1,0-0.1,0-0.1,0c0,0,0,0,0,0c0,0,0,0,0,0c0,0,0,0,0,0c0,0,0,0,0,0
					c0,0,0,0,0,0C2.3,48.7,2.3,48.6,2.3,48.7C2.3,48.6,2.3,48.6,2.3,48.7C2.3,48.6,2.3,48.6,2.3,48.7C2.3,48.7,2.3,48.7,2.3,48.7
					C2.3,48.7,2.3,48.7,2.3,48.7C2.3,48.7,2.3,48.7,2.3,48.7C2.3,48.7,2.3,48.7,2.3,48.7C2.3,48.7,2.3,48.7,2.3,48.7
					C2.4,48.7,2.4,48.7,2.3,48.7"/>
				<path class="st5" d="M2.3,48.3C2.3,48.3,2.3,48.3,2.3,48.3C2.3,48.3,2.3,48.3,2.3,48.3C2.3,48.3,2.3,48.3,2.3,48.3
					C2.3,48.3,2.3,48.3,2.3,48.3C2.3,48.3,2.3,48.3,2.3,48.3C2.3,48.3,2.3,48.3,2.3,48.3C2.3,48.3,2.3,48.3,2.3,48.3
					C2.3,48.3,2.3,48.3,2.3,48.3C2.3,48.3,2.3,48.3,2.3,48.3C2.3,48.3,2.3,48.3,2.3,48.3C2.3,48.3,2.3,48.3,2.3,48.3
					C2.3,48.3,2.3,48.3,2.3,48.3C2.3,48.3,2.3,48.3,2.3,48.3C2.3,48.3,2.3,48.3,2.3,48.3C2.3,48.3,2.3,48.3,2.3,48.3
					C2.4,48.3,2.4,48.3,2.3,48.3C2.4,48.3,2.4,48.3,2.3,48.3C2.4,48.3,2.3,48.3,2.3,48.3"/>
				<path class="st5" d="M2.2,50.5C2.2,50.5,2.2,50.5,2.2,50.5C2.2,50.5,2.2,50.5,2.2,50.5C2.2,50.5,2.1,50.5,2.2,50.5
					C2.1,50.5,2.1,50.5,2.2,50.5c-0.1,0-0.1,0-0.1,0c0,0,0,0-0.1,0c0,0,0,0-0.1,0c0,0,0,0,0.1,0c0,0,0,0,0-0.1c0,0,0,0,0,0
					c0,0,0,0,0,0c0,0,0,0,0,0C2.1,50.5,2.1,50.5,2.2,50.5C2.1,50.5,2.2,50.5,2.2,50.5C2.2,50.5,2.2,50.5,2.2,50.5L2.2,50.5
					C2.2,50.5,2.2,50.5,2.2,50.5L2.2,50.5L2.2,50.5C2.2,50.5,2.2,50.5,2.2,50.5L2.2,50.5"/>
				<path class="st5" d="M2.2,48.2C2.2,48.2,2.2,48.2,2.2,48.2C2.2,48.2,2.2,48.2,2.2,48.2C2.2,48.2,2.2,48.2,2.2,48.2L2.2,48.2
					C2.2,48.2,2.2,48.2,2.2,48.2C2.2,48.2,2.2,48.2,2.2,48.2C2.2,48.2,2.2,48.2,2.2,48.2C2.2,48.2,2.1,48.2,2.2,48.2
					C2.1,48.2,2.1,48.2,2.2,48.2c-0.1,0-0.1,0-0.1,0l0,0l0,0l0,0l0,0l0,0l0,0l0,0l0,0C2.1,48.2,2.1,48.2,2.2,48.2
					c-0.1,0-0.1,0-0.1,0C2.1,48.2,2.1,48.2,2.2,48.2C2.1,48.2,2.1,48.2,2.2,48.2C2.2,48.2,2.2,48.2,2.2,48.2
					C2.2,48.2,2.2,48.2,2.2,48.2C2.2,48.2,2.2,48.2,2.2,48.2C2.2,48.2,2.2,48.2,2.2,48.2L2.2,48.2C2.2,48.2,2.2,48.2,2.2,48.2
					C2.2,48.2,2.2,48.2,2.2,48.2C2.2,48.2,2.2,48.2,2.2,48.2"/>
				<path class="st5" d="M2.4,48.3C2.4,48.3,2.4,48.3,2.4,48.3C2.4,48.3,2.4,48.3,2.4,48.3C2.4,48.3,2.4,48.3,2.4,48.3
					C2.4,48.3,2.4,48.3,2.4,48.3C2.4,48.3,2.4,48.3,2.4,48.3C2.4,48.3,2.4,48.3,2.4,48.3C2.4,48.3,2.4,48.3,2.4,48.3
					C2.4,48.3,2.4,48.3,2.4,48.3C2.4,48.2,2.4,48.2,2.4,48.3C2.4,48.2,2.4,48.2,2.4,48.3C2.4,48.2,2.4,48.2,2.4,48.3
					C2.4,48.2,2.4,48.2,2.4,48.3C2.4,48.2,2.4,48.2,2.4,48.3L2.4,48.3C2.4,48.2,2.4,48.2,2.4,48.3C2.4,48.2,2.4,48.2,2.4,48.3
					C2.4,48.2,2.4,48.2,2.4,48.3C2.4,48.2,2.4,48.2,2.4,48.3C2.4,48.2,2.4,48.2,2.4,48.3C2.4,48.2,2.4,48.2,2.4,48.3
					C2.4,48.3,2.4,48.3,2.4,48.3"/>
				<path class="st5" d="M3.7,47.9C3.8,47.9,3.8,47.9,3.7,47.9C3.8,47.9,3.7,47.9,3.7,47.9C3.7,47.9,3.7,47.9,3.7,47.9
					C3.7,47.9,3.7,47.9,3.7,47.9C3.7,47.9,3.7,47.9,3.7,47.9L3.7,47.9C3.7,47.9,3.7,47.9,3.7,47.9"/>
				<path class="st5" d="M2.5,48.3C2.4,48.3,2.4,48.3,2.5,48.3C2.4,48.3,2.4,48.3,2.5,48.3C2.4,48.3,2.4,48.3,2.5,48.3
					C2.4,48.3,2.4,48.3,2.5,48.3C2.4,48.3,2.4,48.3,2.5,48.3C2.4,48.3,2.4,48.3,2.5,48.3L2.5,48.3C2.4,48.3,2.4,48.3,2.5,48.3
					C2.4,48.3,2.4,48.3,2.5,48.3C2.4,48.3,2.4,48.3,2.5,48.3C2.5,48.3,2.5,48.3,2.5,48.3L2.5,48.3L2.5,48.3L2.5,48.3
					C2.5,48.3,2.4,48.3,2.5,48.3C2.4,48.3,2.4,48.3,2.5,48.3C2.5,48.3,2.5,48.3,2.5,48.3C2.5,48.3,2.5,48.3,2.5,48.3"/>
				<path class="st5" d="M2.3,48.2C2.3,48.2,2.3,48.2,2.3,48.2C2.3,48.2,2.3,48.2,2.3,48.2C2.3,48.2,2.3,48.2,2.3,48.2
					C2.3,48.2,2.3,48.2,2.3,48.2C2.3,48.2,2.3,48.2,2.3,48.2C2.3,48.2,2.3,48.2,2.3,48.2C2.3,48.2,2.3,48.2,2.3,48.2
					C2.3,48.2,2.3,48.2,2.3,48.2C2.3,48.2,2.3,48.2,2.3,48.2C2.3,48.2,2.3,48.2,2.3,48.2C2.3,48.2,2.3,48.2,2.3,48.2L2.3,48.2
					C2.3,48.2,2.3,48.2,2.3,48.2C2.3,48.2,2.3,48.2,2.3,48.2L2.3,48.2C2.3,48.2,2.3,48.2,2.3,48.2C2.3,48.2,2.3,48.2,2.3,48.2"/>
				<path class="st5" d="M4.8,49.4C4.8,49.4,4.8,49.4,4.8,49.4C4.8,49.4,4.8,49.4,4.8,49.4C4.8,49.4,4.8,49.4,4.8,49.4
					C4.8,49.4,4.8,49.4,4.8,49.4C4.8,49.4,4.8,49.4,4.8,49.4C4.8,49.4,4.8,49.4,4.8,49.4C4.8,49.4,4.8,49.4,4.8,49.4
					C4.8,49.4,4.8,49.4,4.8,49.4C4.8,49.4,4.8,49.4,4.8,49.4"/>
				<path class="st5" d="M1.3,48.4C1.3,48.4,1.3,48.4,1.3,48.4C1.3,48.4,1.3,48.5,1.3,48.4C1.3,48.5,1.3,48.5,1.3,48.4
					C1.3,48.5,1.3,48.5,1.3,48.4C1.3,48.5,1.3,48.4,1.3,48.4L1.3,48.4C1.3,48.4,1.3,48.4,1.3,48.4C1.3,48.4,1.3,48.4,1.3,48.4"/>
			</g>
		</g>
	</g>
</g>
<g>
	<path class="st6" d="M4.8,3.8c0,0-0.1-0.3,0.3-0.1C5.5,3.9,5.5,3.3,5.4,3C5.2,2.7,4.9,2.3,4.7,2.7C4.5,3.2,4.4,2.9,4.4,2.9L4,1.9
		L3.1,2.3c0,0-0.3,0.1-0.1-0.3c0.2-0.4-0.3-0.4-0.7-0.3C2,1.8,1.6,2.1,2,2.3c0.4,0.2,0.1,0.3,0.1,0.3L0.4,3.3l0.4,0.9
		c0,0,0.1,0.3,0.3-0.1c0.2-0.4,0.5,0,0.7,0.3c0.1,0.3,0.2,0.9-0.3,0.7C1,4.9,1.2,5.2,1.2,5.2l0.7,1.7l1.7-0.7c0,0,0.3-0.1-0.1-0.3
		C3,5.7,3.4,5.4,3.7,5.3C4,5.1,4.6,5.1,4.4,5.6C4.2,6,4.5,5.9,4.5,5.9l0.9-0.4L4.8,3.8z"/>
</g>
<g>
	<path class="st7" d="M54.2,4.8c-0.1-0.2-0.1-0.4,0-0.5c-0.1-0.1-0.1-0.1-0.2-0.2c-0.2,0.1-0.4,0.1-0.5,0c-0.2-0.1-0.3-0.2-0.4-0.4
		c-0.1,0-0.2,0-0.2,0c0,0.2-0.2,0.3-0.4,0.4c-0.2,0.1-0.4,0.1-0.5,0c-0.1,0.1-0.1,0.1-0.2,0.2c0.1,0.2,0.1,0.4,0,0.5
		c-0.1,0.2-0.2,0.3-0.4,0.4c0,0.1,0,0.2,0,0.2c0.2,0,0.3,0.2,0.4,0.4C52,6,52,6.2,51.9,6.4C52,6.5,52,6.5,52.1,6.6
		c0.2-0.1,0.4-0.1,0.5,0c0.2,0.1,0.3,0.2,0.4,0.4c0.1,0,0.2,0,0.2,0c0-0.2,0.2-0.3,0.4-0.4c0.2-0.1,0.4-0.1,0.5,0
		c0.1-0.1,0.1-0.1,0.2-0.2c-0.1-0.2-0.1-0.4,0-0.5c0.1-0.2,0.2-0.3,0.4-0.4c0-0.1,0-0.2,0-0.2C54.5,5.1,54.3,5,54.2,4.8z M53.5,6.2
		c-0.5,0.2-1,0-1.3-0.5c-0.2-0.5,0-1,0.5-1.3c0.5-0.2,1,0,1.3,0.5C54.1,5.4,53.9,6,53.5,6.2z"/>
	<path class="st7" d="M58.7,2.6c-0.3,0-0.6,0-0.8-0.3c-0.2-0.2-0.3-0.5-0.3-0.8c-0.1-0.1-0.2-0.1-0.3-0.1c-0.2,0.2-0.4,0.4-0.7,0.4
		c-0.3,0-0.6-0.1-0.7-0.3c-0.1,0-0.2,0.1-0.3,0.1c0,0.3,0,0.6-0.3,0.8c-0.2,0.2-0.5,0.3-0.8,0.3c-0.1,0.1-0.1,0.2-0.1,0.3
		c0.2,0.2,0.4,0.4,0.4,0.7c0,0.3-0.1,0.6-0.3,0.7c0,0.1,0.1,0.2,0.1,0.3c0.3,0,0.6,0,0.8,0.3c0.2,0.2,0.3,0.5,0.3,0.8
		c0.1,0.1,0.2,0.1,0.3,0.1c0.2-0.2,0.4-0.4,0.7-0.4c0.3,0,0.6,0.1,0.7,0.3c0.1,0,0.2-0.1,0.3-0.1c0-0.3,0-0.6,0.3-0.8
		c0.2-0.2,0.5-0.3,0.8-0.3c0.1-0.1,0.1-0.2,0.1-0.3c-0.2-0.2-0.4-0.4-0.4-0.7c0-0.3,0.1-0.6,0.3-0.7C58.8,2.8,58.8,2.7,58.7,2.6z
		 M58.1,3.7c0,0.8-0.6,1.4-1.4,1.4c-0.8,0-1.4-0.6-1.4-1.4c0-0.8,0.6-1.4,1.4-1.4C57.4,2.3,58,2.9,58.1,3.7z"/>
</g>
<g>
	<path class="st8" d="M58.6,52.9c-0.1-0.4-0.3-0.7-0.6-0.8C57.8,52,57.6,52,57.4,52c-0.6-0.1-1-0.2-1.1-0.6c0,0,0.1-0.2,0.1-0.4
		c0.1-0.2,0.1-0.5,0.2-0.7c0,0,0,0,0,0c0.1,0,0.1-0.1,0.1-0.1c0.1-0.2,0.1-0.6,0.1-0.8c0-0.1-0.1-0.2-0.2-0.2c0-0.1,0-0.3-0.1-0.6
		l0.1,0l-0.1-0.1c0-0.1-0.1-0.2-0.1-0.2c-0.1-0.2-0.2-0.5-0.6-0.6c-0.2-0.1-0.5-0.2-0.8-0.2c-0.1,0-0.1,0-0.2,0c0,0,0,0,0,0
		c0,0,0,0,0,0h0c-0.3,0-0.6,0.1-0.9,0.4c-0.3,0.3-0.4,0.7-0.4,1c0,0,0,0,0,0.1c0,0,0,0,0,0c0,0.1,0,0.2,0,0.3c0,0,0,0,0,0
		c0,0-0.1,0-0.1,0.1c0,0.1,0,0.7,0.1,0.9c0,0.1,0.1,0.1,0.1,0.1c0,0,0.1,0,0.1-0.1c0,0.2,0.1,0.5,0.2,0.7c0.1,0.2,0.1,0.3,0.1,0.4
		c-0.1,0.4-0.6,0.5-1.2,0.6c-0.2,0-0.4,0.1-0.6,0.1c-0.3,0.1-0.5,0.4-0.6,0.8c-0.1,0.3,0,0.6,0,0.6l0,0h6.9l0,0
		C58.6,53.6,58.6,53.3,58.6,52.9z M54.2,51.3L54.2,51.3L54.2,51.3c0,0-0.1-0.2-0.1-0.4c-0.1-0.2-0.2-0.8-0.2-0.8l0-0.1l-0.1,0.1
		c0,0,0,0.1-0.1,0.1c0,0,0,0,0,0c-0.1-0.2-0.1-0.7-0.1-0.9c0,0,0,0,0,0c0,0,0.1,0,0.1,0l0.1,0l0-0.1c0,0,0-0.2,0-0.4
		c0.1,0,0.1-0.1,0.2-0.2c0,0.1,0,0.1,0,0.2c0-0.1,0.1-0.3,0.2-0.4c0,0.1,0,0.1,0,0.2c0-0.1,0-0.3,0.1-0.4c0,0.1,0,0.1,0,0.2
		c0-0.1,0.1-0.3,0.1-0.4c0,0,0,0.1,0.1,0.1c0,0,0-0.1,0-0.1c0.1,0.1,0.2,0.1,0.3,0.1c0,0,0-0.1,0-0.1c0.2,0,0.3,0.2,0.5,0.2
		c0-0.1-0.1-0.1-0.2-0.2c0.2,0,0.3,0.2,0.5,0.4c0-0.1-0.1-0.2-0.1-0.4c0.2,0.1,0.4,0.3,0.3,0.2c0.2,0.1,0.4,0.2,0.6,0.3
		c-0.1,0-0.2-0.2-0.2-0.2c0.1,0.1,0.4,0.3,0.5,0.3l0,0c0.1,0.5,0.1,0.7,0.1,0.7l0,0.1h0.1c0,0,0.1,0,0.1,0.1c0,0.2,0,0.5-0.1,0.7
		c0,0.1,0,0.1,0,0.1c0,0,0,0,0,0L56.5,50l0,0.1c0,0-0.1,0.6-0.2,0.8c-0.1,0.2-0.1,0.4-0.1,0.4l0,0l0,0c0.1,0.2,0.2,0.3,0.4,0.4
		c-0.4,0.2-0.9,0.3-1.4,0.3c-0.5,0-1-0.1-1.4-0.3C54,51.7,54.1,51.5,54.2,51.3z"/>
	<path class="st8" d="M54.5,50c0.4,0,0.5-0.3,0.6-0.5c0-0.1,0.1-0.2,0.1-0.2c0,0,0.1,0,0.1,0.2c0,0.1,0.2,0.5,0.6,0.5
		c0.4,0,0.5-0.4,0.5-0.5c0-0.1,0-0.2,0.1-0.2v-0.2c0,0-0.3-0.1-0.6-0.1c-0.1,0-0.2,0-0.4,0.1c-0.1,0-0.2,0-0.2,0s-0.2,0-0.2,0
		c-0.1,0-0.2-0.1-0.4-0.1c-0.3,0-0.6,0-0.6,0.1v0.2c0.1,0,0.1,0.1,0.1,0.2C54,49.7,54,50,54.5,50z M55.9,49.2c0.3,0,0.4,0.1,0.4,0.4
		c0,0.4-0.2,0.5-0.5,0.5c-0.2,0-0.5-0.2-0.5-0.5C55.3,49.2,55.6,49.2,55.9,49.2z M54.4,49.2c0.3,0,0.6,0,0.6,0.3
		c0,0.3-0.2,0.5-0.5,0.5c-0.2,0-0.5-0.1-0.5-0.5C54,49.2,54.2,49.2,54.4,49.2z"/>
	<polygon class="st8" points="56.7,49.2 56.4,49.4 56.4,49.2 56.7,49.1 	"/>
	<polygon class="st8" points="53.6,49.2 53.9,49.4 53.9,49.2 53.6,49.1 	"/>
</g>
</svg>
