<?xml version="1.0" encoding="utf-8"?>
<!-- Generator: Adobe Illustrator 19.0.0, SVG Export Plug-In . SVG Version: 6.00 Build 0)  -->
<svg version="1.1" id="图层_1" xmlns="http://www.w3.org/2000/svg" xmlns:xlink="http://www.w3.org/1999/xlink" x="0px" y="0px"
	 viewBox="-175.2 341.5 155.9 167.9" style="enable-background:new -175.2 341.5 155.9 167.9;" xml:space="preserve">
<style type="text/css">
	.st0{fill:#5C667D;}
</style>
<g>
	<g transform="scale(0.1953125, 0.1953125)">
		<path class="st0" d="M-129.9,2608.1c17,0,30.7-13.7,30.7-30.7c0-149.6-82.7-279.3-204.6-347.5c-53.1,43.8-120.2,71.2-194.4,71.2
			s-141.3-27.4-194.4-71.2c-121.9,68.2-204.6,197.9-204.6,347.5c0,17,13.7,30.7,30.7,30.7h30.7h675.3H-129.9z M-731.4,2067.5
			c4.2,13.1,9.2,25.8,15.4,37.9c2.5,4.9,5.1,9.8,7.9,14.5c8,13.2,17.1,25.6,27.3,37c2,2.2,3.6,4.8,5.7,6.9
			c13.1,13.7,27.8,25.8,43.8,36.2c38.4,24.9,83.9,39.7,133.1,39.7s94.7-14.8,133.1-39.7c16-10.3,30.6-22.5,43.8-36.2
			c2.1-2.2,3.8-4.7,5.8-7c10.2-11.4,19.3-23.8,27.2-37c2.8-4.7,5.4-9.6,7.9-14.5c6.2-12.1,11.2-24.8,15.4-37.9
			c1.7-5.3,3.6-10.4,4.9-15.9c4.5-18.5,7.5-37.6,7.5-57.4c0-135.6-109.9-245.5-245.5-245.5c-135.6,0-245.5,109.9-245.5,245.5
			c0,19.9,3,39,7.5,57.4C-735,2057.1-733.1,2062.2-731.4,2067.5z"/>
	</g>
</g>
</svg>
