<?xml version="1.0" encoding="utf-8"?>
<!-- Generator: Adobe Illustrator 19.0.0, SVG Export Plug-In . SVG Version: 6.00 Build 0)  -->
<svg version="1.1" id="图层_1" xmlns="http://www.w3.org/2000/svg" xmlns:xlink="http://www.w3.org/1999/xlink" x="0px" y="0px"
	 viewBox="0 0 113.4 104.7" style="enable-background:new 0 0 113.4 104.7;" xml:space="preserve">
<style type="text/css">
	.st0{fill-rule:evenodd;clip-rule:evenodd;fill:#494650;}
	.st1{fill:#173778;}
</style>
<g>
	<rect x="0.1" y="91.6" class="st0" width="2.5" height="12.9"/>
	<rect x="21.1" y="91.6" class="st0" width="2.5" height="12.9"/>
	<rect x="42.3" y="91.6" class="st0" width="2.5" height="12.9"/>
	<rect x="15.7" y="91.6" class="st0" width="13.3" height="2.3"/>
	<path class="st0" d="M14.4,104.4l-6.9-6.5l6.6-6.3h-3.4l-5,4.8c-0.3,0.3-0.6,0.5-1.1,0.5c-0.5,0-3.8,0-3.8,0v2.2c0,0,3.4,0,4,0
		c0.5,0,0.7,0.1,1,0.4l5.2,5H14.4z"/>
	<path class="st0" d="M56.1,104.5l-3.6-4.9c1.1-0.5,2.1-1.3,2.1-2.7v-2.4c0-2-1.4-2.9-3.9-2.9h-8.5v2.1c0,0,6.3,0,8.2,0
		c1.7,0,1.7,0.4,1.7,1.2v1.8c0,0.9-0.6,1.2-1.6,1.2h-8.3v2.1c0,0,5.9,0,6.9,0c0.8,0,1,0.3,1.2,0.6l2.8,3.8H56.1z"/>
	<rect x="59" y="101.7" class="st0" width="2.4" height="2.7"/>
	<path class="st0" d="M79,95.4v5.8c0,2.5,1.8,3.3,3.4,3.3c1.2,0,7.4,0,7.4,0c1.4,0,2.8-1.1,2.8-3.3c0-2.4,0-5.7,0-5.7
		c0-2.2-0.9-3.9-3.9-3.9c-1.1,0-3.7,0-6,0C80.6,91.5,79,92.5,79,95.4z M81.5,101.2V95c0-1.2,1-1.3,1.9-1.3c1.6,0,3.7,0,5,0
		c1.2,0,1.6,0.6,1.6,1.3v6.1c0,0.7-0.3,1.3-1.2,1.3c-1.9,0-5.5,0-6.1,0C82.2,102.3,81.5,102.1,81.5,101.2z"/>
	<path class="st0" d="M35.5,91.7v9.6c0,0.6-0.5,1.3-1.2,1.3c0,0-2.7,0-4.6,0c-0.5,0-0.5,0-1.7-0.2v1.9c0.6,0.2,1.9,0.3,2.6,0.3
		c2,0,4,0,4,0c2.1,0,3.3-1.7,3.3-3.4v-9.5H35.5z"/>
	<path class="st0" d="M68.8,93.7c1,0,3.6,0,5.6,0c0.8,0,2.1,0.1,2.1,0.1v-1.9c-1.3-0.2-3.1-0.3-3.7-0.3c-1,0-4.9,0-4.9,0
		c-1.4,0-3.4,0.4-3.4,3.9v5c0,3.5,2,3.9,3.4,3.9h6c0.5,0,2.2-0.2,2.6-0.3v-1.9c0,0-1.2,0.2-2.2,0.2h-5.4c-1.5,0-1.9-0.5-1.9-1.2
		v-6.1C67.1,94.4,67.3,93.7,68.8,93.7z"/>
	<path class="st0" d="M108.6,91.6c-0.4,0-0.6,0.2-0.7,0.5c0,0-3.4,9-3.4,8.9c0,0.1-0.1,0.1-0.1,0.1c0,0-0.1,0-0.1-0.1
		c0.1,0.2-3.4-8.9-3.4-8.9c-0.1-0.3-0.3-0.5-0.7-0.5c-0.3,0-4.7,0-4.7,0v12.9h2.5V93.8c0,0,0.6,0,0.7,0c0.3,0,0.4,0.2,0.5,0.3
		l3.3,8.7c0.1,0.1,0.1,0.3,0.5,0.3h2.6c0.4,0,0.5-0.1,0.5-0.3l3.3-8.7c0.1-0.1,0.2-0.3,0.5-0.3c0.2,0,0.7,0,0.7,0v10.6h2.5V91.6
		C113.3,91.6,108.9,91.6,108.6,91.6z"/>
</g>
<path class="st1" d="M71.7,0L45,39.1l26.7,39.1h41.7V0H71.7z M0,78.2h41.7V0H0V78.2z"/>
<g id="XMLID_14_">
</g>
<g id="XMLID_15_">
</g>
<g id="XMLID_16_">
</g>
<g id="XMLID_17_">
</g>
<g id="XMLID_18_">
</g>
<g id="XMLID_19_">
</g>
</svg>
