<?xml version="1.0" encoding="utf-8"?>
<!-- Generator: Adobe Illustrator 19.0.0, SVG Export Plug-In . SVG Version: 6.00 Build 0)  -->
<svg version="1.1" id="图层_1" xmlns="http://www.w3.org/2000/svg" xmlns:xlink="http://www.w3.org/1999/xlink" x="0px" y="0px"
	 viewBox="0 0 56.7 13.3" style="enable-background:new 0 0 56.7 13.3;" xml:space="preserve">
<style type="text/css">
	.st0{fill:#4380DD;}
	.st1{fill-rule:evenodd;clip-rule:evenodd;fill:#FFFFFF;}
	.st2{fill:#FFFFFF;}
</style>
<g>
	<g>
		<path class="st0" d="M12,0.2L7.5,6.8l4.5,6.6l0,0h7V0.2H12z M0,13.3h7V0.2H0V13.3z"/>
	</g>
	<g>
		<g>
			<rect x="23.4" y="9.4" class="st1" width="0.7" height="3.7"/>
			<rect x="29.5" y="9.4" class="st1" width="0.7" height="3.7"/>
			<rect x="35.6" y="9.4" class="st1" width="0.7" height="3.7"/>
			<rect x="27.9" y="9.4" class="st1" width="3.9" height="0.7"/>
			<path class="st1" d="M27.6,13.1l-2-1.9l1.9-1.8h-1l-1.4,1.4C25,10.9,24.9,11,24.7,11c-0.2,0-1.1,0-1.1,0v0.6c0,0,1,0,1.1,0
				c0.1,0,0.2,0,0.3,0.1l1.5,1.4H27.6z"/>
			<path class="st1" d="M39.7,13.1l-1-1.4c0.3-0.1,0.6-0.4,0.6-0.8v-0.7c0-0.6-0.4-0.8-1.1-0.8h-2.5V10c0,0,1.8,0,2.4,0
				c0.5,0,0.5,0.1,0.5,0.4v0.5c0,0.2-0.2,0.4-0.5,0.4h-2.4v0.6c0,0,1.7,0,2,0c0.2,0,0.3,0.1,0.4,0.2l0.8,1.1H39.7z"/>
			<rect x="40.5" y="12.4" class="st1" width="0.7" height="0.8"/>
			<path class="st1" d="M46.3,10.5v1.7c0,0.7,0.5,1,1,1c0.3,0,2.1,0,2.1,0c0.4,0,0.8-0.3,0.8-1c0-0.7,0-1.7,0-1.7
				c0-0.6-0.3-1.1-1.1-1.1c-0.3,0-1.1,0-1.7,0C46.8,9.4,46.3,9.7,46.3,10.5z M47,12.2v-1.8c0-0.3,0.3-0.4,0.6-0.4c0.5,0,1.1,0,1.4,0
				c0.4,0,0.5,0.2,0.5,0.4v1.8c0,0.2-0.1,0.4-0.3,0.4c-0.5,0-1.6,0-1.8,0C47.2,12.5,47,12.5,47,12.2z"/>
			<path class="st1" d="M33.7,9.5v2.8c0,0.2-0.1,0.4-0.3,0.4c0,0-0.8,0-1.3,0c-0.1,0-0.1,0-0.5-0.1v0.6c0.2,0.1,0.6,0.1,0.8,0.1
				c0.6,0,1.2,0,1.2,0c0.6,0,1-0.5,1-1V9.5H33.7z"/>
			<path class="st1" d="M43.3,10c0.3,0,1.1,0,1.6,0c0.2,0,0.6,0,0.6,0V9.5c-0.4-0.1-0.9-0.1-1.1-0.1c-0.3,0-1.4,0-1.4,0
				c-0.4,0-1,0.1-1,1.1V12c0,1,0.6,1.1,1,1.1h1.7c0.1,0,0.6-0.1,0.8-0.1v-0.5c0,0-0.3,0-0.6,0h-1.6c-0.4,0-0.5-0.1-0.5-0.3v-1.8
				C42.8,10.2,42.9,10,43.3,10z"/>
			<path class="st1" d="M54.9,9.4c-0.1,0-0.2,0.1-0.2,0.1c0,0-1,2.6-1,2.6c0,0,0,0,0,0c0,0,0,0,0,0c0,0-1-2.6-1-2.6
				c0-0.1-0.1-0.1-0.2-0.1c-0.1,0-1.4,0-1.4,0v3.7h0.7v-3.1c0,0,0.2,0,0.2,0c0.1,0,0.1,0,0.1,0.1l1,2.5c0,0,0,0.1,0.1,0.1h0.8
				c0.1,0,0.1,0,0.1-0.1l1-2.5c0,0,0.1-0.1,0.1-0.1c0.1,0,0.2,0,0.2,0v3.1h0.7V9.4C56.3,9.4,55,9.4,54.9,9.4z"/>
		</g>
		<path class="st2" d="M49.1,0.9H53V0.2h-3.9V0.9z M51.9,4.7h-0.6l-0.2,1.2h0l-0.2-1.2h-0.6l0.2,1.2h-0.3v0.6h0.6v1.1h0.7V6.5H52
			V5.9h-0.3L51.9,4.7z M49.3,1.4v1.9h3.4V1.4H49.3z M52,2.6h-1.8V2H52V2.6z M49.1,7.6h0.8V4.4h2.3v3.2H53V3.7h-3.9V7.6z M56.6,5.9
			h-0.7l0.1,1h-0.6V5h1.3V1h-1.3V0h-0.7v1h-1.2v4h1.2v1.8h-1.2v0.7h3.3L56.6,5.9z M55.3,1.7h0.6v2.5h-0.6V1.7z M54.6,4.2h-0.5V1.7
			h0.5V4.2z M34.8,5.3h1.4v1H37v-1h1.4v1h0.8V1.9h-1.4l0.1-0.1c0.4-0.2,0.7-0.5,1.1-0.7l0,0V0.2h-4.8V1h3.8L37.8,1
			c-0.5,0.3-1.1,0.6-1.7,0.8l-0.1,0l-0.1-0.5H35l0.1,0.5H34v4.4h0.8V5.3z M37,2.6h1.4v0.7H37V2.6z M37,3.9h1.4v0.6H37V3.9z
			 M34.8,2.6h1.4v0.7h-1.4V2.6z M34.8,3.9h1.4v0.6h-1.4V3.9z M33,1.9l-0.3-1.7h-0.9l0.3,1.7H33z M33.3,6V3.2h-1.7V4h0.9v1.9
			c-0.1,0.3-0.2,0.5-0.4,0.6c-0.1,0.1-0.3,0.2-0.4,0.2l0,0v0.8l0,0c0.4-0.1,0.8-0.2,1.1-0.5l0,0l0,0c0.4,0.4,0.9,0.5,1.3,0.5h0.1
			l0.1,0h5.2V6.8h-5.1C33.7,6.8,33.3,6.6,33.3,6z M47,5.6h-0.9l-0.2,1.2h-1.2V4.9h3.2V4.1h-3.2V3.2h2.1V2.5h-4.9v0.7h2.1v0.9h-3.2
			v0.7h3.2v1.9h-1.2l-0.2-1.2h-0.9l0.2,1.2h-1.4v0.8h7.7V6.8h-1.4L47,5.6z M29.3,1h1.3V0.2h-7.5V1h1.4v2.3H23v0.9h1.5
			c0,0,0,0.5,0,0.6c-0.1,1.2-1,1.8-1.4,1.9v0.9c0,0,2.2-0.4,2.3-3c0-0.1,0-0.4,0-0.4h3v3.3h0.9V4.2h1.4V3.4h-1.4V1z M28.4,3.4h-3V1
			h3V3.4z M44.2,0.8L44.2,0.8L44.2,0.8L44.2,0.8c0.9,0.8,2.6,1.6,3.8,1.8l0.1,0V1.8l-0.1,0c-1.2-0.3-2.6-1-3.4-1.8l0,0h-0.4v0h-0.4
			l0,0c-0.8,0.8-2.2,1.5-3.4,1.8l-0.1,0v0.9l0.1,0C41.7,2.4,43.3,1.7,44.2,0.8z"/>
	</g>
</g>
</svg>
