<?xml version="1.0" encoding="utf-8"?>
<!-- Generator: Adobe Illustrator 19.0.0, SVG Export Plug-In . SVG Version: 6.00 Build 0)  -->
<svg version="1.1" id="图层_1" xmlns="http://www.w3.org/2000/svg" xmlns:xlink="http://www.w3.org/1999/xlink" x="0px" y="0px"
	 viewBox="0 0 99.2 23.3" style="enable-background:new 0 0 99.2 23.3;" xml:space="preserve">
<style type="text/css">
	.st0{fill:#173778;}
	.st1{fill-rule:evenodd;clip-rule:evenodd;fill:#494650;}
	.st2{fill:#494650;}
</style>
<g>
	<g>
		<path class="st0" d="M21,0.3l-7.8,11.5L21,23.3l0,0h12.2V0.3H21z M0,23.3h12.2V0.3H0V23.3z"/>
	</g>
	<g>
		<g>
			<rect x="40.9" y="16.5" class="st1" width="1.3" height="6.5"/>
			<rect x="51.6" y="16.5" class="st1" width="1.3" height="6.5"/>
			<rect x="62.4" y="16.5" class="st1" width="1.3" height="6.5"/>
			<rect x="48.9" y="16.5" class="st1" width="6.7" height="1.1"/>
			<path class="st1" d="M48.2,23l-3.5-3.3l3.4-3.2h-1.7l-2.5,2.4c-0.2,0.2-0.3,0.3-0.6,0.3c-0.3,0-1.9,0-1.9,0v1.1c0,0,1.7,0,2,0
				c0.3,0,0.4,0.1,0.5,0.2l2.7,2.5H48.2z"/>
			<path class="st1" d="M69.4,23l-1.8-2.5c0.6-0.2,1.1-0.6,1.1-1.4v-1.2c0-1-0.7-1.5-2-1.5h-4.3v1.1c0,0,3.2,0,4.2,0
				c0.8,0,0.9,0.2,0.9,0.6v0.9c0,0.4-0.3,0.6-0.8,0.6h-4.2v1.1c0,0,3,0,3.5,0c0.4,0,0.5,0.1,0.6,0.3l1.4,1.9H69.4z"/>
			<rect x="70.9" y="21.6" class="st1" width="1.2" height="1.4"/>
			<path class="st1" d="M81,18.4v2.9c0,1.3,0.9,1.7,1.7,1.7c0.6,0,3.7,0,3.7,0c0.7,0,1.4-0.5,1.4-1.7c0-1.2,0-2.9,0-2.9
				c0-1.1-0.4-2-2-2c-0.6,0-1.9,0-3.1,0C81.8,16.4,81,16.9,81,18.4z M82.3,21.3v-3.1c0-0.6,0.5-0.7,1-0.7c0.8,0,1.9,0,2.5,0
				c0.6,0,0.8,0.3,0.8,0.7v3.1c0,0.3-0.1,0.7-0.6,0.7c-0.9,0-2.8,0-3.1,0C82.6,21.9,82.3,21.8,82.3,21.3z"/>
			<path class="st1" d="M58.9,16.5v4.9c0,0.3-0.2,0.6-0.6,0.6c0,0-1.3,0-2.3,0c-0.3,0-0.3,0-0.8-0.1v1c0.3,0.1,1,0.2,1.3,0.2
				c1,0,2,0,2,0c1.1,0,1.7-0.8,1.7-1.7v-4.8H58.9z"/>
			<path class="st1" d="M75.8,17.5c0.5,0,1.8,0,2.8,0c0.4,0,1.1,0.1,1.1,0.1v-1c-0.6-0.1-1.6-0.2-1.9-0.2c-0.5,0-2.5,0-2.5,0
				c-0.7,0-1.7,0.2-1.7,2V21c0,1.8,1,2,1.7,2h3c0.2,0,1.1-0.1,1.3-0.2v-0.9c0,0-0.6,0.1-1.1,0.1h-2.7c-0.8,0-0.9-0.3-0.9-0.6v-3.1
				C75,17.9,75.1,17.5,75.8,17.5z"/>
			<path class="st1" d="M96.1,16.5c-0.2,0-0.3,0.1-0.3,0.2c0,0-1.8,4.6-1.7,4.5c0,0,0,0,0,0c0,0,0,0,0,0c0,0.1-1.7-4.5-1.7-4.5
				c-0.1-0.1-0.1-0.2-0.3-0.2c-0.1,0-2.4,0-2.4,0V23h1.3v-5.4c0,0,0.3,0,0.4,0c0.1,0,0.2,0.1,0.2,0.2l1.7,4.4c0,0.1,0.1,0.1,0.3,0.1
				h1.3c0.2,0,0.2-0.1,0.3-0.1l1.7-4.4c0-0.1,0.1-0.2,0.2-0.2c0.1,0,0.4,0,0.4,0V23h1.3v-6.5C98.4,16.5,96.2,16.5,96.1,16.5z"/>
		</g>
		<path class="st2" d="M85.9,1.7h6.9V0.3h-6.9V1.7z M90.9,8.3h-1.1l-0.4,2h-0.1l-0.4-2h-1.1l0.4,2h-0.5v1.1h1v1.9H90v-1.9h1v-1.1
			h-0.5L90.9,8.3z M86.3,2.4v3.4h6V2.4L86.3,2.4z M90.9,4.6h-3.2v-1h3.2V4.6z M85.9,13.2h1.4V7.7h4.1v5.5h1.4V6.5h-6.9V13.2z
			 M99,10.2h-1.2l0.1,1.7h-1.1V8.7H99v-7h-2.2V0h-1.3v1.7h-2.1v7h2.1v3.2h-2.1v1.3h5.8L99,10.2z M96.8,3h1v4.4h-1V3z M95.5,7.4h-0.9
			V3h0.9V7.4z M61,9.2h2.4V11h1.4V9.2h2.4V11h1.4V3.3h-2.5l0.2-0.1c0.6-0.4,1.3-0.8,1.8-1.2l0,0V0.3h-8.4v1.3h6.6l-0.2,0.1
			c-0.9,0.6-1.9,1.1-3,1.4L63,3.3l-0.2-0.9h-1.5l0.2,0.9h-1.9V11H61V9.2z M64.8,4.5h2.4v1.2h-2.4V4.5z M64.8,6.9h2.4V8h-2.4V6.9z
			 M61,4.5h2.4v1.2H61V4.5z M61,6.9h2.4V8H61V6.9z M57.8,3.4l-0.6-3h-1.5l0.6,3H57.8z M58.3,10.5V5.7h-3V7h1.5l0,3.3
			c-0.2,0.5-0.4,0.9-0.7,1.1c-0.2,0.2-0.5,0.3-0.8,0.4l0,0v1.4l0.1,0c0.8-0.1,1.4-0.4,1.9-0.9l0.1-0.1l0,0.1
			c0.6,0.8,1.6,0.9,2.3,0.9l0.2,0l0.1,0h9.2v-1.4h-8.9C58.9,11.8,58.3,11.5,58.3,10.5z M82.2,9.8h-1.5l-0.4,2h-2.1V8.5h5.6V7.2h-5.6
			V5.6h3.6V4.4h-8.6v1.3h3.6v1.6h-5.6v1.3h5.6v3.3h-2.1l-0.4-2h-1.5l0.4,2h-2.4v1.3h13.5v-1.3h-2.4L82.2,9.8z M51.3,1.8h2.2V0.3
			H40.4v1.5h2.4v4h-2.6v1.5h2.6c0,0,0,0.8,0,1.1c-0.1,2.1-1.8,3.2-2.4,3.4v1.5c0,0,3.8-0.7,4-5.2c0-0.2,0-0.8,0-0.8h5.3v5.9h1.6V7.4
			h2.4V5.9h-2.4V1.8z M49.7,5.9h-5.3v-4h5.3V5.9z M77.4,1.5L77.4,1.5L77.4,1.5L77.4,1.5C79,2.9,81.9,4.2,84,4.7l0.2,0V3.2l-0.1,0
			c-2-0.5-4.5-1.7-5.9-3.1l0,0h-0.7v0h-0.7l0,0c-1.4,1.4-3.9,2.7-5.9,3.1l-0.1,0v1.5l0.2,0C73,4.2,75.8,2.9,77.4,1.5z"/>
	</g>
</g>
<g id="XMLID_14_">
</g>
<g id="XMLID_15_">
</g>
<g id="XMLID_16_">
</g>
<g id="XMLID_17_">
</g>
<g id="XMLID_18_">
</g>
<g id="XMLID_19_">
</g>
</svg>
