<?xml version="1.0" encoding="utf-8"?>
<!-- Generator: Adobe Illustrator 19.0.0, SVG Export Plug-In . SVG Version: 6.00 Build 0)  -->
<svg version="1.1" id="icons" xmlns="http://www.w3.org/2000/svg" xmlns:xlink="http://www.w3.org/1999/xlink" x="0px" y="0px"
	 viewBox="0 0 35.3 16.4" style="enable-background:new 0 0 35.3 16.4;" xml:space="preserve">
<style type="text/css">
	.st0{fill:#4380DD;}
</style>
<g id="seo-monitoring_2_">
	<g id="seo-monitoring_3_">
		<path class="st0" d="M10.9,11.2c-0.4,0-0.8,0.1-1.1,0.3L4.7,5.4C5,5,5.1,4.5,5.1,4c0-1.4-1.2-2.6-2.6-2.6C1.2,1.4,0,2.6,0,4
			c0,1.4,1.2,2.6,2.6,2.6c0.4,0,0.7-0.1,1-0.2l5.1,6.1c-0.3,0.4-0.4,0.9-0.4,1.4c0,1.4,1.2,2.6,2.6,2.6c1.4,0,2.6-1.1,2.6-2.6
			c0-0.6-0.2-1.2-0.6-1.6l2.9-4.3C16.1,7.9,16.3,8,16.6,8c0.5,0,0.9-0.1,1.3-0.4l5.1,5c-0.2,0.4-0.3,0.7-0.3,1.2
			c0,1.4,1.2,2.6,2.6,2.6c1.4,0,2.6-1.1,2.6-2.6c0-0.6-0.2-1.2-0.6-1.6L32,5c0.2,0.1,0.5,0.1,0.8,0.1c1.4,0,2.6-1.2,2.6-2.6
			c0-1.4-1.2-2.6-2.6-2.6c-1.4,0-2.6,1.2-2.6,2.6c0,0.6,0.2,1.2,0.6,1.7l-4.7,7.2c-0.2-0.1-0.5-0.1-0.8-0.1c-0.5,0-0.9,0.1-1.3,0.4
			l-5.1-5c0.2-0.3,0.3-0.7,0.3-1.1c0-1.4-1.2-2.6-2.6-2.6c-1.4,0-2.6,1.2-2.6,2.6c0,0.6,0.2,1.2,0.6,1.6l-3,4.3
			C11.4,11.3,11.2,11.2,10.9,11.2z"/>
	</g>
</g>
</svg>
