<?xml version="1.0" encoding="utf-8"?>
<!-- Generator: Adobe Illustrator 19.0.0, SVG Export Plug-In . SVG Version: 6.00 Build 0)  -->
<svg version="1.1" id="图层_1" xmlns="http://www.w3.org/2000/svg" xmlns:xlink="http://www.w3.org/1999/xlink" x="0px" y="0px"
	 viewBox="0 0 238.9 54.1" style="enable-background:new 0 0 238.9 54.1;" xml:space="preserve">
<style type="text/css">
	.st0{fill:#FFFFFF;}
</style>
<g>
	<path class="st0" d="M34.7,0.5H0l0,53.6h12.4V37h22.2c13.9,0,16.8-6.9,16.8-12.6V13.1C51.5,7.4,48.6,0.5,34.7,0.5z M12.5,11.5h21.1
		c5.5,0,5.5,0.9,5.5,3.5v7.7c0,2.5,0,3.5-5.5,3.5H12.5V11.5z"/>
	<path class="st0" d="M161.4,44.2c-0.2-0.1-0.4-0.2-0.7-0.7c-4.5-8-9.1-16-13.6-24.1c-3.2-5.6-6.3-11.1-9.5-16.7
		c-0.7-1.3-1.7-1.8-3.2-1.8h0c-1.2,0-2.4,0-3.7,0l-11.8,0V54h11.2V10.8c0.1,0.1,0.3,0.2,0.5,0.7c3.8,6.8,7.7,13.5,11.5,20.3
		c3.8,6.8,7.7,13.6,11.5,20.3c0.8,1.4,1.8,2,3.4,2h0.1c1.6,0,3.2,0,4.8,0l10.5,0V1h-11.2V44.2z M157.2,52.8L157.2,52.8L157.2,52.8
		L157.2,52.8z"/>
	<path class="st0" d="M238.9,28.3l0-1.3c-0.1-1.5-0.1-3-0.1-4.6c-0.1-3.5-0.2-7.1-0.5-10.6c-0.6-5.4-3.9-9.2-9.5-10.7
		c-2.2-0.6-4.4-1-6.5-1c-6.5-0.1-15.8-0.1-22.2,0c-10.1,0.2-16,5-16.2,13.3c-0.3,9-0.3,18.3,0,27.6c0.2,7.7,6.1,12.8,14.8,13
		c3.9,0.1,10.7,0.2,14.6,0.2c3.8,0,7.2-0.1,10.5-0.2c8.1-0.4,12.8-3.9,14.4-10.8c0.3-1.4,0.5-2.8,0.5-4.2c0-2.8,0-5.7,0-8.5l0-2
		L238.9,28.3z M195.4,25.7L195.4,25.7l0-1.7c0-2.7,0-5.4,0-8.1c0-0.8,0.1-1.6,0.3-2.6c0.3-1.5,1-2.6,3.4-3c1.1-0.2,2.2-0.3,3.4-0.3
		c4.7,0,12.3,0,17.1,0c0.9,0,2,0.1,3.1,0.2c2.9,0.4,3.6,1.5,3.9,3.4c0.2,1.2,0.3,2.1,0.3,3c0,6.9,0,13.8,0,20.8
		c0,1.1-0.1,2.2-0.3,3.4c-0.3,2.1-1.9,3.2-4.5,3.2c-3.2,0.1-9.3,0.1-12.6,0.1h0c-3.2,0-6.4,0-9.5-0.1c-3.1-0.1-4.5-1.5-4.6-4.7
		c-0.1-2.9-0.1-5.7,0-8.6l0-3.8L195.4,25.7z"/>
	<path class="st0" d="M112.1,51.6l-4.6-11.6c-5-12.4-10-24.9-15-37.3c-0.7-1.7-2-1.9-3-1.9h0c-4.3,0.1-8.5,0.1-13.2,0
		c-1.9,0-3,0.7-3.7,2.4c-4.4,11.1-8.9,22.2-13.4,33.3l-7.1,17.5h12.3l1.4-3.5c0.9-2.2,1.8-4.5,2.7-6.7c0.1-0.2,0.2-0.3,0.2-0.3
		c0,0,0.1-0.1,0.6-0.1l0,0c8.8,0,17.6,0,26.5,0c0.6,0,0.6,0,0.8,0.5c1.2,3.2,2.3,5.8,3.4,8.2c0.4,0.9,1.4,1.8,2.5,1.8
		c1.4,0,2.8,0.1,4.2,0.1l6.2,0l-0.6-2C112.2,51.9,112.1,51.8,112.1,51.6z M92.4,33.5H72.8l5.1-12.9c1.1-2.7,2.2-5.4,3.2-8.2
		c0.6-1.6,0.6-1.6,1.6-1.6c0.2,0,0.4,0,0.6,0L92.4,33.5z"/>
</g>
</svg>
